<svg width="100" height="100" viewBox="0 0 100 100" fill="none" xmlns="http://www.w3.org/2000/svg">
    <g clip-path="url(#clip0)">
        <path d="M0 50V0H100V100H0V50Z" fill="#005FBB" />
        <path
            d="M0 50V0H100V100H0V50ZM65.0862 78.7356C65.1724 78.592 65.1149 78.4483 64.9713 78.4483C64.7989 78.4483 64.6552 78.592 64.6552 78.7356C64.6552 78.908 64.7126 79.023 64.7701 79.023C64.8563 79.023 65 78.908 65.0862 78.7356ZM74.7126 54.4828C74.7126 54.3966 74.569 54.2529 74.3678 54.1379C74.1667 54.023 74.1379 54.0517 74.2529 54.2529C74.454 54.5977 74.7126 54.7126 74.7126 54.4828Z"
            fill="#005ED1" />
        <path
            d="M0 50V0H100V36.3506C100 65.1437 99.9138 72.7011 99.6264 72.5287C99.3678 72.3851 99.3678 72.4138 99.6552 72.7299C99.9138 73.0172 100 76.1782 100 86.5517V100H0V50ZM65.0862 78.7356C65.1724 78.592 65.1149 78.4483 64.9713 78.4483C64.7989 78.4483 64.6552 78.592 64.6552 78.7356C64.6552 78.908 64.7126 79.023 64.7701 79.023C64.8563 79.023 65 78.908 65.0862 78.7356ZM42.4425 78.2471C42.3276 78.1609 42.2414 78.2471 42.2414 78.4483C42.2414 78.6494 42.3276 78.7356 42.4425 78.6494C42.5287 78.5345 42.5287 78.3621 42.4425 78.2471ZM86.7816 76.0345C86.7816 75.9483 86.6379 75.8046 86.4368 75.6897C86.2356 75.5747 86.2069 75.6034 86.3218 75.8046C86.523 76.1494 86.7816 76.2644 86.7816 76.0345ZM78.8793 72.4138C78.9655 72.2701 78.9943 72.1264 78.908 72.1264C78.8218 72.1264 78.6782 72.2701 78.592 72.4138C78.5057 72.5862 78.477 72.7011 78.5632 72.7011C78.6494 72.7011 78.7931 72.5862 78.8793 72.4138ZM64.0805 68.5632C64.0805 68.477 63.9368 68.3333 63.7356 68.2184C63.5345 68.1034 63.5057 68.1322 63.6207 68.3333C63.8218 68.6782 64.0805 68.7931 64.0805 68.5632ZM87.9598 62.7299C88.3333 62.2701 88.3046 62.2414 87.8736 62.6149C87.3851 62.9885 87.2414 63.2184 87.4713 63.2184C87.5287 63.2184 87.7586 62.9885 87.9598 62.7299ZM79.5977 59.6552C79.5977 59.569 79.454 59.4253 79.2529 59.3103C79.0517 59.1954 79.023 59.2241 79.1379 59.4253C79.3391 59.7701 79.5977 59.8851 79.5977 59.6552ZM74.7126 54.4828C74.7126 54.3966 74.569 54.2529 74.3678 54.1379C74.1667 54.023 74.1379 54.0517 74.2529 54.2529C74.454 54.5977 74.7126 54.7126 74.7126 54.4828ZM97.5575 52.6437C97.4713 52.5575 97.2414 52.6437 97.0402 52.8448C96.7816 53.1322 96.8103 53.1609 97.2126 52.9885C97.5 52.9023 97.6437 52.7299 97.5575 52.6437ZM36.4943 52.5862C36.4943 52.4138 34.3966 52.2989 30.7759 52.2989C27.2414 52.2989 24.9713 52.4138 24.8563 52.5862C24.7414 52.7874 26.7241 52.8736 30.5747 52.8736C34.3391 52.8736 36.4943 52.7586 36.4943 52.5862ZM84.6839 32.2701C84.569 32.1839 84.4828 32.2701 84.4828 32.4713C84.4828 32.6724 84.569 32.7586 84.6839 32.6724C84.7701 32.5575 84.7701 32.3851 84.6839 32.2701ZM59.1092 22.5C58.9943 22.4138 58.908 22.5 58.908 22.7011C58.908 22.9023 58.9943 22.9885 59.1092 22.9023C59.1954 22.7874 59.1954 22.6149 59.1092 22.5Z"
            fill="#016ECF" />
        <path
            d="M85.1725 84.7129C85.0575 84.5118 85.0862 84.483 85.2874 84.598C85.4885 84.7129 85.6322 84.8566 85.6322 84.9428C85.6322 85.1727 85.3736 85.0578 85.1725 84.7129Z"
            fill="#0272E4" />
        <path
            d="M85.977 84.483C86.0345 83.822 85.8621 83.5922 85.4598 83.7358C85.2012 83.822 85.115 83.7933 85.2012 83.5922C85.4885 83.1611 83.3334 80.6899 82.8448 80.8623C82.5288 81.006 82.4713 80.891 82.6437 80.4025C82.7874 79.914 82.7299 79.8278 82.3563 79.9715C82.069 80.0864 81.954 80.0577 82.0402 79.8853C82.1265 79.7416 81.954 79.368 81.6092 79.0232C81.2931 78.7071 81.0345 78.5922 81.0345 78.7358C81.0345 78.9083 80.8334 79.0232 80.6035 79.0232C80.3736 79.0232 79.8563 79.5117 79.454 80.1151C79.0517 80.7186 78.3334 81.5232 77.8448 81.868C77.3851 82.2128 77.0402 82.6726 77.0977 82.845C77.1552 83.0462 76.7816 83.4772 76.2644 83.8508L75.3161 84.483L55.977 84.4255L36.6379 84.3393L36.5517 68.3048L36.4943 52.2703L30.0288 52.3565C26.4655 52.414 23.5632 52.414 23.5632 52.3565C23.5632 52.3278 23.6782 52.0692 23.8219 51.7818C23.9368 51.5232 24.2816 50.7761 24.569 50.1439C24.8276 49.5117 25.3161 48.4485 25.6035 47.7876C25.8908 47.0979 26.4081 45.9772 26.7242 45.2588C27.0402 44.5404 27.5862 43.391 27.931 42.6726C28.2759 41.983 28.477 41.322 28.3908 41.2071C28.2759 41.1209 28.4483 40.7761 28.7644 40.4312C29.0517 40.1152 29.3104 39.6554 29.3104 39.4255C29.3104 39.1956 29.569 38.5634 29.9138 38.0175C30.2586 37.5002 30.431 36.868 30.3448 36.6094C30.2299 36.322 30.2874 36.2358 30.5173 36.3795C30.7471 36.5232 30.7759 36.322 30.6322 35.7473C30.4885 35.1726 30.5173 35.0289 30.7184 35.3163C30.9483 35.6611 31.0632 35.5749 31.3219 34.8853C31.523 34.4255 31.954 33.4772 32.3276 32.7588C32.7012 32.0404 33.0747 30.9772 33.1897 30.4025C33.3046 29.7991 33.5058 29.3968 33.6494 29.483C33.9081 29.6266 34.0517 28.8508 33.9655 27.7301C33.9081 27.2991 33.9655 27.2416 34.1667 27.5577C34.3678 27.8738 34.4828 27.845 34.7127 27.414C34.8563 27.0979 35.0862 26.437 35.2012 25.9198C35.2874 25.4312 35.5173 25.0002 35.6609 25.0002C35.8046 25.0002 35.9196 24.7991 35.9196 24.5404C35.9196 24.2818 36.1782 23.6209 36.523 23.1037C36.8391 22.5577 37.069 21.9542 37.0115 21.7818C36.9253 21.5807 37.069 21.2358 37.2701 21.0347C37.5 20.8048 37.5862 20.3738 37.5 20.0002C37.3563 19.5404 37.3851 19.483 37.615 19.8278C37.8448 20.1726 37.931 20.1439 38.0747 19.6841C38.1609 19.368 38.5058 18.6209 38.8219 18.0175C39.1379 17.414 39.3391 16.8393 39.2529 16.7531C39.1667 16.6381 39.2242 16.4083 39.3966 16.1784C39.6552 15.891 41.3793 15.8048 47.6724 15.8048H55.6322L55.9483 16.6956C56.1494 17.1841 56.4368 17.5002 56.5805 17.3853C56.7816 17.2703 56.8104 17.3853 56.6954 17.7014C56.5517 18.0462 56.6092 18.1324 56.8678 17.96C57.1552 17.8163 57.1839 17.9025 57.0402 18.3623C56.8104 19.0807 57.8736 20.6899 58.1609 20.0577C58.2471 19.8565 58.2471 19.9715 58.1609 20.3163C58.0747 20.6611 58.1322 21.1784 58.3046 21.4657C58.4483 21.7531 58.6494 22.3278 58.7644 22.7876C58.8506 23.2186 59.0517 23.5634 59.2242 23.5634C59.3966 23.5634 59.4828 22.1841 59.4253 19.6266L59.3391 15.6611L69.1954 15.7473C78.2184 15.8048 79.0517 15.8623 79.1954 16.3221C79.3104 16.5807 79.5402 17.2129 79.7701 17.7301C80 18.2186 80.1724 18.8221 80.1724 19.0519C80.1724 19.3106 80.3161 19.5979 80.4598 19.6841C80.6322 19.7703 80.7471 20.1152 80.7471 20.4312C80.7471 20.7186 81.0058 21.4657 81.3219 22.0404C81.6379 22.6439 81.8966 23.3048 81.8966 23.506C81.8966 23.7071 82.0402 23.7933 82.2127 23.7071C82.3851 23.5922 82.4425 23.3048 82.3563 23.0749C82.2701 22.845 82.2989 22.7301 82.4425 22.845C82.9023 23.1037 84.8851 17.2703 84.569 16.4945C84.4828 16.2646 84.5115 16.0922 84.6552 16.1209C84.7989 16.1496 85.115 16.0922 85.3448 15.9772C85.6035 15.891 88.9655 15.8335 92.8161 15.8623L99.8563 15.9485L99.9425 18.4772L100.029 20.9772H94.4253C91.3506 20.9772 88.7644 21.0922 88.6782 21.2358C88.5632 21.3795 88.477 21.8393 88.4483 22.2129C88.4196 22.6152 88.3046 22.9025 88.1897 22.8163C87.9885 22.7014 86.2069 27.2129 86.2069 27.8163C86.2069 28.0175 86.0058 28.506 85.7471 28.8795C85.4885 29.2531 85.3448 29.7991 85.4023 30.0864C85.4598 30.3738 85.2586 30.8335 85 31.0922C84.7127 31.3795 84.4828 32.0117 84.4828 32.4715C84.4828 32.96 84.3678 33.3335 84.1954 33.3335C84.0517 33.3335 83.9081 33.5634 83.9081 33.8508C83.9081 34.1094 83.7069 34.7129 83.477 35.1726C83.2184 35.6324 83.1035 36.2071 83.1609 36.4083C83.2471 36.6094 83.2184 36.7818 83.0747 36.7818C82.9311 36.7818 82.7586 37.0404 82.6724 37.3853C82.4425 38.2186 81.8104 37.9312 81.5805 36.868C81.4943 36.3795 81.1207 35.4312 80.8046 34.7129C80.4598 34.0232 80.1724 33.2761 80.1724 33.0749C80.1724 32.8738 80 32.3565 79.7701 31.9542C79.1379 30.7761 78.4483 29.1094 78.4483 28.7933C78.4483 28.2473 77.6724 27.0117 77.4425 27.2416C77.3276 27.3565 77.3276 27.1554 77.4425 26.7818C77.5575 26.3795 77.4138 25.6899 77.069 24.914C76.7529 24.2531 76.3506 23.2186 76.1494 22.6152C75.977 22.0404 75.6897 21.6094 75.546 21.6956C75.4023 21.8106 75.3736 21.6669 75.4598 21.437C75.6035 21.0347 74.9713 20.9772 70 20.9772H64.3678V33.7071C64.3678 40.7186 64.2816 46.5519 64.1667 46.6381C63.8793 46.9542 63.2184 46.2646 63.2184 45.6324C63.2184 45.345 62.9598 44.5979 62.6724 44.0232C62.1265 42.96 61.5517 41.6669 60.9483 40.1439C60.7759 39.7129 60.4885 39.4255 60.3448 39.5117C60.2012 39.5979 60.1437 39.5117 60.2299 39.2818C60.3161 39.0519 60.1724 38.7358 59.9425 38.5347C59.7127 38.3335 59.5977 37.9887 59.6552 37.7876C59.7414 37.5577 59.6265 37.0979 59.3678 36.7243C59.1092 36.3795 58.9081 35.8623 58.9081 35.5749C58.9081 35.2876 58.6782 34.8278 58.3908 34.5404C58.1035 34.2531 57.9023 33.8795 57.9598 33.7358C58.0747 33.3623 57.2701 31.4083 56.8966 31.1784C56.7529 31.0922 56.6092 30.7473 56.6092 30.4312C56.6092 30.1439 56.4943 29.8853 56.3506 29.8853C56.2069 29.8853 55.977 29.4542 55.8908 28.937C55.7759 28.4485 55.4311 27.5577 55.1724 27.0117C54.8851 26.4657 54.454 25.5175 54.1954 24.9427C53.9368 24.3393 53.6207 23.8508 53.477 23.8508C53.3333 23.8508 53.2759 23.6209 53.3333 23.3335C53.4196 23.0749 53.2471 22.5864 52.9311 22.2703C52.6437 21.9542 52.4425 21.5232 52.5288 21.3221C52.615 21.0634 51.5517 20.9772 48.0173 20.9772C44.5402 20.9772 43.3908 21.0634 43.3908 21.3221C43.3908 21.6381 42.6724 23.2761 41.4368 25.6611C41.2356 26.0922 41.1207 26.6669 41.2069 26.8968C41.2931 27.0979 41.2644 27.2991 41.1207 27.2991C40.9196 27.2991 40.6322 27.8163 39.6552 29.9427C39.454 30.345 39.3678 30.8335 39.4828 30.9772C39.569 31.1209 39.454 31.4083 39.2242 31.6094C39.023 31.7818 38.9081 32.1554 38.9943 32.3853C39.1092 32.7014 39.0517 32.7876 38.8506 32.6439C38.6207 32.5289 38.3333 32.845 38.046 33.5347C37.7874 34.1381 37.4425 34.914 37.2701 35.2588C37.1265 35.5749 37.0977 36.0347 37.2127 36.2646C37.3563 36.4657 37.3563 36.5519 37.2127 36.437C36.954 36.2071 36.2931 37.5002 33.8506 43.0175C33.5058 43.7933 33.1322 44.6554 32.9598 44.9427C32.3563 46.1496 32.1839 47.2416 32.5575 47.4715C32.7299 47.5864 34.3678 47.7014 36.1494 47.7014C38.9943 47.7014 39.3966 47.6439 39.5402 47.2129C39.6265 46.9255 39.8851 46.322 40.1437 45.891C40.3736 45.4312 40.5173 44.7991 40.431 44.483C40.3448 44.1669 40.3448 43.9945 40.431 44.0807C40.5173 44.1669 40.8333 43.822 41.092 43.3048L41.5805 42.3853L47.9598 42.2991C53.592 42.2416 54.3391 42.2703 54.5115 42.7014C54.6552 43.0749 54.7414 43.0749 54.9425 42.7588C55.0862 42.5289 55.115 42.6439 55 43.1324C54.9138 43.5634 54.9713 43.9945 55.1437 44.0807C55.3161 44.1956 55.4598 44.5404 55.4598 44.8278C55.4598 45.5175 56.0345 45.8623 56.3506 45.3738C56.4943 45.1439 56.6092 45.0577 56.6092 45.2014C56.6092 45.3163 56.4368 45.6611 56.2644 46.006C55.9483 46.4945 55.977 46.6381 56.6092 47.1266C57.2701 47.6439 57.8448 47.7014 63.5632 47.7014C69.2529 47.7014 69.7989 47.6439 69.9138 47.2129C70.0288 46.7243 70.0575 46.7243 70.0862 47.2129C70.0862 47.4715 70.3161 47.7014 70.546 47.7014C70.8908 47.7014 70.977 46.2646 71.0345 37.6152C71.092 32.0692 71.0345 27.4715 70.9196 27.3853C70.6035 27.2129 70.6322 26.7243 70.9483 26.7243C71.092 26.7243 71.2644 26.983 71.3506 27.3278C71.4368 27.6726 71.6379 27.845 71.7816 27.7588C71.9253 27.6726 71.9828 27.9312 71.8966 28.3048C71.8391 28.7071 71.9828 29.3393 72.2414 29.7416C72.5 30.1152 72.7012 30.6324 72.7012 30.891C72.7012 31.1496 73.1035 32.1841 73.5632 33.1899C74.0517 34.1956 74.4253 35.1439 74.4253 35.2876C74.4253 35.46 74.6265 35.9485 74.8563 36.3795C75.0862 36.8393 75.2874 37.4715 75.2874 37.7876C75.2874 38.1037 75.4598 38.6496 75.6897 38.9657C75.9196 39.2818 76.2356 40.0002 76.3793 40.5462C76.523 41.0922 76.7529 41.4945 76.9253 41.4657C77.069 41.437 77.1265 41.7818 77.069 42.2416C76.9828 42.7876 77.1552 43.2473 77.5288 43.6209C77.8448 43.937 78.046 44.2818 77.9598 44.368C77.6437 44.6841 78.7644 47.3853 79.2529 47.414C79.5115 47.4427 81.0058 47.5289 82.5862 47.5864C85.0288 47.7301 85.4023 47.6726 85.2586 47.3278C85.1724 47.0692 85.2586 46.8106 85.4885 46.7531C85.6897 46.6669 85.9483 46.1496 86.0632 45.6324C86.1782 45.1152 86.4655 44.4255 86.6667 44.1094C86.8966 43.7933 87.069 43.2761 87.069 42.9025C87.069 42.5577 87.2127 42.1841 87.3563 42.0979C87.5288 42.0117 87.6437 41.6956 87.6437 41.437C87.6437 41.1496 87.8736 40.4887 88.1609 39.9427C88.4483 39.3968 88.9368 38.2186 89.2242 37.3565C89.5115 36.4945 89.8563 35.4887 90.0288 35.1439C90.1724 34.7991 90.2299 34.2818 90.115 33.9945C90 33.7358 90 33.5922 90.115 33.7071C90.3448 33.937 91.0345 32.7014 91.1494 31.8106C91.2069 31.4657 91.3506 31.006 91.4655 30.8335C91.6092 30.6324 91.6092 30.46 91.4943 30.46C91.3793 30.46 91.4655 30.2876 91.7242 30.0864C91.9828 29.914 92.2701 29.2531 92.3563 28.6784C92.4713 28.0749 92.6724 27.5289 92.8161 27.4427C92.9885 27.3278 93.1035 30.9198 93.1035 37.1841C93.1035 46.6956 93.1322 47.1266 93.6494 47.414C93.9655 47.5577 95.5173 47.7014 97.0977 47.7014H100V52.8163C100 56.4945 99.9138 58.0174 99.6552 58.2761C99.3678 58.5634 99.3678 58.7071 99.7127 58.937C100.086 59.1956 100.086 59.2243 99.6839 59.1094C99.1667 58.937 92.6724 65.2588 92.8448 65.7473C92.9023 65.891 93.9081 67.0692 95.0862 68.3623C96.7529 70.2014 97.3276 70.6611 97.7586 70.5174C98.2184 70.3738 98.3046 70.46 98.1609 70.891C97.9311 71.5807 98.8506 72.5002 99.5115 72.2416C99.9138 72.0979 99.9713 72.7588 99.9713 78.2761V84.4542L92.9885 84.5404C89.1092 84.5979 85.977 84.5692 85.977 84.483ZM69.6552 78.7358H72.8448L74.3678 77.414C75.2299 76.6381 75.8334 75.9197 75.7471 75.6899C75.6609 75.4887 75.8621 75.2301 76.1782 75.1439C76.6667 74.9715 76.8678 74.6554 76.7529 74.0519C76.7242 73.9083 76.8391 73.8795 77.0115 73.9945C77.1552 74.0807 77.2989 74.0519 77.2989 73.9083C77.2989 73.7646 77.5575 73.5634 77.9023 73.4772C78.2471 73.391 78.4196 73.1899 78.3046 72.9887C78.2184 72.8163 78.2471 72.7301 78.4483 72.7588C78.6207 72.8163 79.2816 72.2703 79.8851 71.5519C80.9196 70.4025 81.0632 70.3163 81.3506 70.7761C81.4943 71.0347 81.8391 71.2646 82.069 71.2646C82.2989 71.2646 82.5575 71.4657 82.6724 71.6956C82.7586 71.9542 83.3334 72.6439 83.9368 73.2473C84.569 73.8508 85.0575 74.4542 85.0575 74.5979C85.0575 74.7416 85.977 75.7186 87.1265 76.7818L89.1954 78.7071H93.1609C95.3448 78.7071 97.2989 78.7933 97.5 78.9083C97.6724 78.9945 97.5 78.7646 97.069 78.391C96.6092 77.9887 96.2644 77.5577 96.2644 77.414C96.2644 77.0692 92.7299 73.7358 92.4425 73.7933C92.2989 73.822 92.2989 73.7358 92.3851 73.5634C92.615 73.1611 91.7242 72.1266 91.1782 72.1266C90.9483 72.1266 90.8334 72.0117 90.9483 71.868C91.1207 71.5807 90 70.8048 89.5977 70.9197C89.4828 70.9485 89.4828 70.7473 89.569 70.4887C89.6839 70.2014 89.6265 70.0864 89.454 70.2014C89.3104 70.3163 89.023 70.0577 88.8506 69.6841C88.6494 69.2818 88.3908 68.9657 88.2184 68.9657C88.0747 68.9657 87.9311 68.7933 87.9311 68.5634C87.9311 68.3335 87.2701 67.5864 86.4655 66.8968C85.3161 65.9485 85.0862 65.6037 85.4023 65.3738C86.0632 64.8278 88.0747 62.5577 87.7299 62.7588C87.5288 62.8738 87.3563 62.8163 87.3563 62.6726C87.3563 62.5002 87.6437 62.3853 87.9885 62.4427C88.4196 62.4715 88.9655 62.0404 89.9713 60.8048C90.7471 59.8565 91.2931 58.9945 91.2069 58.8795C91.1494 58.7646 91.2357 58.5634 91.4081 58.4485C91.6379 58.3335 91.6667 58.3623 91.5517 58.5634C91.1494 59.2243 91.8678 58.9083 92.6437 58.0749C93.1035 57.6152 93.3621 57.0979 93.2759 56.9255C93.1609 56.7243 93.2471 56.6669 93.5058 56.7818C93.7931 56.8968 94.1667 56.5807 94.6265 55.8335C95.0288 55.2301 95.6609 54.4255 96.092 54.0519C96.6667 53.506 96.7529 53.2761 96.4943 53.1037C96.2357 52.9312 96.3506 52.9025 96.7529 53.0174C97.0977 53.1037 97.4425 53.0462 97.5575 52.8738C97.8448 52.414 90.1724 52.4715 89.6839 52.96C89.3678 53.2473 89.3104 53.2473 89.4828 52.96C89.8563 52.2703 89.2816 52.5864 88.477 53.4772C88.0173 53.9945 87.7299 54.5117 87.8161 54.6554C87.9023 54.7991 87.8736 54.8853 87.7299 54.8565C87.0977 54.7416 86.7242 54.914 86.8678 55.2876C86.9828 55.6037 86.8966 55.6611 86.5805 55.5462C86.2357 55.4025 86.1782 55.5174 86.3219 56.0634C86.4081 56.437 86.4081 56.5807 86.3219 56.4083C86.092 55.891 85.546 55.9485 85.7184 56.437C85.8334 56.7243 85.7471 56.8106 85.4598 56.6956C85.2299 56.6094 85.0575 56.7243 85.0575 56.983C85.0575 57.2416 84.5402 57.8738 83.8793 58.4485C83.2184 58.9945 82.7874 59.5692 82.9023 59.7416C82.9885 59.9427 82.9023 59.9715 82.6437 59.8853C82.3851 59.7991 82.069 59.9715 81.8391 60.3163C81.3506 61.0922 81.092 61.0634 80.4023 60.1726C80.0288 59.7129 79.6552 59.5117 79.3678 59.6266C79.1092 59.7129 78.9943 59.7129 79.1092 59.5979C79.3678 59.3393 78.1609 58.0174 77.8448 58.1899C77.7299 58.2761 77.5288 58.1899 77.4138 58.0174C77.2989 57.7876 77.3276 57.7588 77.5288 57.8738C77.9885 58.1324 77.9598 57.6726 77.5288 57.2416C77.2701 56.983 77.0977 56.983 76.7816 57.2703C76.4081 57.5577 76.3793 57.5289 76.6667 57.0117C76.954 56.4657 76.8104 56.2358 75.2874 54.8853C74.3391 54.0232 73.5632 53.1611 73.5632 52.96C73.5632 52.6439 72.6724 52.5577 69.1092 52.6152L64.6552 52.6439L65.5173 53.7358C66.6092 55.1152 68.0747 56.3795 68.3621 56.2071C68.477 56.1209 68.592 56.2071 68.592 56.4083C68.592 57.0404 69.6265 58.3623 70 58.2186C70.2012 58.1324 70.3161 58.2186 70.2299 58.4197C70.1724 58.6209 70.4885 59.1669 70.977 59.6266C71.4368 60.0864 71.8391 60.345 71.8391 60.2301C71.8391 60.1151 72.0402 60.2014 72.2701 60.46C72.5 60.6899 72.7012 61.006 72.7012 61.1784C72.7012 61.7531 74.7989 63.822 75.2012 63.6784C75.4311 63.5922 75.5173 63.6209 75.4311 63.7646C75.3448 63.9083 75.5173 64.2243 75.8046 64.4255C76.8391 65.1726 76.7816 65.7761 75.6035 67.2703C75 68.0174 74.4253 68.5634 74.3104 68.4772C74.1954 68.3623 74.0517 68.5634 73.9368 68.9083C73.8506 69.2531 73.6207 69.5404 73.4196 69.5404C73.2184 69.5404 72.5862 70.1439 72.0402 70.9197C71.4943 71.6669 70.6322 72.5577 70.1437 72.9312C69.6552 73.2761 69.2529 73.7646 69.2529 73.9945C69.2529 74.2243 69.0517 74.4255 68.8219 74.4255C68.5345 74.4255 68.3908 74.6266 68.4483 74.914C68.5058 75.2014 68.3908 75.4312 68.2184 75.4312C67.7874 75.4312 66.9253 76.3795 66.8391 76.9542C66.7816 77.2128 66.6379 77.4427 66.4943 77.4427C66.0632 77.4715 64.6552 78.506 64.6552 78.7933C64.6552 78.9657 65.0288 79.0232 65.546 78.9083C66.0345 78.822 67.9023 78.7358 69.6552 78.7358ZM64.1954 78.2761C64.2816 78.0462 64.3678 76.8105 64.3678 75.5749V73.3048H48.7069V68.6496L56.3506 68.6784C62.7874 68.6784 63.9943 68.6209 63.9943 68.2761C63.9943 68.0462 63.7931 67.9312 63.5345 68.0174C63.1897 68.1037 63.1897 68.0749 63.592 67.8163C63.9943 67.5577 64.0805 67.0692 64.0805 65.2301V62.96H56.4081L48.7069 62.9887L48.6207 60.6037L48.5345 58.1899L56.092 58.2761C62.9885 58.3623 63.6782 58.3048 63.9943 57.8738C64.2242 57.5577 64.3678 56.4657 64.3678 54.9715V52.5864L53.2759 52.5289C47.1839 52.4715 42.1265 52.5002 42.069 52.5577C41.8678 52.7588 41.9253 78.3335 42.1265 78.5347C42.2414 78.6209 47.1839 78.7071 53.1609 78.7358C62.8736 78.7358 64.023 78.7071 64.1954 78.2761Z"
            fill="#0272E4" />
        <path
            d="M69.9713 73.5634C70.0575 73.4197 70.2012 73.276 70.2874 73.276C70.3448 73.276 70.4023 73.4197 70.4023 73.5634C70.4023 73.7358 70.2586 73.8507 70.0862 73.8507C69.9425 73.8507 69.8851 73.7358 69.9713 73.5634ZM80.8334 69.914C80.9483 69.8278 81.1207 69.8278 81.2357 69.914C81.3219 70.0289 81.2357 70.1151 81.0345 70.1151C80.8334 70.1151 80.7471 70.0289 80.8334 69.914ZM84.3391 58.9082C84.4253 58.7645 84.569 58.6209 84.6552 58.6209C84.7414 58.6209 84.7127 58.7645 84.6265 58.9082C84.5403 59.0806 84.3966 59.1956 84.3104 59.1956C84.2242 59.1956 84.2529 59.0806 84.3391 58.9082ZM75.7759 56.4082C75.6609 56.322 75.5747 56.0921 75.5747 55.9197C75.5747 55.7473 75.7184 55.776 75.9196 55.9772C76.092 56.1496 76.1782 56.3795 76.1207 56.4657C76.0345 56.5519 75.8621 56.5232 75.7759 56.4082ZM90.0288 53.5347C90.1437 53.4484 90.3161 53.4484 90.4311 53.5347C90.5173 53.6496 90.4311 53.7358 90.2299 53.7358C90.0288 53.7358 89.9426 53.6496 90.0288 53.5347ZM50.0862 73.937C50.2012 73.8507 50.3736 73.8507 50.4885 73.937C50.5747 74.0519 50.4885 74.1381 50.2874 74.1381C50.0862 74.1381 50 74.0519 50.0862 73.937ZM93.1035 65.5174C93.1035 65.3163 93.1897 65.2301 93.3046 65.3163C93.3908 65.4312 93.3908 65.6036 93.3046 65.7186C93.1897 65.8048 93.1035 65.7186 93.1035 65.5174ZM24.7126 47.1266C24.7126 46.9255 24.7989 46.8392 24.9138 46.9255C25 47.0404 25 47.2128 24.9138 47.3278C24.7989 47.414 24.7126 47.3278 24.7126 47.1266ZM38.9368 46.8392C39.023 46.6956 39.1667 46.5519 39.2529 46.5519C39.3104 46.5519 39.3678 46.6956 39.3678 46.8392C39.3678 47.0117 39.2241 47.1266 39.0517 47.1266C38.9081 47.1266 38.8506 47.0117 38.9368 46.8392ZM28.592 39.6553C28.6782 39.5117 28.8218 39.368 28.9081 39.368C28.9943 39.368 28.9655 39.5117 28.8793 39.6553C28.7931 39.8278 28.6494 39.9427 28.5632 39.9427C28.477 39.9427 28.5058 39.8278 28.592 39.6553ZM43.8218 36.4944C44.0805 36.2071 44.3104 35.6611 44.3678 35.2588C44.3966 34.8565 44.6552 34.1956 44.9138 33.7933C45.2012 33.391 45.3448 33.0461 45.2299 33.0461C45.1437 33.0461 45.2299 32.7588 45.4598 32.414C45.8046 31.868 46.1782 30.8335 46.3793 29.8852C46.4081 29.799 46.6667 29.3967 46.954 28.9657C47.2414 28.5346 47.3851 28.0749 47.2989 27.9312C47.069 27.5576 47.8736 26.9255 48.2759 27.1553C48.4196 27.2415 48.5632 27.6438 48.5632 28.0174C48.5632 28.7645 49.023 29.2243 49.2241 28.6783C49.2816 28.4772 49.2816 28.6496 49.2241 29.1094C49.1379 29.6266 49.2241 29.9427 49.5402 30.0576C49.7701 30.1438 49.8851 30.4025 49.7989 30.6611C49.6839 30.9772 49.7414 31.0634 49.9425 30.9197C50.1724 30.776 50.2299 30.891 50.0862 31.2071C50 31.4657 50.2012 32.2703 50.5747 33.0174C50.9483 33.7358 51.3506 34.5691 51.4655 34.8278C51.6092 35.1151 51.7241 35.5174 51.7241 35.7473C51.7241 35.9772 51.8678 36.2071 52.069 36.2645C52.2414 36.322 52.2989 36.5519 52.1839 36.7243C52.0115 36.9829 50.8046 37.0691 47.6437 37.0404C43.5345 37.0117 43.3621 36.9829 43.8218 36.4944ZM80.1724 35.6324C80.1724 35.4312 80.2586 35.345 80.3736 35.4312C80.4598 35.5461 80.4598 35.7186 80.3736 35.8335C80.2586 35.9197 80.1724 35.8335 80.1724 35.6324ZM51.4368 33.9082C51.4368 33.7071 51.523 33.6209 51.6379 33.7071C51.7241 33.822 51.7241 33.9944 51.6379 34.1094C51.523 34.1956 51.4368 34.1094 51.4368 33.9082ZM73.2759 31.6094C73.2759 31.4082 73.3621 31.322 73.477 31.4082C73.5632 31.5232 73.5632 31.6956 73.477 31.8105C73.3621 31.8967 73.2759 31.8105 73.2759 31.6094ZM72.4138 28.7358C72.4138 28.5346 72.5 28.4484 72.615 28.5346C72.7012 28.6496 72.7012 28.822 72.615 28.9369C72.5 29.0232 72.4138 28.9369 72.4138 28.7358ZM69.8276 27.5864C69.8276 27.3852 69.9138 27.299 70.0288 27.3852C70.115 27.5002 70.115 27.6726 70.0288 27.7875C69.9138 27.8737 69.8276 27.7875 69.8276 27.5864ZM87.9311 23.5634C87.9311 23.3622 88.0173 23.276 88.1322 23.3622C88.2184 23.4772 88.2184 23.6496 88.1322 23.7645C88.0173 23.8507 87.9311 23.7645 87.9311 23.5634ZM81.0345 20.1151C81.0345 19.914 81.1207 19.8278 81.2357 19.914C81.3219 20.0289 81.3219 20.2013 81.2357 20.3163C81.1207 20.4025 81.0345 20.3163 81.0345 20.1151ZM56.0345 16.4082C56.0345 16.2645 56.1782 16.0346 56.3219 15.9484C56.4943 15.8622 56.6092 15.891 56.6092 16.0634C56.6092 16.2071 56.4943 16.4369 56.3219 16.5232C56.1782 16.6094 56.0345 16.5806 56.0345 16.4082Z"
            fill="#0272E4" />
        <path
            d="M36.6954 84.2817C36.5805 84.1955 36.4943 76.9254 36.4943 68.1897V52.2702L30.0288 52.3564C26.4655 52.4139 23.5632 52.4139 23.5632 52.3564C23.5632 52.3277 23.6782 52.0691 23.8219 51.7817C23.9368 51.5231 24.2816 50.776 24.569 50.1438C24.8276 49.5116 25.3161 48.4484 25.6035 47.7874C26.8966 44.8851 27.7586 42.9311 28.8793 40.3737C29.1379 39.7415 29.6839 38.592 30.0288 37.7874C30.4023 37.0116 30.9196 35.8334 31.2069 35.2012C31.4655 34.5691 31.9828 33.4196 32.3563 32.615C32.7012 31.8392 33.2184 30.661 33.5058 30.0288C33.7644 29.3966 34.2242 28.3622 34.4828 27.73C34.7701 27.0978 35.2299 26.0633 35.4885 25.4311C35.7759 24.7989 36.2356 23.7357 36.523 23.0748C36.8391 22.3851 37.2989 21.2932 37.615 20.6323C37.9023 19.9426 38.4196 18.8219 38.7356 18.1035C39.0517 17.3851 39.3966 16.5805 39.4828 16.2932C39.6265 15.8334 40.2586 15.8047 47.615 15.8047H55.6035L56.2931 17.4714C56.6954 18.3622 57.2414 19.4254 57.5288 19.7989C57.8161 20.1725 58.046 20.6323 58.046 20.8047C58.046 21.3794 58.9943 23.5633 59.2242 23.5633C59.3678 23.5633 59.4828 21.8104 59.4828 19.684V15.8047H69.2529C78.3334 15.8047 79.0517 15.8334 79.1954 16.3219C79.3104 16.5805 79.5402 17.2127 79.7701 17.73C80 18.2185 80.1724 18.8219 80.1724 19.0518C80.1724 19.3104 80.3161 19.5978 80.4598 19.684C80.6322 19.7702 80.7471 20.115 80.7471 20.4311C80.7471 20.7185 81.0058 21.4656 81.3219 22.0403C81.6379 22.6438 81.8966 23.3047 81.8966 23.5346C81.8966 23.8219 81.9828 23.8507 82.2989 23.592C82.5288 23.3909 83.1897 21.7242 83.7931 19.8851C84.3966 18.0461 85 16.3507 85.1437 16.1495C85.3736 15.8909 87.069 15.8047 92.6437 15.8622L99.8563 15.9484L99.9425 18.4771L100.029 20.9771H94.3966C89.3104 20.9771 88.7644 21.0346 88.592 21.4943C88.5058 21.753 88.1322 22.6438 87.7874 23.4196C87.4425 24.2242 86.9253 25.5748 86.6379 26.4369C86.3506 27.2989 85.9483 28.3622 85.7471 28.7932C85.5173 29.1955 85.3448 29.7702 85.3448 30.0863C85.3448 30.3737 85.1437 30.8622 84.9138 31.1495C84.6839 31.4656 84.4828 32.0116 84.4828 32.3564C84.4828 32.73 84.3678 33.1035 84.1954 33.1897C84.0517 33.276 83.9081 33.5633 83.9081 33.8219C83.9081 34.0518 83.7356 34.6553 83.5058 35.1438C83.2759 35.661 82.9885 36.4656 82.8448 36.9254C82.5 38.0461 81.8391 38.0173 81.5805 36.8966C81.4943 36.4081 81.1207 35.4311 80.8046 34.7127C80.4598 34.0231 80.1724 33.276 80.1724 33.0748C80.1724 32.8737 80 32.3564 79.7701 31.9541C79.0517 30.5748 78.4483 29.0805 78.4483 28.6495C78.4483 28.3909 78.3334 28.1323 78.1897 28.0173C78.046 27.9311 77.8161 27.4426 77.7299 26.9254C77.615 26.4369 77.3276 25.5461 77.069 25.0001C76.8391 24.4541 76.4081 23.3622 76.1494 22.5576L75.6897 21.1208L70.0288 21.0346L64.3678 20.9771V33.7357C64.3678 46.2932 64.2529 48.0173 63.477 46.0633C63.3046 45.6323 62.9311 44.7415 62.6437 44.1093C62.3563 43.4771 61.9253 42.5001 61.6954 41.9541C61.4655 41.4081 61.0058 40.3162 60.6609 39.5116C58.6207 34.9426 58.1609 33.9081 57.7299 32.7587C57.5288 32.2127 57.2127 31.5518 56.9828 31.2932C56.7816 31.0633 56.6092 30.6897 56.6092 30.4886C56.6092 30.2874 56.4368 29.7702 56.2356 29.3679C56.0058 28.9369 55.5747 28.0173 55.2586 27.2989C54.9425 26.5805 54.3966 25.3737 54.023 24.5691C53.3046 22.9886 53.0173 22.2415 52.7586 21.4943C52.615 21.0346 52.1265 20.9771 47.9885 20.9771C44.5402 20.9771 43.3908 21.0633 43.3908 21.3219C43.3908 21.5231 43.046 22.4139 42.615 23.276C42.1839 24.138 41.6667 25.3162 41.4368 25.8622C41.2069 26.4081 40.7759 27.3851 40.5173 28.0173C40.2299 28.6495 39.7701 29.684 39.5115 30.3162C39.2242 30.9484 38.7069 32.1265 38.3333 32.9024C37.9885 33.707 37.4713 34.8564 37.1839 35.4886C36.6954 36.6668 36.092 38.0173 35.115 40.23C34.7989 40.9484 34.2242 42.184 33.8793 42.9599C33.5345 43.7645 33.1322 44.6553 32.9598 44.9426C32.3563 46.1495 32.1839 47.2415 32.5575 47.4714C32.7299 47.5863 34.3678 47.7012 36.1494 47.7012C38.9655 47.7012 39.3966 47.6438 39.569 47.2127C39.6552 46.9254 39.9713 46.1783 40.2586 45.5173C40.5747 44.8851 40.8046 44.1955 40.8046 43.9943C40.8046 43.8219 41.0058 43.3334 41.2644 42.9599L41.7242 42.2415H54.2529L54.8851 43.6208C55.2299 44.3679 55.6322 45.2012 55.7759 45.4599C55.9196 45.7472 56.0345 46.1495 56.0345 46.3794C56.0345 46.6093 56.3219 47.0116 56.6667 47.2415C57.2127 47.615 58.4196 47.7012 64.1379 47.7012H70.977L71.0345 37.7874C71.092 31.7817 71.2356 27.8449 71.4081 27.7874C71.5517 27.7587 71.7529 28.161 71.8678 28.6783C71.9828 29.2242 72.2127 29.7989 72.3851 29.9714C72.5575 30.1438 72.7012 30.5173 72.7012 30.8047C72.7012 31.1208 73.0747 32.184 73.5632 33.1897C74.023 34.1955 74.4253 35.1438 74.4253 35.2874C74.4253 35.4599 74.6265 35.9484 74.8563 36.3794C75.0862 36.8392 75.2874 37.4426 75.2874 37.73C75.2874 37.9886 75.546 38.707 75.8621 39.2817C76.1782 39.8851 76.4368 40.5748 76.4368 40.8622C76.4368 41.1208 76.5805 41.4369 76.7242 41.5231C76.8966 41.6093 77.0115 41.9541 77.0115 42.2702C77.0115 42.5863 77.1552 43.1323 77.3563 43.4771C77.5575 43.8219 77.9598 44.8851 78.3046 45.8334L78.8793 47.5576L82.0402 47.6438L85.2012 47.7587L85.7184 46.5805C85.977 45.9196 86.2069 45.23 86.2069 45.0288C86.2069 44.8564 86.4081 44.4254 86.6379 44.138C86.8678 43.8219 87.069 43.276 87.069 42.9311C87.069 42.5576 87.2127 42.184 87.3563 42.0978C87.5288 42.0116 87.6437 41.6955 87.6437 41.4369C87.6437 41.1495 87.8736 40.4886 88.1609 39.9426C88.4483 39.3966 88.9368 38.2185 89.2242 37.3564C89.4828 36.4943 89.8276 35.5748 89.9425 35.3449C90.0575 35.0863 90.2586 34.4828 90.3448 33.9656C90.4598 33.4771 90.6897 32.9886 90.8334 32.9024C90.977 32.7874 91.092 32.5001 91.092 32.2415C91.092 31.9541 91.3219 31.2932 91.6379 30.7472C91.9253 30.2012 92.2414 29.253 92.3563 28.6783C92.4713 28.0748 92.6724 27.5288 92.8161 27.4426C92.9885 27.3277 93.1035 30.9196 93.1035 37.184C93.1035 46.6955 93.1322 47.1265 93.6494 47.4139C93.9655 47.5576 95.5173 47.7012 97.0977 47.7012H100V58.1035L96.4081 61.753C94.4253 63.7645 92.8161 65.5461 92.8161 65.6897C92.8161 65.8334 94.4253 67.6438 96.4081 69.684L99.9713 73.4196V78.9656L99.9425 84.4828H86.3506L84.8276 82.615C83.9943 81.5805 83.1897 80.7472 83.0173 80.7472C82.8736 80.7472 82.7586 80.5748 82.7586 80.3737C82.7586 80.1725 82.3563 79.6553 81.8966 79.253L81.0058 78.4771L80.0862 79.4828C79.569 80.0576 78.6782 80.9771 78.1035 81.5805C77.5 82.1553 77.0115 82.7874 77.0115 82.9599C77.0115 83.1323 76.6379 83.5633 76.1782 83.8794C75.3448 84.4828 75.0862 84.4828 56.1207 84.4828C45.546 84.4828 36.7816 84.3966 36.6954 84.2817ZM69.6839 78.7357H72.9311L74.4828 77.184C75.3161 76.3507 77.1265 74.4828 78.5058 73.0461L80.977 70.4311L82.9598 72.4426C84.023 73.5346 85.8621 75.4024 87.0402 76.5805L89.1667 78.707L93.4483 78.7932C96.6379 78.8507 97.615 78.7932 97.2701 78.5633C97.0402 78.3909 96.8391 78.1323 96.8391 77.9886C96.8391 77.8449 95.977 76.8679 94.9138 75.8047C93.8219 74.7415 91.9828 72.8162 90.8046 71.5231C89.6265 70.2587 87.9023 68.4484 87.0115 67.5288C86.092 66.6093 85.3448 65.7472 85.3448 65.6323C85.3448 65.5173 86.4081 64.3679 87.7299 63.0748C89.023 61.7817 91.1207 59.5978 92.3851 58.2185C93.6494 56.8679 95.3448 55.0288 96.1782 54.1668L97.6724 52.615L93.592 52.5288L89.5115 52.4426L87.2989 54.6265C86.0632 55.8047 85.0575 56.8966 85.0575 57.0691C85.0575 57.2702 81.3506 60.9196 81.1494 60.9196C81.1207 60.9196 80.2586 60.0863 79.2529 59.0518C78.2759 58.0173 76.5805 56.2932 75.546 55.23C74.5115 54.1668 73.592 53.1323 73.5345 52.9599C73.3908 52.5863 64.6552 52.2989 64.6552 52.6725C64.6552 52.7874 65.6035 53.8794 66.7816 55.115C67.9598 56.3219 69.7989 58.276 70.8908 59.4541C71.954 60.6035 73.7069 62.4426 74.7989 63.5058C75.8621 64.5691 76.7242 65.6035 76.7242 65.776C76.7242 65.9484 75.7184 67.0978 74.5115 68.3622C73.2759 69.5978 71.1207 71.8679 69.6839 73.4196C68.2759 74.9426 66.5517 76.753 65.8908 77.4714C65.2012 78.161 64.6552 78.8219 64.6552 78.9081C64.6552 79.0231 65.0575 79.0231 65.546 78.9081C66.0345 78.8219 67.9023 78.7357 69.6839 78.7357ZM64.1954 78.276C64.2816 78.0173 64.3678 76.8104 64.3678 75.5748V73.3047H48.7069V68.6495L56.4081 68.6783L64.0805 68.707V62.9599H56.4081L48.7069 62.9886V58.3047L56.2356 58.3334C65 58.3622 64.3678 58.6208 64.3678 54.9139V52.5863L53.2759 52.5288C47.1839 52.4714 42.1265 52.5001 42.069 52.5576C41.8678 52.7587 41.954 78.3334 42.1552 78.5346C42.2414 78.6495 47.2127 78.7357 53.1897 78.7357C62.7874 78.7357 64.0517 78.6783 64.1954 78.276Z"
            fill="#287DD3" />
        <path
            d="M43.9081 36.8968C43.7932 36.8106 43.9081 36.4083 44.138 35.9773C44.3679 35.5463 44.5403 35.029 44.5403 34.8279C44.5403 34.598 44.7127 34.0807 44.9426 33.6784C45.1725 33.2474 45.4599 32.644 45.5748 32.3279C46.6955 29.2819 47.8162 27.0118 48.1323 27.098C48.2759 27.1555 48.4771 27.6152 48.592 28.1037C48.6782 28.5922 48.9943 29.3394 49.253 29.7129C49.5116 30.1152 49.7127 30.6037 49.7127 30.8049C49.7127 31.006 50.0576 31.8968 50.4599 32.7589C50.8909 33.621 51.3507 34.6555 51.4943 35.0578C51.6667 35.4601 51.8966 35.9773 52.0403 36.2359C52.1553 36.4945 52.184 36.8106 52.0978 36.8968C51.8679 37.1267 44.1093 37.1267 43.9081 36.8968ZM70.9771 27.0118C70.9771 26.8106 71.0633 26.7244 71.1782 26.8106C71.2644 26.9256 71.2644 27.098 71.1782 27.2129C71.0633 27.2991 70.9771 27.2129 70.9771 27.0118Z"
            fill="#287DD3" />
        <path
            d="M36.6092 84.2242C36.5517 84.1668 36.4942 76.9541 36.4942 68.1897V52.2989H30.1437C24.1954 52.2989 23.7931 52.2702 23.9942 51.8104C24.1092 51.5231 24.4253 50.7185 24.6839 50.0001C24.9425 49.2817 25.2299 48.6495 25.3161 48.5633C25.6322 48.3047 29.3103 39.7702 29.3103 39.2817C29.3103 39.0518 29.3965 38.7932 29.5402 38.7357C29.7988 38.6208 31.6092 34.7127 31.6092 34.2242C31.6092 34.0518 31.7529 33.7357 31.9253 33.5346C32.0977 33.3334 33.9368 29.3104 36.0345 24.5691L39.8276 15.9484L47.7011 15.8909L55.6034 15.8047L57.3276 19.684C58.2759 21.8104 59.1379 23.5633 59.2529 23.5633C59.3965 23.5633 59.4828 21.8104 59.4828 19.684V15.8047L69.1954 15.8622L78.8793 15.9484L80.5172 20.2587C81.9828 24.1668 82.1552 24.5116 82.4138 23.8219C82.5862 23.3909 83.1034 21.9828 83.5632 20.661C84.0517 19.3392 84.6552 17.7012 84.9138 17.0116L85.4023 15.8047L92.6437 15.8622L99.8563 15.9484L99.9425 18.4771L100.029 20.9771H94.4253C89.3678 20.9771 88.7931 21.0346 88.5345 21.4943C88.0172 22.4426 84.4828 32.0116 84.4828 32.4426C84.4828 32.7012 84.2816 33.161 84.0517 33.4484C83.8218 33.7357 83.3621 34.8277 83.046 35.8047C82.7011 36.8104 82.3276 37.6438 82.2126 37.6438C82.0977 37.6438 80.9195 34.8277 79.5977 31.4081C78.2759 27.9599 76.8391 24.253 76.408 23.1323L75.6034 21.1208L70 21.0346L64.3678 20.9771V33.7645C64.3678 40.8047 64.2529 46.5518 64.1092 46.5518C63.8506 46.5518 63.8506 46.5231 58.5632 34.4828C56.6379 30.1438 55 26.5231 54.9138 26.4369C54.8276 26.3507 54.569 25.8047 54.3391 25.1725C54.1379 24.5691 53.6494 23.3622 53.2759 22.5288L52.5862 20.9771H43.5057L40.5747 27.5863C38.9655 31.2357 37.6437 34.3679 37.6437 34.5691C37.6437 34.7702 37.5287 35.0576 37.385 35.23C37.069 35.5461 31.8965 47.0691 31.8965 47.4426C31.8965 47.615 33.5345 47.6725 35.6609 47.6438L39.454 47.5576L40.4885 45.115L41.523 42.6725H54.4253L55.431 45.1725L56.4655 47.7012H70.977L71.0345 37.7874C71.0919 31.4369 71.2356 27.8737 71.408 27.8449C71.5805 27.8449 71.7241 28.0748 71.7816 28.3622C71.8965 28.9943 74.0805 34.9139 74.569 35.9196C74.7701 36.3219 75.2873 37.73 75.7184 39.0806C76.1782 40.4311 77.069 42.8737 77.7299 44.5403L78.908 47.5576H85.3736L86.4368 44.8277C87.0402 43.3334 88.7356 38.8219 90.2299 34.7989L92.9598 27.5288L93.046 37.615L93.1034 47.7012H100V58.1035L96.2644 61.8966L92.5575 65.6897L96.2644 69.5403L99.9713 73.4196L99.9138 78.7357L99.8563 84.0518L93.046 84.1955L86.2644 84.3392L84.7701 82.5576C83.9655 81.5518 83.1897 80.7472 83.0172 80.7472C82.8736 80.7472 82.7586 80.5748 82.7586 80.3737C82.7586 80.1725 82.3563 79.6265 81.8965 79.1668L81.0057 78.3047L79.1379 80.3162C78.1322 81.4369 77.0977 82.6725 76.8678 83.0748C76.6379 83.5058 76.2356 83.9081 75.977 84.0231C75.4598 84.2242 36.8103 84.4254 36.6092 84.2242ZM64.3391 76.1783L64.3965 73.3334L56.6379 73.3622L48.8793 73.4196L48.7931 71.3219C48.7356 70.1725 48.7644 69.1093 48.7931 68.9656C48.8506 68.7932 51.8103 68.6783 56.4942 68.6783H64.0805V62.9599L56.4942 63.0173L48.8793 63.0748L48.7931 60.9196C48.7356 59.7415 48.7356 58.6783 48.7931 58.5633C48.8506 58.4196 52.3563 58.3334 56.6379 58.3334H64.3678V52.5863L53.2759 52.5288C47.1839 52.4714 42.1264 52.5001 42.069 52.5576C42.0115 52.615 41.954 58.6208 41.954 65.8622V79.0231H64.2529L64.3391 76.1783ZM76.4368 75.23C78.3908 73.1323 80.2011 71.1783 80.4598 70.8909C80.9195 70.4024 81.0345 70.4599 82.931 72.4714C84.023 73.6208 85.8908 75.5748 87.0977 76.8104L89.2529 79.0518L93.5632 78.9656L97.8448 78.8794L95.4023 76.2932C94.0517 74.8852 92.0402 72.73 90.9483 71.5518C89.8563 70.3737 88.1897 68.6495 87.2701 67.73C86.3506 66.8104 85.6322 65.8622 85.6897 65.661C85.7471 65.4311 87.6724 63.276 89.9713 60.8622C92.2701 58.4484 94.9425 55.6323 95.9195 54.5978L97.6437 52.73L93.592 52.5863C91.3506 52.5001 89.3965 52.5001 89.2241 52.5576C89.0805 52.615 88.046 53.6783 86.9253 54.8851C84.1954 57.9311 81.2644 60.9196 81.0057 60.9196C80.8908 60.9196 80.7471 60.8047 80.6896 60.661C80.6034 60.4024 78.8218 58.4771 75.0862 54.5403L73.2759 52.615L68.9655 52.5288C66.5805 52.4714 64.6552 52.5288 64.6552 52.6438C64.6552 52.73 67.385 55.7472 70.6896 59.3104L76.7529 65.8047L76.0919 66.6668C75.7471 67.1265 75.3736 67.5288 75.2873 67.5288C75.0575 67.5288 64.8563 78.3909 64.7126 78.7645C64.6552 78.9081 66.4368 79.0231 68.7644 79.0231H72.9023L76.4368 75.23Z"
            fill="#1A85DF" />
        <path
            d="M43.8217 36.839C43.793 36.7815 43.9367 36.3218 44.1953 35.8333C44.4539 35.316 45.4022 33.1321 46.293 30.9195C47.1838 28.7356 47.9884 27.0689 48.0746 27.1838C48.1608 27.3275 49.0229 29.3965 49.9999 31.7528C50.9769 34.1379 51.8965 36.2356 52.0689 36.4367C52.2413 36.6091 52.3275 36.7815 52.27 36.7815C50.9194 36.8677 43.8792 36.8965 43.8217 36.839Z"
            fill="#1A85DF" />
        <path
            d="M36.6954 83.9943C36.5805 83.9081 36.4943 76.7242 36.4943 68.0461V52.2989H30.1437C25.1724 52.2989 23.8219 52.2127 23.9368 51.9541C24.023 51.753 25.3449 48.7357 26.8678 45.2587C28.4196 41.7817 31.6667 34.4254 34.1092 28.8794C36.5518 23.3622 38.8506 18.1323 39.2242 17.2989L39.9138 15.8047H47.7586L55.6035 15.8334L57.3276 19.684C58.2759 21.8104 59.138 23.5633 59.2529 23.5633C59.3966 23.5633 59.4828 21.8104 59.4828 19.684V15.8047L69.1954 15.8622L78.8793 15.9484L80.5173 20.2587C81.9828 24.1668 82.1552 24.5116 82.4138 23.8219C82.5862 23.3909 83.1035 21.9828 83.5632 20.661C84.0518 19.3392 84.6552 17.7012 84.9138 17.0116L85.4023 15.8047L92.6437 15.8622L99.8563 15.9484L99.9426 18.4771L100.029 20.9771H94.4253C89.3678 20.9771 88.7931 21.0346 88.5345 21.4943C88.2759 22.0116 82.9598 35.9196 82.6437 37.0116C82.5288 37.3564 82.3276 37.6438 82.2127 37.6438C82.0977 37.6438 80.9196 34.8277 79.5977 31.4081C78.2759 27.9599 76.8391 24.253 76.4081 23.1323L75.6035 21.1208L70 21.0346L64.3678 20.9771V33.7645C64.3678 40.8047 64.2529 46.5518 64.1092 46.5518C63.9943 46.5518 62.0977 42.5001 59.9138 37.5863C57.7299 32.6438 55.2012 26.9254 54.2816 24.8564L52.6437 21.1208L48.0747 21.0346L43.5058 20.9771L37.7012 34.1093C34.5115 41.3507 31.8966 47.3851 31.8966 47.5001C31.8966 47.615 33.592 47.6725 35.6609 47.6438L39.4541 47.5576L40.4885 45.115L41.523 42.6725H54.4253L55.4311 45.1725L56.4655 47.7012H70.977V37.7874C70.977 32.1265 71.092 27.8737 71.2357 27.8737C71.3793 27.8737 72.8449 31.5231 74.5115 36.0058C76.2069 40.4599 77.8736 44.8851 78.2472 45.8334L78.9081 47.5576H85.3736L86.4368 44.8277C87.0403 43.3334 88.7357 38.8219 90.2299 34.7989L92.9598 27.5288L93.046 37.615L93.1035 47.7012H100V58.1035L96.2644 61.8966L92.5575 65.6897L96.2644 69.5403L99.9713 73.4196L99.9138 78.7357L99.8563 84.0518L93.046 84.138L86.2357 84.1955L83.7644 81.3219C82.4138 79.7415 81.1782 78.4484 81.0632 78.4484C80.9483 78.4484 79.7127 79.7415 78.3046 81.3219L75.7759 84.1955H56.3219C45.6322 84.1955 36.7816 84.1093 36.6954 83.9943ZM76.8678 74.7989C79.023 72.4426 80.8908 70.5173 81.0058 70.5173C81.092 70.4886 82.9598 72.3852 85.1437 74.7415L89.138 79.0231H93.4196C96.7816 79.0231 97.7012 78.9369 97.5288 78.6783C97.4138 78.4771 96.3219 77.2702 95.115 76.0058C93.9081 74.7415 92.0977 72.8162 91.0632 71.6955C90.0288 70.6035 88.4196 68.8794 87.5 67.8737C86.5518 66.8679 85.7184 65.9196 85.6897 65.776C85.6035 65.5461 87.7012 63.2472 96.1782 54.3104L97.6724 52.73L93.592 52.5863C91.3506 52.5001 89.3966 52.5001 89.2242 52.5576C89.0805 52.615 87.2701 54.4829 85.2012 56.753C81.6667 60.6323 80.9196 61.2932 80.6897 60.661C80.6035 60.4024 78.8219 58.4771 75.0862 54.5403L73.2759 52.615L68.9655 52.5288C66.5805 52.4714 64.6552 52.5288 64.6552 52.6438C64.6552 52.73 67.3851 55.7472 70.7184 59.3104L76.7529 65.8047L70.6322 72.2989L64.5115 78.7932L64.4253 76.0346L64.3391 73.276H48.8506V68.6783H64.0805V62.9311H48.8506V58.3334H64.3678V52.5863L53.2759 52.5288C47.1839 52.4714 42.1265 52.5001 42.069 52.5576C42.0115 52.615 41.9541 58.6208 41.9541 65.8622V79.0231H72.9311L76.8678 74.7989Z"
            fill="#FEFEFE" />
        <path
            d="M43.9656 36.638C43.9656 36.5805 44.7989 34.4828 45.8334 32.0403C46.8679 29.569 47.7012 27.3851 47.7012 27.2127C47.7012 26.4656 48.3334 27.7012 50.0001 31.7529C50.9771 34.138 51.8391 36.2357 51.9253 36.4368C52.0403 36.6955 51.1495 36.7817 48.0173 36.7817C45.7759 36.7817 43.9656 36.7242 43.9656 36.638Z"
            fill="#FEFEFE" />
    </g>
    <defs>
        <clipPath id="clip0">
            <rect width="100" height="100" fill="white" />
        </clipPath>
    </defs>
</svg>
