<svg width="32" height="6" viewBox="0 0 32 6" fill="none" xmlns="http://www.w3.org/2000/svg">
<path fill-rule="evenodd" clip-rule="evenodd" d="M2.62751 3.7789C2.31094 4.04958 1.90794 4.16795 1.2635 4.16795H0.99609V0.937778H1.2635C1.90794 0.937778 2.29548 1.04818 2.62751 1.33233C2.97025 1.62596 3.17621 2.07893 3.17621 2.54746C3.17621 3.01826 2.97025 3.48735 2.62751 3.7789ZM1.46312 0.110352H0V4.99572H1.4542C2.22809 4.99572 2.78669 4.81951 3.27632 4.43065C3.85792 3.97009 4.20304 3.2747 4.20304 2.55427C4.20304 1.11209 3.0771 0.110352 1.46312 0.110352Z" fill="#201D1C"/>
<path fill-rule="evenodd" clip-rule="evenodd" d="M4.66235 0.110352H5.65449V4.99572H4.66235V0.110352Z" fill="#201D1C"/>
<path fill-rule="evenodd" clip-rule="evenodd" d="M8.09092 1.98282C7.49207 1.77265 7.31704 1.63266 7.31704 1.36862C7.31704 1.06171 7.62984 0.82896 8.06 0.82896C8.35813 0.82896 8.60374 0.943151 8.8654 1.22218L9.38337 0.571935C8.95539 0.211531 8.44317 0.0290527 7.88476 0.0290527C6.98124 0.0290527 6.29259 0.630548 6.29259 1.4259C6.29259 2.10119 6.61273 2.44376 7.54698 2.76907C7.93749 2.89901 8.13592 2.98778 8.23642 3.04791C8.43544 3.17102 8.53456 3.34743 8.53456 3.55134C8.53456 3.94873 8.2055 4.24085 7.76067 4.24085C7.2871 4.24085 6.90393 4.01398 6.67458 3.58795L6.03271 4.18281C6.49161 4.82622 7.0417 5.11379 7.79952 5.11379C8.83309 5.11379 9.56138 4.45159 9.56138 3.50847C9.56138 2.73133 9.2236 2.37908 8.09092 1.98282Z" fill="#201D1C"/>
<path fill-rule="evenodd" clip-rule="evenodd" d="M9.87427 2.55432C9.87427 3.991 11.0527 5.10427 12.5698 5.10427C12.9976 5.10427 13.3643 5.02347 13.8158 4.81955V3.6968C13.4168 4.08053 13.0665 4.2319 12.6134 4.2319C11.6109 4.2319 10.9009 3.53784 10.9009 2.54749C10.9009 1.61177 11.6339 0.870471 12.5698 0.870471C13.042 0.870471 13.4027 1.03057 13.8158 1.41999V0.298566C13.3795 0.0874455 13.0215 0 12.5902 0C11.0819 0 9.87427 1.13508 9.87427 2.55432Z" fill="#201D1C"/>
<path fill-rule="evenodd" clip-rule="evenodd" d="M21.882 3.39022L20.5206 0.110352H19.4351L21.5993 5.11902H22.1331L24.3394 0.110352H23.2625L21.882 3.39022Z" fill="#201D1C"/>
<path fill-rule="evenodd" clip-rule="evenodd" d="M24.7913 4.99572H27.6146V4.16793H25.7874V2.84923H27.5452V2.02163H25.7874V0.937764H27.6146V0.110352H24.7913V4.99572Z" fill="#201D1C"/>
<path fill-rule="evenodd" clip-rule="evenodd" d="M29.5593 2.35686H29.2702V0.879198H29.5755C30.1976 0.879198 30.5308 1.12902 30.5308 1.60494C30.5308 2.09395 30.1976 2.35686 29.5593 2.35686ZM31.556 1.55178C31.556 0.636921 30.9003 0.110352 29.7508 0.110352H28.272V4.99572H29.2703V3.03152H29.3997L30.7752 4.99572H32.0001L30.3938 2.93668C31.1445 2.78986 31.556 2.29933 31.556 1.55178Z" fill="#201D1C"/>
<path fill-rule="evenodd" clip-rule="evenodd" d="M19.5756 2.56572C19.5756 3.97224 18.3846 5.11226 16.9141 5.11226C15.4441 5.11226 14.2529 3.97224 14.2529 2.56572C14.2529 1.159 15.4441 0.0187988 16.9141 0.0187988C18.3846 0.0187988 19.5756 1.159 19.5756 2.56572Z" fill="url(#paint0_linear_985_8872)"/>
<path fill-rule="evenodd" clip-rule="evenodd" d="M19.5756 2.56572C19.5756 3.97224 18.3846 5.11226 16.9141 5.11226C15.4441 5.11226 14.2529 3.97224 14.2529 2.56572C14.2529 1.159 15.4441 0.0187988 16.9141 0.0187988C18.3846 0.0187988 19.5756 1.159 19.5756 2.56572Z" fill="url(#paint1_radial_985_8872)"/>
<defs>
<linearGradient id="paint0_linear_985_8872" x1="15.2814" y1="0.500061" x2="18.5939" y2="4.50006" gradientUnits="userSpaceOnUse">
<stop stop-color="#E6772F"/>
<stop offset="1" stop-color="#EA9D2C"/>
</linearGradient>
<radialGradient id="paint1_radial_985_8872" cx="0" cy="0" r="1" gradientUnits="userSpaceOnUse" gradientTransform="translate(17.5001 3.62506) rotate(-128.1) scale(3.49456 3.65179)">
<stop stop-color="#EA9D2C" stop-opacity="0"/>
<stop offset="0.328125" stop-color="#DF7624" stop-opacity="0"/>
<stop offset="0.760188" stop-color="#BF4B23" stop-opacity="0.75"/>
<stop offset="1" stop-color="#7D3017"/>
</radialGradient>
</defs>
</svg>
