<svg width="24" height="14" viewBox="0 0 24 14" fill="none" xmlns="http://www.w3.org/2000/svg">
    <path
        d="M24 7C24 10.8662 20.8662 14 17 14C13.1338 14 10 10.8662 10 7C10 3.13385 13.1338 0 17 0C20.8662 0 24 3.13385 24 7Z"
        fill="#F44336" />
    <path
        d="M14 7H10.0332C10.0332 6.63169 10.0687 6.27415 10.1236 5.92308H13.9074C13.8542 5.55797 13.7714 5.1978 13.6597 4.84616H10.3438C10.4645 4.47529 10.6158 4.11508 10.7961 3.76923H13.2047C13.0071 3.38692 12.7739 3.02885 12.5085 2.69231H11.4719C11.676 2.4318 11.7617 2.22961 12 2C11.8798 1.88146 11.6011 1.72399 11.4719 1.61539C10.2163 0.57005 8.63378 -0.00161364 7 3.42123e-06C3.13385 3.42123e-06 0 3.13385 0 7C0 10.8662 3.13385 14 7 14C8.06267 14.0009 9.11147 13.7588 10.0662 13.2921C11.0209 12.8255 11.8563 12.1467 12.5085 11.3077H11.4719C11.2075 10.9707 10.9745 10.6102 10.7757 10.2308H13.2047C13.3856 9.88777 13.5375 9.52808 13.6592 9.15385H10.3438C10.2329 8.80194 10.1499 8.44186 10.0955 8.07692H13.9095C13.9645 7.72585 14 7.36831 14 7Z"
        fill="#2196F3" />
</svg>
