<svg width="28" height="9" viewBox="0 0 28 9" fill="none" xmlns="http://www.w3.org/2000/svg">
    <path
        d="M14.4809 2.79727C14.465 4.01618 15.6034 4.69635 16.461 5.10078C17.3422 5.51569 17.6381 5.78179 17.6346 6.15288C17.6281 6.72074 16.9318 6.97138 16.2803 6.98112C15.1435 6.99816 14.4826 6.68412 13.9571 6.4466L13.5476 8.3009C14.0748 8.53598 15.051 8.741 16.0632 8.75C18.4394 8.75 19.994 7.61492 20.0024 5.85503C20.0117 3.62149 16.81 3.49786 16.8318 2.49953C16.8394 2.19681 17.1379 1.87378 17.7919 1.79164C18.1157 1.75015 19.0094 1.71839 20.0226 2.16993L20.4203 0.375855C19.8754 0.183853 19.1751 0 18.3031 0C16.0666 0 14.4936 1.15054 14.4809 2.79727ZM24.2417 0.154533C23.8078 0.154533 23.4421 0.399459 23.2789 0.775314L19.8847 8.61822H22.2591L22.7316 7.35454H25.6331L25.9072 8.61822H28L26.1738 0.154533H24.2417ZM24.5738 2.44089L25.2591 5.6191H23.3824L24.5738 2.44089ZM11.6021 0.154639L9.73044 8.61812H11.9931L13.8638 0.154428H11.6021V0.154639ZM8.25486 0.154428L5.8998 5.91526L4.94714 1.01707C4.83536 0.470269 4.39392 0.154533 3.9037 0.154533H0.0539219L0 0.400306C0.790344 0.566271 1.68831 0.833953 2.23234 1.12037C2.56528 1.29533 2.66022 1.44828 2.76959 1.86404L4.57395 8.61822H6.965L10.6308 0.154533H8.25486"
        fill="url(#paint0_linear_941_3828)" />
    <defs>
        <linearGradient id="paint0_linear_941_3828" x1="12.8727" y1="8.92552" x2="13.1178"
            y2="-0.0613062" gradientUnits="userSpaceOnUse">
            <stop stop-color="#222357" />
            <stop offset="1" stop-color="#254AA5" />
        </linearGradient>
    </defs>
</svg>
