<svg width="100" height="64" viewBox="0 0 100 64" fill="none" xmlns="http://www.w3.org/2000/svg">
    <g clip-path="url(#clip0)">
        <path
            d="M95.0639 0.0191166L70.4399 0.0126953H70.4331C70.4138 0.0126953 70.3956 0.0160749 70.377 0.0160749C66.9942 0.119491 62.7807 2.82926 62.0135 6.17033L50.3686 57.6292C49.601 61.0017 51.6883 63.7456 55.0467 63.7959H80.9157C84.2223 63.6327 87.4365 60.954 88.1904 57.6508L99.8361 6.19162C100.616 2.78532 98.4784 0.0191166 95.0639 0.0191166Z"
            fill="#01798A" />
        <path
            d="M50.369 57.6284L62.014 6.16958C62.7811 2.8285 66.9947 0.118738 70.3774 0.0153223L60.5866 0.00923898L42.947 0.00585938C39.5548 0.0751412 35.2868 2.80383 34.5197 6.16992L22.8713 57.6284C22.1011 61.0009 24.1918 63.7448 27.5478 63.7952H55.0472C51.6888 63.7448 49.6015 61.0009 50.369 57.6284"
            fill="#024381" />
        <path
            d="M22.8711 57.6287L34.5195 6.1698C35.2866 2.80372 39.5547 0.0750272 42.9469 0.00574533L20.3496 0C16.9385 0 12.5649 2.76012 11.7852 6.1698L0.136845 57.6287C0.0661178 57.9426 0.026524 58.2505 0.00317383 58.5513V59.5057C0.231261 61.964 2.11112 63.7542 4.81331 63.7951H27.5476C24.1916 63.7451 22.1009 61.0012 22.8711 57.6287"
            fill="#DD0228" />
        <path
            d="M43.4234 37.5025H43.8512C44.2441 37.5025 44.5084 37.3704 44.6326 37.1098L45.7439 35.4491H48.7195L48.0992 36.5414H51.6671L51.2143 38.2153H46.9686C46.4796 38.95 45.8776 39.2951 45.1541 39.2542H42.9426L43.4234 37.5025V37.5025ZM42.9348 39.901H50.7523L50.2539 41.7193H47.1097L46.6302 43.474H49.6894L49.1913 45.2922H46.1321L45.4214 47.8853C45.2454 48.319 45.4769 48.5136 46.1118 48.4697H48.6048L48.1429 50.1595H43.3561C42.4488 50.1595 42.1375 49.6411 42.4221 48.6018L43.3307 45.2925H41.3754L41.8722 43.4743H43.8278L44.3074 41.7196H42.438L42.9348 39.901V39.901ZM55.4119 35.4362L55.289 36.5008C55.289 36.5008 56.7635 35.3954 58.1026 35.3954H63.0511L61.1587 42.237C61.0017 43.0191 60.3286 43.4081 59.1401 43.4081H53.531L52.2173 48.2122C52.1412 48.4697 52.2484 48.6015 52.5314 48.6015H53.6352L53.2295 50.0929H50.4237C49.3469 50.0929 48.8989 49.7695 49.0765 49.1196L52.7892 35.4362H55.4119V35.4362ZM59.6027 37.3704H55.1855L54.6569 39.2167C54.6569 39.2167 55.3926 38.6864 56.622 38.6675C57.8481 38.6482 59.2474 38.6675 59.2474 38.6675L59.6027 37.3704ZM58.0021 41.653C58.3286 41.6973 58.5117 41.5685 58.5334 41.2637L58.8037 40.2907H54.3801L54.0092 41.653H58.0021ZM55.0187 43.8636H57.5686L57.5208 44.9657H58.1997C58.5428 44.9657 58.7131 44.8559 58.7131 44.6392L58.9141 43.9265H61.0335L60.7506 44.9657C60.511 45.8322 59.8765 46.2844 58.845 46.3287H57.4867L57.4802 48.2122C57.4555 48.514 57.7283 48.6677 58.2911 48.6677H59.5675L59.1557 50.1595H56.0934C55.2349 50.2 54.8139 49.7918 54.8231 48.9253L55.0187 43.8636V43.8636ZM24.1193 26.3215C23.7734 28.014 22.9717 29.3138 21.7281 30.2367C20.4956 31.1442 18.9064 31.5994 16.9603 31.5994C15.1288 31.5994 13.7863 31.1347 12.9295 30.2023C12.3352 29.5399 12.0398 28.6983 12.0398 27.6811C12.0398 27.2603 12.0902 26.8081 12.1907 26.3218L14.2642 16.3374H17.3954L15.3508 26.2082C15.2923 26.4562 15.2639 26.7102 15.2662 26.9649C15.2628 27.4705 15.3887 27.8849 15.6432 28.2083C16.0141 28.6889 16.6161 28.9271 17.4543 28.9271C18.4178 28.9271 19.2117 28.6919 19.8279 28.2174C20.4442 27.7463 20.8465 27.0778 21.0272 26.2079L23.0787 16.3364H26.1944L24.1193 26.3215ZM37.2705 22.3933H39.7229L37.8018 31.3043H35.3541L37.2705 22.3933ZM38.0424 19.1469H40.5168L40.0546 21.3098H37.5805L38.0424 19.1469ZM41.8938 30.6261C41.2522 30.0137 40.9284 29.188 40.9253 28.1393C40.9253 27.9602 40.9361 27.7564 40.9602 27.5334C40.9839 27.3073 41.0136 27.0876 41.0559 26.8835C41.3466 25.436 41.9662 24.2869 42.9202 23.439C43.8728 22.588 45.0221 22.1612 46.3679 22.1612C47.4698 22.1612 48.3439 22.4691 48.9838 23.0841C49.6234 23.7029 49.9439 24.5377 49.9439 25.5992C49.9439 25.7811 49.93 25.9916 49.9063 26.2177C49.8788 26.4406 49.8447 26.6626 49.8041 26.8835C49.5199 28.309 48.9023 29.4456 47.948 30.2776C46.9936 31.1158 45.8475 31.5331 44.5114 31.5331C43.4048 31.5335 42.5338 31.232 41.8938 30.6261V30.6261ZM46.5676 28.8616C47.0001 28.3938 47.3094 27.6841 47.4982 26.7392C47.5266 26.5915 47.5517 26.4377 47.5672 26.2839C47.5828 26.1332 47.5892 25.9919 47.5892 25.8632C47.5892 25.3137 47.4491 24.8868 47.1679 24.5854C46.8884 24.2809 46.4908 24.1301 45.9767 24.1301C45.2975 24.1301 44.7439 24.3684 44.3104 24.8459C43.8732 25.3235 43.5632 26.0453 43.3683 27.0062C43.3415 27.1539 43.3195 27.3015 43.2992 27.4459C43.2837 27.5935 43.2789 27.7314 43.282 27.8572C43.282 28.4036 43.4221 28.8244 43.7033 29.1225C43.9832 29.4209 44.3791 29.5682 44.8996 29.5682C45.5821 29.5679 46.1351 29.3323 46.5676 28.8616Z"
            fill="white" />
        <path
            d="M70.4334 0.012319L60.5864 0.00927734L70.3772 0.0156986C70.3955 0.0156986 70.4141 0.012319 70.4334 0.012319Z"
            fill="#E02F41" />
        <path
            d="M60.5863 0.00946289L43.0821 0C43.0381 0 42.9925 0.00304165 42.9468 0.00608329L60.5863 0.00946289"
            fill="#2E4F7D" />
        <path
            d="M65.8558 37.5774L66.447 35.4989H69.4371L69.3082 36.262C69.3082 36.262 70.8358 35.4989 71.9363 35.4989H75.6334L75.0459 37.5774H74.4642L71.6754 47.3802H72.2571L71.7038 49.3269H71.1221L70.8801 50.1714H67.9844L68.226 49.3269H62.5136L63.0703 47.3802H63.6426L66.4341 37.5774H65.8558V37.5774ZM69.0818 37.5774L68.3211 40.2303C68.3211 40.2303 69.6233 39.7312 70.7454 39.5899C70.9931 38.6639 71.317 37.5774 71.317 37.5774H69.0818ZM67.9688 41.474L67.205 44.2531C67.205 44.2531 68.648 43.5434 69.6382 43.4839C69.9241 42.4099 70.2104 41.4744 70.2104 41.4744H67.9688V41.474ZM68.5282 47.3802L69.1001 45.3643H66.8686L66.293 47.3802H68.5282ZM75.7593 35.3701H78.5705L78.6899 36.406C78.671 36.6696 78.8283 36.7957 79.1616 36.7957H79.6584L79.1559 38.5503H77.0899C76.3014 38.5909 75.8957 38.2898 75.8578 37.6399L75.7593 35.3701ZM74.9356 39.135H84.0405L83.5061 41.0191H80.6073L80.1102 42.7708H83.0066L82.4686 44.6515H79.2432L78.5136 45.754H80.0926L80.4571 47.9612C80.5004 48.1809 80.6953 48.2877 81.029 48.2877H81.519L81.0039 50.1052H79.2682C78.3688 50.1495 77.9041 49.848 77.8659 49.1981L77.4476 47.1822L76.0111 49.3269C75.6713 49.9328 75.1491 50.2154 74.4452 50.1714H71.7948L72.3102 48.3532H73.1373C73.4771 48.3532 73.7596 48.2028 74.0141 47.898L76.2628 44.6515H73.364L73.9014 42.7708H77.0456L77.5454 41.0191H74.3985L74.9356 39.135V39.135ZM27.0038 22.3901H29.2156L28.9625 23.6774L29.2799 23.31C29.997 22.5439 30.8677 22.164 31.8958 22.164C32.8264 22.164 33.4975 22.434 33.9191 22.9771C34.334 23.5202 34.4474 24.2708 34.2508 25.2347L33.0322 31.3072H30.7591L31.8592 25.8032C31.9726 25.2347 31.9411 24.8109 31.7665 24.5375C31.5939 24.2644 31.2636 24.1296 30.7872 24.1296C30.2024 24.1296 29.7104 24.3114 29.3093 24.6727C28.907 25.037 28.6413 25.5426 28.5107 26.1861L27.4968 31.3072H25.219L27.0038 22.3901ZM52.3678 22.3901H54.5817L54.3302 23.6774L54.644 23.31C55.3617 22.5439 56.2355 22.164 57.2605 22.164C58.1911 22.164 58.8632 22.434 59.2818 22.9771C59.6944 23.5202 59.8131 24.2708 59.6121 25.2347L58.3983 31.3072H56.1221L57.223 25.8032C57.336 25.2347 57.3042 24.8109 57.1313 24.5375C56.9519 24.2644 56.628 24.1296 56.1536 24.1296C55.5685 24.1296 55.0785 24.3114 54.6727 24.6727C54.2703 25.037 54.003 25.5426 53.8775 26.1861L52.8585 31.3072H50.5837L52.3678 22.3901ZM63.3096 16.8638H69.736C70.9711 16.8638 71.9272 17.1433 72.584 17.6924C73.2378 18.2487 73.565 19.046 73.565 20.0852V20.1166C73.565 20.3143 73.5522 20.5374 73.5332 20.779C73.5005 21.0244 73.4586 21.2685 73.4077 21.5107C73.1244 22.8859 72.4676 23.9914 71.4524 24.8295C70.4331 25.6646 69.2263 26.0854 67.8368 26.0854H64.3905L63.3248 31.3068H60.3411L63.3096 16.8638V16.8638ZM64.9157 23.574H67.7735C68.5184 23.574 69.1096 23.4009 69.541 23.0589C69.9688 22.7135 70.2517 22.186 70.408 21.4702C70.4331 21.338 70.449 21.2187 70.4679 21.1089C70.4774 21.0055 70.4899 20.9014 70.4899 20.8013C70.4899 20.2893 70.3079 19.9189 69.9427 19.6864C69.5783 19.4505 69.006 19.338 68.2138 19.338H65.7867L64.9157 23.574ZM86.9207 33.0311C85.9772 35.0342 85.0784 36.2019 84.5505 36.745C84.0219 37.2823 82.9748 38.5318 80.4534 38.4375L80.6709 36.9089C82.7928 36.2556 83.94 33.3133 84.5945 32.0105L83.8144 22.4151L85.4557 22.3931H86.8327L86.9809 28.4122L89.5616 22.3931H92.1748L86.9207 33.0311V33.0311ZM79.6144 23.1184L78.5765 23.8312C77.4919 22.9836 76.5018 22.459 74.5904 23.3445C71.9871 24.55 69.8114 33.7973 76.9799 30.7516L77.3884 31.2352L80.2087 31.3075L82.0608 22.9051L79.6144 23.1184ZM78.0104 27.712C77.5576 29.0466 76.5457 29.9286 75.7532 29.6775C74.961 29.4325 74.6777 28.1452 75.1373 26.8076C75.5901 25.4699 76.6087 24.5909 77.3945 24.842C78.1867 25.087 78.4726 26.3743 78.0104 27.712Z"
            fill="white" />
    </g>
    <defs>
        <clipPath id="clip0">
            <rect width="100" height="63.7954" fill="white" />
        </clipPath>
    </defs>
</svg>
