<svg width="28" height="9" viewBox="0 0 28 9" fill="none" xmlns="http://www.w3.org/2000/svg">
    <path fill-rule="evenodd" clip-rule="evenodd"
        d="M2.58925 0.0013654C2.8394 -0.000202346 3.58283 -0.0703479 3.89773 1.04305C4.10985 1.79305 4.44774 3.02159 4.91142 4.72866H5.10025C5.5975 2.92895 5.93908 1.70041 6.125 1.04305C6.44318 -0.0819459 7.23864 0.00138744 7.55682 0.00138744L10.0117 0.00139065V8.00137H7.50962V3.28685H7.34184L5.94707 8.00137H4.0646L2.66983 3.28336H2.50205V8.00137H0V0.00139065L2.58925 0.0013654ZM13.6046 0.00139065V4.71942H13.8042L15.5008 0.839818C15.8301 0.0677661 16.532 0.00139065 16.532 0.00139065H18.9533V8.00139H16.399V3.28336H16.1994L14.536 7.16296C14.2067 7.93152 13.4715 8.00139 13.4715 8.00139H11.0503V0.00139065H13.6046ZM27.7821 3.80304C27.4258 4.86079 26.3069 5.61831 25.0681 5.61831H22.3894V8.00139H19.9604V3.80304H27.7821Z"
        fill="#0F754E" />
    <path fill-rule="evenodd" clip-rule="evenodd"
        d="M25.1853 0.00195312H19.8331C19.9605 1.78302 21.4246 3.30774 22.9402 3.30774H27.951C28.2401 1.82746 27.2447 0.00195312 25.1853 0.00195312Z"
        fill="url(#paint0_linear_941_2580)" />
    <defs>
        <linearGradient id="paint0_linear_941_2580" x1="28.0001" y1="2.08143" x2="19.8331"
            y2="2.08143" gradientUnits="userSpaceOnUse">
            <stop stop-color="#1F5CD7" />
            <stop offset="1" stop-color="#02AEFF" />
        </linearGradient>
    </defs>
</svg>
