<svg width="130" height="100" viewBox="0 0 130 100" fill="none" xmlns="http://www.w3.org/2000/svg">
    <g clip-path="url(#clip0)">
        <path
            d="M127.865 64.5989V63.0518H127.462L126.996 64.1137L126.532 63.0518H126.126V64.5982H126.413V63.4324L126.848 64.4389H127.145L127.581 63.4298V64.5989H127.865ZM125.307 64.5989V63.3156H125.825V63.055H124.506V63.3156H125.023V64.5989H125.307Z"
            fill="#0099DF" />
        <path d="M82.0284 71.2508H47.1394V8.54883H82.0284V71.2508Z" fill="#6C6BBD" />
        <path
            d="M49.3742 39.8949C49.3742 27.1755 55.329 15.8459 64.6032 8.54456C57.5835 3.00916 48.901 0.00489293 39.9613 0.0181098C17.94 0.0181098 0.090332 17.8717 0.090332 39.8955C0.090332 61.9194 17.9407 79.7717 39.9613 79.7717C48.9011 79.7852 57.5839 76.7812 64.6039 71.2459C55.3297 63.9446 49.3742 52.6142 49.3742 39.8949Z"
            fill="#EB001B" />
        <path
            d="M129.082 39.8949C129.082 61.9188 111.232 79.7723 89.211 79.7723C80.2704 79.7853 71.5869 76.7811 64.5658 71.2458C73.842 63.9446 79.7974 52.6142 79.7974 39.8949C79.7974 27.1755 73.842 15.8459 64.5652 8.54456C71.5863 3.00932 80.2697 0.00512452 89.2104 0.0181083C111.232 0.0181083 129.082 17.8717 129.082 39.8955"
            fill="#0099DF" />
        <path
            d="M93.7916 88.957C94.2561 88.957 94.9226 89.0461 95.4323 89.2461L94.7226 91.4164C94.2355 91.2164 93.7484 91.1506 93.282 91.1506C91.7762 91.1506 91.0232 92.1241 91.0232 93.8732V99.8106H88.7187V89.2235H91.0007V90.5086C91.5987 89.5783 92.4632 88.957 93.7916 88.957ZM85.2781 91.328H81.5136V96.1119C81.5136 97.1738 81.8884 97.8841 83.0426 97.8841C83.6407 97.8841 84.3936 97.6841 85.0781 97.2854L85.7426 99.2557C85.0123 99.7654 83.8613 100.077 82.8652 100.077C80.1394 100.077 79.1884 98.6138 79.1884 96.1545V91.328H77.0387V89.2235H79.1884V86.0112H81.5136V89.2241H85.2781V91.328ZM55.7961 93.5867C56.0413 92.0577 56.9703 91.0158 58.6103 91.0158C60.0929 91.0158 61.0465 91.9467 61.2897 93.5867H55.7961ZM63.6832 94.517C63.66 91.2164 61.622 88.957 58.6529 88.957C55.5529 88.957 53.382 91.2164 53.382 94.517C53.382 97.8816 55.6413 100.074 58.8103 100.074C60.4052 100.074 61.8652 99.6764 63.151 98.5912L62.02 96.8848C61.1355 97.5945 60.0045 97.9932 58.9426 97.9932C57.4587 97.9932 56.1078 97.3061 55.7755 95.4022H63.6374C63.66 95.1132 63.6826 94.8267 63.6826 94.517H63.6832ZM73.8039 91.9261C73.1626 91.5261 71.8568 91.0164 70.5052 91.0164C69.2426 91.0164 68.4897 91.4822 68.4897 92.2583C68.4897 92.9654 69.2858 93.1661 70.2826 93.2977L71.3678 93.4525C73.6723 93.7867 75.0665 94.7603 75.0665 96.6216C75.0665 98.637 73.2942 100.077 70.2394 100.077C68.5103 100.077 66.9155 99.6332 65.6529 98.7028L66.7381 96.908C67.5136 97.5061 68.6671 98.0157 70.262 98.0157C71.8342 98.0157 72.6755 97.5512 72.6755 96.7306C72.6755 96.1345 72.0774 95.8003 70.8149 95.6248L69.7297 95.4699C67.3594 95.1357 66.0736 94.0732 66.0736 92.3474C66.0736 90.2428 67.8026 88.957 70.4826 88.957C72.1665 88.957 73.6949 89.3351 74.8 90.0654L73.8039 91.9261ZM102.211 91.1454C101.737 91.1454 101.299 91.2293 100.89 91.3938C100.485 91.5616 100.132 91.7938 99.8355 92.0932C99.5387 92.3925 99.3058 92.7525 99.1361 93.1706C98.9665 93.5887 98.8826 94.0506 98.8826 94.5525C98.8826 95.057 98.9665 95.5157 99.1361 95.9345C99.3058 96.3532 99.5387 96.7125 99.8355 97.0119C100.132 97.3112 100.485 97.5441 100.89 97.7112C101.299 97.879 101.737 97.9603 102.211 97.9603C102.685 97.9603 103.126 97.879 103.532 97.7112C103.929 97.552 104.289 97.3141 104.592 97.0119C104.898 96.704 105.138 96.3376 105.299 95.9345C105.469 95.5157 105.553 95.057 105.553 94.5525C105.553 94.0506 105.469 93.5893 105.299 93.1712C105.138 92.7681 104.898 92.4016 104.592 92.0938C104.289 91.7913 103.929 91.5532 103.532 91.3938C103.112 91.2259 102.663 91.1415 102.211 91.1454V91.1454ZM102.211 88.957C103.033 88.957 103.793 89.099 104.493 89.3861C105.17 89.655 105.786 90.0546 106.308 90.5622C106.822 91.0661 107.23 91.6678 107.507 92.3319C107.796 93.0138 107.941 93.7538 107.941 94.5525C107.941 95.3512 107.796 96.0912 107.507 96.7738C107.23 97.4384 106.822 98.0408 106.308 98.5454C105.799 99.0448 105.192 99.4358 104.493 99.7222C103.793 100.006 103.033 100.148 102.211 100.148C101.389 100.148 100.629 100.006 99.9297 99.7222C99.2297 99.4358 98.6291 99.0448 98.122 98.5454C97.6149 98.0461 97.2168 97.4532 96.9278 96.7738C96.6387 96.0912 96.4942 95.3512 96.4942 94.5525C96.4942 93.7538 96.6387 93.0138 96.9278 92.3319C97.2168 91.6525 97.6149 91.0616 98.1213 90.5622C98.6278 90.0628 99.2297 89.6699 99.9297 89.3861C100.629 89.0996 101.39 88.957 102.211 88.957ZM42.3387 94.517C42.3387 92.6564 43.5581 91.1274 45.5516 91.1274C47.4549 91.1274 48.7407 92.5906 48.7407 94.517C48.7407 96.4435 47.4549 97.9041 45.551 97.9041C43.5581 97.9041 42.3387 96.3777 42.3387 94.517ZM50.9103 94.517V89.2235H48.6084V90.5086C47.8761 89.5557 46.7703 88.957 45.2645 88.957C42.2955 88.957 39.971 91.2822 39.971 94.517C39.971 97.7493 42.2955 100.077 45.2645 100.077C46.7703 100.077 47.8761 99.4783 48.6084 98.5254V99.8106H50.9103V94.517ZM37.9329 99.8106V93.1654C37.9329 90.6635 36.3381 88.9803 33.7697 88.957C32.4187 88.9345 31.0213 89.3551 30.0478 90.8409C29.3181 89.6667 28.1639 88.957 26.5471 88.957C25.4187 88.957 24.311 89.2893 23.4465 90.5293V89.2235H21.1445V99.8106H23.469V93.9416C23.469 92.1035 24.4884 91.1274 26.06 91.1274C27.589 91.1274 28.3645 92.1241 28.3645 93.919V99.8106H30.6897V93.9416C30.6897 92.1035 31.7542 91.1274 33.2807 91.1274C34.8549 91.1274 35.6078 92.1241 35.6078 93.919V99.8106H37.9329ZM110.423 99.017V99.2783H110.664C110.717 99.2783 110.763 99.2654 110.793 99.2454C110.826 99.2248 110.844 99.1893 110.844 99.1467C110.844 99.1041 110.826 99.0706 110.793 99.0499C110.754 99.026 110.709 99.0147 110.664 99.0177L110.423 99.017ZM110.666 98.8345C110.79 98.8345 110.887 98.8628 110.956 98.9183C111.024 98.9738 111.057 99.0499 111.057 99.1467C111.057 99.2274 111.031 99.2938 110.975 99.3467C110.911 99.4027 110.83 99.4366 110.745 99.4435L111.065 99.8112H110.816L110.519 99.4454H110.423V99.8106H110.215V98.8345H110.666ZM110.603 100.145C110.717 100.145 110.823 100.125 110.92 100.082C111.069 100.02 111.195 99.9151 111.284 99.7805C111.373 99.6459 111.419 99.4878 111.417 99.3267C111.417 99.2125 111.394 99.1061 111.354 99.0074C111.31 98.908 111.252 98.8196 111.178 98.7461C111.105 98.6725 111.019 98.6138 110.92 98.5738C110.823 98.5306 110.717 98.5099 110.603 98.5099C110.488 98.5099 110.38 98.5306 110.281 98.5738C110.182 98.6128 110.093 98.6713 110.018 98.7458C109.943 98.8203 109.884 98.9093 109.845 99.0074C109.802 99.1061 109.781 99.2125 109.781 99.3267C109.781 99.4409 109.802 99.5474 109.845 99.6461C109.885 99.7474 109.944 99.8332 110.017 99.9074C110.091 99.9816 110.179 100.039 110.281 100.082C110.38 100.125 110.489 100.145 110.603 100.145H110.603ZM110.603 98.2745C110.746 98.2734 110.888 98.3019 111.019 98.3583C111.276 98.4621 111.481 98.6635 111.589 98.9183C111.645 99.0448 111.673 99.1822 111.673 99.3267C111.673 99.4712 111.645 99.608 111.589 99.7345C111.534 99.8609 111.457 99.9732 111.361 100.067C111.262 100.163 111.15 100.239 111.019 100.295C110.887 100.352 110.746 100.38 110.603 100.379C110.461 100.38 110.32 100.353 110.189 100.3C110.057 100.246 109.938 100.167 109.837 100.067C109.741 99.9732 109.665 99.8616 109.609 99.7345C109.554 99.6074 109.525 99.4712 109.525 99.3267C109.525 99.1822 109.554 99.0448 109.609 98.9183C109.662 98.7927 109.74 98.6789 109.837 98.5835C109.934 98.4867 110.048 98.4112 110.179 98.3577C110.311 98.3022 110.45 98.2738 110.603 98.2738"
            fill="#231F20" />
    </g>
    <defs>
        <clipPath id="clip0">
            <rect width="129.032" height="100" fill="white" />
        </clipPath>
    </defs>
</svg>
