<svg width="23" height="14" viewBox="0 0 23 14" fill="none" xmlns="http://www.w3.org/2000/svg">
    <path
        d="M7 14C10.866 14 14 10.866 14 7C14 3.13401 10.866 0 7 0C3.13401 0 0 3.13401 0 7C0 10.866 3.13401 14 7 14Z"
        fill="#EE0005" />
    <path
        d="M16 14C19.866 14 23 10.866 23 7C23 3.13401 19.866 0 16 0C12.134 0 9 3.13401 9 7C9 10.866 12.134 14 16 14Z"
        fill="#F9A000" />
    <path
        d="M9 7C9 9.02598 9.97691 10.8312 11.5 12C13.023 10.8312 14 9.02598 14 7C14 4.97403 13.0231 3.16878 11.5 2C9.97696 3.16888 9 4.97407 9 7Z"
        fill="#FF6300" />
</svg>
