<svg width="100" height="64" viewBox="0 0 100 64" fill="none" xmlns="http://www.w3.org/2000/svg">
    <g clip-path="url(#clip0)">
        <path
            d="M3.38607 62.3851C2.69951 62.3842 2.0413 62.1111 1.55582 61.6257C1.07034 61.1402 0.79723 60.482 0.796387 59.7954V3.38607C0.797124 2.69947 1.0702 2.0412 1.5557 1.5557C2.0412 1.0702 2.69947 0.797124 3.38607 0.796387H96.6144C97.301 0.79723 97.9592 1.07034 98.4447 1.55582C98.9302 2.0413 99.2033 2.69951 99.2041 3.38607V59.7954C99.2033 60.482 98.9302 61.1402 98.4447 61.6257C97.9592 62.1111 97.301 62.3842 96.6144 62.3851H3.38607V62.3851Z"
            fill="white" />
        <path
            d="M96.614 1.59267C97.0895 1.5931 97.5454 1.78217 97.8816 2.1184C98.2178 2.45463 98.4069 2.91053 98.4073 3.38602V59.7953C98.4069 60.2708 98.2178 60.7267 97.8816 61.063C97.5454 61.3992 97.0895 61.5883 96.614 61.5887H3.38602C2.91053 61.5883 2.45463 61.3992 2.1184 61.063C1.78217 60.7267 1.5931 60.2708 1.59267 59.7953V3.38602C1.5931 2.91053 1.78217 2.45463 2.1184 2.1184C2.45463 1.78217 2.91053 1.5931 3.38602 1.59267H96.614ZM96.614 0H3.38602C1.52379 0 0 1.52379 0 3.38602V59.7953C0 61.6576 1.52379 63.1814 3.38602 63.1814H96.614C98.4762 63.1814 100 61.6576 100 59.7953V3.38602C100 1.52379 98.4762 0 96.614 0Z"
            fill="#004A97" />
        <path
            d="M16.7402 45.4044C16.7402 46.5993 17.5943 46.7383 18.354 46.7383C21.7057 46.7383 22.8055 44.2103 22.8055 41.8989C22.8055 38.9979 20.9444 36.9043 17.951 36.9043C17.3135 36.9043 17.0201 36.9497 16.7402 36.9664V45.4044V45.4044ZM15.2196 38.1291C15.2196 36.7339 14.4909 36.8259 13.7937 36.8111V36.4082C14.3982 36.4377 15.0181 36.4377 15.6241 36.4377C16.2751 36.4377 17.1595 36.4082 18.3082 36.4082C22.3249 36.4082 24.5132 39.0902 24.5132 41.8372C24.5132 43.3741 23.6134 47.236 18.1214 47.236C17.3311 47.236 16.6012 47.2053 15.8726 47.2053C15.175 47.2053 14.4913 47.2197 13.7941 47.236V46.8326C14.7239 46.7387 15.175 46.708 15.22 45.6537V38.1291H15.2196ZM26.7159 37.7576C26.3118 37.7576 25.9558 37.3853 25.9558 36.9823C25.9558 36.5937 26.3285 36.2362 26.7159 36.2362C27.1184 36.2362 27.4764 36.5627 27.4764 36.9823C27.4764 37.4016 27.1344 37.7576 26.7159 37.7576ZM25.0567 46.8322H25.3506C25.7846 46.8322 26.0955 46.8322 26.0955 46.319V42.1159C26.0955 41.4343 25.8634 41.3399 25.2885 41.0305V40.7829C26.0175 40.5639 26.8871 40.2712 26.9484 40.2242C27.0575 40.1621 27.1495 40.1458 27.2283 40.1458C27.3044 40.1458 27.3362 40.239 27.3362 40.3644V46.3194C27.3362 46.8326 27.6783 46.8326 28.1131 46.8326H28.3755V47.236C27.8479 47.236 27.304 47.2053 26.7477 47.2053C26.1891 47.2053 25.6305 47.2197 25.0567 47.236V46.8322V46.8322ZM29.8495 42.2091C29.8495 41.6357 29.6783 41.4813 28.9504 41.1858V40.8912C29.6161 40.6742 30.2516 40.4715 30.997 40.1454C31.044 40.1454 31.089 40.1765 31.089 40.3003V41.3088C31.9745 40.6738 32.735 40.1454 33.7758 40.1454C35.0926 40.1454 35.5576 41.1074 35.5576 42.3174V46.3186C35.5576 46.8318 35.8996 46.8318 36.3336 46.8318H36.6136V47.2352C36.0689 47.2352 35.5266 47.2045 34.9687 47.2045C34.4101 47.2045 33.8511 47.2189 33.2924 47.2352V46.8318H33.5724C34.0072 46.8318 34.3157 46.8318 34.3157 46.3186V42.3027C34.3157 41.4171 33.7754 40.9835 32.8903 40.9835C32.3934 40.9835 31.6022 41.3861 31.089 41.7285V46.3182C31.089 46.8314 31.4318 46.8314 31.8662 46.8314H32.1449V47.2348C31.6022 47.2348 31.0591 47.2041 30.4997 47.2041C29.9422 47.2041 29.3832 47.2185 28.8254 47.2348V46.8314H29.1053C29.5393 46.8314 29.8491 46.8314 29.8491 46.3182V42.2091H29.8495ZM40.5395 42.458C40.9265 42.458 40.9719 42.2561 40.9719 42.0693C40.9719 41.2798 40.4913 40.6435 39.6221 40.6435C38.6769 40.6435 38.0251 41.3403 37.8391 42.4584H40.5395V42.458ZM37.7929 42.9549C37.7611 43.0942 37.7611 43.3264 37.7929 43.8543C37.8841 45.3276 38.8326 46.5372 40.0721 46.5372C40.9265 46.5372 41.5943 46.0717 42.1668 45.4988L42.383 45.7158C41.6691 46.6618 40.7856 47.4689 39.5146 47.4689C37.0476 47.4689 36.551 45.0787 36.551 44.0865C36.551 41.0457 38.5984 40.1454 39.683 40.1454C40.9409 40.1454 42.291 40.9366 42.3058 42.581C42.3058 42.6754 42.3058 42.7673 42.291 42.8609L42.1509 42.9545H37.7929V42.9549ZM42.6637 46.8322H43.083C43.5158 46.8322 43.8264 46.8322 43.8264 46.319V41.961C43.8264 41.4813 43.253 41.3865 43.0201 41.2623V41.0305C44.1525 40.5495 44.7732 40.1458 44.915 40.1458C45.0058 40.1458 45.0523 40.1924 45.0523 40.3485V41.7448H45.085C45.4716 41.14 46.1242 40.1462 47.0703 40.1462C47.4577 40.1462 47.9538 40.4094 47.9538 40.9684C47.9538 41.3873 47.6603 41.7612 47.2263 41.7612C46.7438 41.7612 46.7438 41.3869 46.2003 41.3869C45.9367 41.3869 45.0679 41.7448 45.0679 42.6762V46.3194C45.0679 46.8326 45.378 46.8326 45.8124 46.8326H46.6805V47.236C45.8272 47.2197 45.1778 47.2053 44.5104 47.2053C43.8742 47.2053 43.2224 47.2197 42.6641 47.236V46.8322H42.6637ZM48.6355 45.0787C48.8381 46.1024 49.4573 46.9724 50.5917 46.9724C51.5055 46.9724 51.8467 46.4134 51.8467 45.8711C51.8467 44.0395 48.4658 44.6296 48.4658 42.1323C48.4658 41.2623 49.1642 40.1458 50.8708 40.1458C51.3665 40.1458 52.0334 40.2863 52.6378 40.5965L52.7466 42.1776H52.3898C52.2349 41.2009 51.6926 40.6427 50.6988 40.6427C50.0784 40.6427 49.4895 40.9991 49.4895 41.666C49.4895 43.482 53.0874 42.9226 53.0874 45.3582C53.0874 46.3815 52.266 47.4689 50.4193 47.4689C49.7993 47.4689 49.0695 47.2511 48.528 46.9409L48.3563 45.1567L48.6355 45.0787V45.0787ZM67.0949 39.2149H66.7079C66.4129 37.4012 65.1252 36.6718 63.3888 36.6718C61.6026 36.6718 59.0129 37.8651 59.0129 41.5884C59.0129 44.7227 61.2474 46.9724 63.6357 46.9724C65.1702 46.9724 66.4447 45.9172 66.7545 44.2875L67.1113 44.3803L66.7545 46.6459C66.1031 47.0496 64.3496 47.4693 63.3243 47.4693C59.6958 47.4693 57.4003 45.1265 57.4003 41.6361C57.4003 38.4556 60.2393 36.1741 63.2797 36.1741C64.5355 36.1741 65.7452 36.5786 66.9397 36.9979L67.0949 39.2149V39.2149ZM67.6548 46.8322H67.9482C68.3842 46.8322 68.6936 46.8322 68.6936 46.319V37.6807C68.6936 36.6718 68.4615 36.6407 67.871 36.4699V36.2214C68.4913 36.0204 69.1435 35.7417 69.4696 35.5541C69.6381 35.4625 69.7635 35.3833 69.8093 35.3833C69.904 35.3833 69.9347 35.4777 69.9347 35.6019V46.3194C69.9347 46.8326 70.2763 46.8326 70.7103 46.8326H70.9727V47.236C70.4471 47.236 69.904 47.2053 69.345 47.2053C68.7868 47.2053 68.2289 47.2197 67.654 47.236V46.8322H67.6548ZM77.6149 46.3819C77.6149 46.6622 77.7846 46.6769 78.0478 46.6769C78.2349 46.6769 78.4666 46.6622 78.6697 46.6622V46.9891C78.0024 47.0504 76.7298 47.3761 76.4348 47.4697L76.3575 47.4223V46.1657C75.4278 46.9254 74.7131 47.4697 73.6102 47.4697C72.7732 47.4697 71.9048 46.9254 71.9048 45.6242V41.6517C71.9048 41.2475 71.8435 40.8597 70.9759 40.7833V40.4878C71.5345 40.4727 72.7732 40.3799 72.9755 40.3799C73.1479 40.3799 73.1479 40.4878 73.1479 40.8298V44.8314C73.1479 45.2973 73.1479 46.6304 74.4973 46.6304C75.0241 46.6304 75.7221 46.2278 76.3731 45.6859V41.5115C76.3731 41.2017 75.6289 41.0309 75.0715 40.8764V40.5973C76.4662 40.5029 77.3358 40.3795 77.4907 40.3795C77.6158 40.3795 77.6157 40.4874 77.6157 40.6586V46.3819H77.6149ZM80.7012 45.4824C80.7012 46.0717 81.2598 47.0652 82.299 47.0652C83.9586 47.0652 84.6562 45.4363 84.6562 44.0546C84.6562 42.3795 83.3856 40.9839 82.176 40.9839C81.5998 40.9839 81.1196 41.3566 80.7012 41.7138V45.4824V45.4824ZM80.7012 41.2627C81.3215 40.7367 82.1596 40.1458 83.0125 40.1458C84.8122 40.1458 85.898 41.7142 85.898 43.4044C85.898 45.4359 84.4085 47.4693 82.1891 47.4693C81.0424 47.4693 80.4372 47.0958 80.033 46.925L79.5692 47.2818L79.2439 47.1117C79.3824 46.1968 79.4609 45.2969 79.4609 44.3501V37.6807C79.4609 36.6718 79.2271 36.6407 78.6378 36.4699V36.2214C79.259 36.0204 79.91 35.7417 80.2353 35.5541C80.4065 35.4625 80.5303 35.3833 80.5777 35.3833C80.6701 35.3833 80.7012 35.4777 80.7012 35.6019V41.2627ZM13.7766 56.2557H13.8953C14.1987 56.2557 14.5196 56.2143 14.5196 55.7747V51.3526C14.5196 50.9127 14.1987 50.8709 13.8953 50.8709H13.7766V50.6172C14.1055 50.6172 14.6124 50.6511 15.0269 50.6511C15.4485 50.6511 15.9542 50.6172 16.3512 50.6172V50.8709H16.2321C15.9299 50.8709 15.6082 50.9127 15.6082 51.3526V55.7747C15.6082 56.2143 15.9295 56.2557 16.2321 56.2557H16.3512V56.5093C15.9462 56.5093 15.4386 56.4767 15.0181 56.4767C14.6036 56.4767 14.1055 56.5093 13.7766 56.5093V56.2557Z"
            fill="#231F20" />
        <path
            d="M16.3146 56.4731L16.315 56.2935H16.2338C15.9319 56.2935 15.5732 56.2409 15.5708 55.7747V51.3526C15.5728 50.886 15.9315 50.8338 16.2338 50.8338H16.315V50.6538C15.9256 50.6542 15.4362 50.6877 15.0269 50.6877C14.6259 50.6877 14.1406 50.6562 13.8137 50.6538V50.8338H13.8945C14.1955 50.8338 14.5551 50.886 14.5551 51.3526V55.7747C14.5551 56.2409 14.1955 56.2935 13.8945 56.2935H13.8137V56.4731C14.1406 56.4703 14.6172 56.4392 15.0177 56.4392C15.4287 56.4392 15.9164 56.4711 16.3146 56.4731ZM16.3512 56.5455C15.9427 56.5455 15.4374 56.5117 15.0173 56.5117C14.604 56.5117 14.1079 56.5455 13.7763 56.5455H13.7396V56.2194H13.8945C14.2007 56.2119 14.4794 56.1872 14.4822 55.7747V51.3526C14.4794 50.9393 14.2011 50.9126 13.8945 50.9075H13.7396V50.5806H13.7767C14.1079 50.5806 14.614 50.6136 15.0269 50.6136C15.4466 50.6136 15.9522 50.5806 16.3512 50.5806H16.3886V50.9075H16.2338C15.9272 50.9126 15.6469 50.9397 15.6453 51.3526V55.7747C15.6469 56.1872 15.9272 56.2119 16.2338 56.2194H16.389V56.5455H16.3512V56.5455ZM22.1501 54.8458L22.1669 54.829V51.6648C22.1669 50.972 21.6851 50.8708 21.4322 50.8708H21.2463V50.6176C21.6437 50.6176 22.0319 50.6514 22.4281 50.6514C22.7741 50.6514 23.1221 50.6176 23.4665 50.6176V50.8708H23.3411C22.9855 50.8708 22.5885 50.9381 22.5885 51.9431V55.7834C22.5885 56.0793 22.5969 56.3747 22.6383 56.6363H22.3174L17.971 51.7902V55.269C17.971 56.0036 18.1135 56.2561 18.7637 56.2561H18.9075V56.5097C18.5443 56.5097 18.182 56.4767 17.8189 56.4767C17.4398 56.4767 17.0512 56.5097 16.6709 56.5097V56.2561H16.7892C17.3717 56.2561 17.5485 55.8591 17.5485 55.1858V51.6293C17.5485 51.1571 17.1591 50.8708 16.7808 50.8708H16.6713V50.6176C16.9915 50.6176 17.3211 50.6514 17.6413 50.6514C17.8953 50.6514 18.1402 50.6176 18.3934 50.6176L22.1501 54.8458V54.8458Z"
            fill="#231F20" />
        <path
            d="M22.1303 54.8289V54.8257L22.1235 54.8205L22.1303 54.8289V54.8289ZM22.1502 54.8456L22.1768 54.8213L22.1502 54.8456ZM22.3178 56.598H22.5969C22.5591 56.3439 22.5523 56.0636 22.5523 55.7829V51.9426C22.5523 50.9296 22.9772 50.8337 23.3407 50.8329H23.4295V50.6533C23.097 50.6557 22.7637 50.6863 22.4281 50.6863C22.0415 50.6863 21.6656 50.6557 21.2842 50.6533L21.2834 50.8329H21.4327C21.6923 50.8337 22.2035 50.9491 22.2035 51.6642L22.1924 54.8552L22.1757 54.8715L22.147 54.8986L18.3931 50.6533C18.1422 50.6533 17.8981 50.6863 17.6405 50.6863C17.3311 50.6863 17.0142 50.6557 16.708 50.6533L16.7064 50.8329H16.7813C17.177 50.8337 17.5848 51.1359 17.5848 51.63V55.1849C17.5848 55.8605 17.3964 56.2918 16.7896 56.2941L16.708 56.2918V56.4729C17.0735 56.4701 17.4502 56.4391 17.8189 56.4391C18.1709 56.4391 18.5225 56.4701 18.8709 56.4729V56.2941H18.7641C18.1 56.2918 17.9356 56.0023 17.9348 55.2685V51.6953L22.3178 56.598V56.598ZM22.6383 56.6716L22.2907 56.6597L18.0068 51.8852V55.2689C18.0172 56.0027 18.1287 56.2113 18.7641 56.2193H18.9449V56.5454H18.9075C18.5424 56.5454 18.1788 56.5116 17.8189 56.5116C17.441 56.5116 17.0532 56.5454 16.6706 56.5454H16.6335V56.2193H16.7896C17.3475 56.2161 17.5067 55.8578 17.5131 55.1853V51.6304C17.5115 51.1809 17.1428 50.9073 16.7817 50.9073H16.6339V50.5804H16.671C16.9935 50.5804 17.324 50.6135 17.6405 50.6135C17.8922 50.6135 18.1362 50.5804 18.4209 50.5936L22.1303 54.7696V51.665C22.1259 50.9945 21.6783 50.9129 21.4323 50.9077H21.2089V50.5808H21.2463C21.6453 50.5808 22.0335 50.6139 22.4281 50.6139C22.7713 50.6139 23.1173 50.5808 23.4665 50.5808H23.5035V50.9077H23.3407C22.9919 50.9169 22.6347 50.9475 22.6244 51.943V55.7833C22.6244 56.0787 22.6339 56.3734 22.6742 56.6298L22.6817 56.672H22.6383V56.6716ZM24.7311 51.0391C24.0972 51.0391 24.0729 51.1916 23.9459 51.8072H23.6927C23.7257 51.5711 23.7679 51.3346 23.7942 51.0901C23.828 50.8528 23.8448 50.6171 23.8448 50.373H24.0474C24.1151 50.6262 24.3266 50.6171 24.5551 50.6171H28.9087C29.1376 50.6171 29.3483 50.6087 29.3658 50.3555L29.5672 50.3901C29.5346 50.6171 29.5 50.8452 29.4757 51.0738C29.4593 51.3015 29.4593 51.5289 29.4593 51.7566L29.2053 51.8506C29.1882 51.5384 29.1464 51.0391 28.581 51.0391H27.1966V55.5297C27.1966 56.1807 27.4924 56.2555 27.8965 56.2555H28.0574V56.5092C27.7281 56.5092 27.1368 56.4765 26.6817 56.4765C26.1749 56.4765 25.5832 56.5092 25.2539 56.5092V56.2555H25.4147C25.8798 56.2555 26.1151 56.2141 26.1151 55.5472V51.0391H24.7311V51.0391Z"
            fill="#231F20" />
        <path
            d="M28.0582 56.5456C27.7257 56.5456 27.1353 56.5122 26.6821 56.5122C26.1757 56.5122 25.5856 56.5456 25.2543 56.5456H25.2185V56.2195H25.4152C25.8802 56.2088 26.0674 56.2028 26.0781 55.5478V51.076H24.7311V51.0019H26.1514V55.5478C26.1514 56.2255 25.8782 56.294 25.4152 56.2948H25.2901V56.4727C25.623 56.4707 26.192 56.4393 26.6817 56.4393C27.1213 56.4393 27.6851 56.4704 28.0196 56.4727V56.2948H27.8961C27.488 56.294 27.1591 56.1936 27.1591 55.5303V51.0015H28.5802C29.1464 51.0035 29.2213 51.4849 29.2392 51.799L29.4215 51.7318C29.4215 51.5112 29.4223 51.2906 29.4379 51.0688C29.4625 50.8506 29.4932 50.6364 29.5251 50.4198L29.3968 50.3987C29.3574 50.6444 29.1197 50.6575 28.9079 50.6543H24.5109C24.3126 50.6547 24.096 50.6448 24.02 50.4094H23.8806C23.8795 50.6386 23.863 50.8674 23.8313 51.0943C23.8062 51.326 23.7675 51.549 23.7369 51.7728H23.9173C24.0283 51.1839 24.1004 50.9935 24.7315 51.0019V51.076C24.1064 51.0883 24.1199 51.1926 23.9822 51.8166L23.9762 51.8452H23.6509L23.6557 51.8014C23.6899 51.5657 23.7329 51.3292 23.7572 51.0839C23.792 50.8488 23.8092 50.6113 23.8086 50.3736V50.3362H24.0765L24.0829 50.3628C24.1398 50.5755 24.2959 50.5771 24.5113 50.581H28.9087C29.1436 50.5775 29.3152 50.5743 29.3296 50.3533L29.3327 50.3135L29.371 50.3214L29.6095 50.3593L29.6035 50.3963C29.57 50.6229 29.537 50.8502 29.5119 51.0764C29.496 51.3021 29.496 51.5295 29.496 51.7576V51.7831L29.4713 51.7927L29.1731 51.9022L29.1707 51.8532C29.1476 51.5355 29.1149 51.0764 28.5814 51.0764H27.2336V55.5307C27.2424 56.1673 27.4948 56.2119 27.8969 56.2199H28.0944V56.546H28.0582V56.5456ZM29.8368 56.2557H29.9559C30.2589 56.2557 30.5806 56.2143 30.5806 55.7748V51.3527C30.5806 50.9127 30.2589 50.8709 29.9559 50.8709H29.8368V50.6173C30.3505 50.6173 31.23 50.6511 31.9376 50.6511C32.6479 50.6511 33.5247 50.6173 34.0988 50.6173C34.0841 50.98 34.092 51.5386 34.1167 51.9093L33.8623 51.9762C33.8217 51.4275 33.7206 50.9896 32.8338 50.9896H31.662V53.1998H32.6646C33.1711 53.1998 33.2814 52.9139 33.3315 52.4576H33.5848C33.5504 53.1071 33.5504 53.758 33.5848 54.4074L33.3315 54.458C33.2818 53.9523 33.2563 53.6231 32.6734 53.6231H31.662V55.5888C31.662 56.1383 32.1498 56.1383 32.6901 56.1383C33.703 56.1383 34.1502 56.0702 34.4038 55.1094L34.6391 55.1675C34.5273 55.6113 34.432 56.059 34.3532 56.5098C33.8125 56.5098 32.8418 56.4771 32.0833 56.4771C31.322 56.4771 30.3182 56.5098 29.8364 56.5098V56.2557H29.8368Z"
            fill="#231F20" />
        <path
            d="M34.3214 56.4727C34.3951 56.0458 34.4914 55.6198 34.5949 55.1946L34.4289 55.1527C34.1761 56.0968 33.6863 56.1812 32.6901 56.1748C32.1581 56.1748 31.6266 56.1748 31.6234 55.5883V53.5859H32.673C33.2627 53.58 33.322 53.9351 33.3642 54.4153L33.5466 54.3783C33.5134 53.7504 33.5134 53.1212 33.5466 52.4934H33.3642C33.3168 52.9341 33.1787 53.2419 32.6646 53.2368H31.6238V50.9517H32.8342C33.7122 50.9449 33.8575 51.3992 33.8958 51.9304L34.0773 51.8806C34.0612 51.6056 34.0531 51.3302 34.053 51.0548C34.053 50.9103 34.0566 50.7733 34.0618 50.6538C33.4884 50.6562 32.6324 50.6869 31.9384 50.6869C31.2448 50.6869 30.3911 50.6562 29.8743 50.6538V50.8334H29.9559C30.2561 50.8342 30.6152 50.886 30.6172 51.353V55.7751C30.6152 56.2413 30.2561 56.2923 29.9559 56.2951H29.8743V56.4731C30.3656 56.4715 31.3415 56.4396 32.0829 56.4396C32.8279 56.4392 33.7775 56.4711 34.3214 56.4727V56.4727ZM34.3529 56.5455C33.8113 56.5455 32.8398 56.5105 32.0829 56.5105C31.3224 56.5105 30.319 56.5455 29.8368 56.5455H29.8014V56.2194H29.9559C30.2613 56.2143 30.5392 56.1872 30.5432 55.7747V51.3526C30.5396 50.9401 30.2613 50.9126 29.9559 50.9075H29.8018V50.5806H29.8372C30.3529 50.5806 31.2312 50.6136 31.9384 50.6136C32.6479 50.6136 33.5243 50.5806 34.0992 50.5806H34.1366L34.1355 50.6196C34.1201 51.0486 34.1257 51.478 34.1522 51.9065L34.1538 51.9363L34.1251 51.9451L33.8285 52.0227L33.8273 51.9789C33.7775 51.4315 33.7038 51.0329 32.8346 51.0249H31.6971L31.6963 53.1627H32.665C33.1516 53.1575 33.2384 52.9091 33.2961 52.454L33.2981 52.4201H33.6226L33.6218 52.4583C33.6049 52.7871 33.5962 53.1162 33.5955 53.4454C33.5955 53.7647 33.6055 54.0853 33.6218 54.4058L33.6226 54.4364L33.592 54.4432L33.2981 54.5017L33.2961 54.4619C33.2376 53.9463 33.234 53.664 32.6738 53.658H31.6971V55.5883C31.6983 56.1012 32.1406 56.0984 32.6905 56.1012C33.707 56.0952 34.114 56.0454 34.3684 55.0986L34.3771 55.0644L34.4126 55.0703L34.6829 55.1404L34.6754 55.175C34.5641 55.6181 34.4685 56.065 34.3887 56.5149L34.3823 56.5447H34.3529V56.5455ZM36.8597 53.4693H37.2722C38.1175 53.4693 38.5722 53.1496 38.5722 52.1529C38.5722 51.4024 38.0913 50.9214 37.3391 50.9214C37.0859 50.9214 36.978 50.9473 36.8597 50.9552V53.4693V53.4693ZM35.7795 51.5111C35.7795 50.8959 35.4414 50.8704 35.1795 50.8704H35.027V50.6172C35.2973 50.6172 35.8205 50.651 36.3357 50.651C36.841 50.651 37.2471 50.6172 37.6943 50.6172C38.7566 50.6172 39.7038 50.9039 39.7038 52.1036C39.7038 52.8629 39.197 53.3263 38.5304 53.5895L39.973 55.7492C40.2099 56.106 40.3775 56.2063 40.792 56.2561V56.5097C40.5129 56.5097 40.2426 56.4771 39.965 56.4771C39.7034 56.4771 39.4319 56.5097 39.1715 56.5097C38.5213 55.6576 37.9634 54.7462 37.4152 53.7739H36.8589V55.5816C36.8589 56.2314 37.1623 56.2561 37.549 56.2561H37.7018V56.5097C37.2197 56.5097 36.7319 56.4771 36.2497 56.4771C35.8448 56.4771 35.4478 56.5097 35.0258 56.5097V56.2561H35.1783C35.4916 56.2561 35.7783 56.1131 35.7783 55.801V51.5111H35.7795Z"
            fill="#231F20" />
        <path
            d="M37.2722 53.4338C38.1075 53.4254 38.5288 53.1355 38.5372 52.1552C38.532 51.4174 38.0741 50.9603 37.3391 50.9571C37.1113 50.9571 37.0038 50.9778 36.8959 50.9886V53.4338H37.2722V53.4338ZM36.8593 53.5054H36.8218V50.9209L36.8541 50.9185C36.9696 50.909 37.0834 50.8859 37.3387 50.8859C38.1075 50.8859 38.608 51.3856 38.6088 52.1552C38.6064 53.1626 38.1235 53.5054 37.2718 53.5058H36.8593V53.5054ZM36.8593 53.7372H37.4362L37.4466 53.7563C37.996 54.7262 38.5507 55.6376 39.1722 56.4734C39.429 56.4734 39.7006 56.4395 39.9634 56.4395C40.2329 56.4395 40.4934 56.469 40.7553 56.473V56.2878C40.36 56.2396 40.174 56.1198 39.9435 55.7702L38.4738 53.5731L38.5157 53.5564C39.1766 53.296 39.6668 52.8449 39.6668 52.1031C39.6664 50.9321 38.7553 50.6601 37.6942 50.6545C37.2499 50.6545 36.8441 50.6884 36.3357 50.6884C35.84 50.6884 35.3391 50.6569 35.0627 50.6545V50.8341H35.179C35.441 50.8349 35.8137 50.8783 35.8137 51.5122V55.8021C35.8137 56.1409 35.4963 56.2946 35.179 56.2958H35.0627V56.4738C35.4685 56.4722 35.8539 56.4403 36.2505 56.4403C36.7219 56.4403 37.1985 56.4722 37.6652 56.4738V56.2958H37.5497C37.1655 56.295 36.8218 56.2476 36.8218 55.5811V53.7387H36.8593V53.7372ZM40.7924 56.5454C40.5093 56.5454 40.2409 56.5116 39.963 56.5116C39.7058 56.5116 39.4358 56.5454 39.142 56.5311C38.4945 55.681 37.9391 54.7752 37.394 53.8116H36.8951V55.5795C36.9047 56.215 37.1591 56.2102 37.5493 56.2189H37.7388V56.545H37.7014C37.2188 56.545 36.7287 56.5112 36.2501 56.5112C35.8471 56.5112 35.4502 56.545 35.0265 56.545H34.9899V56.2189H35.179C35.4824 56.2169 35.7392 56.0844 35.7404 55.8005V51.511C35.734 50.9125 35.441 50.9157 35.179 50.9074H34.9899V50.5801H35.0265C35.2996 50.5801 35.8208 50.6131 36.3353 50.6131C36.8394 50.6131 37.2439 50.5801 37.6938 50.5801C38.7581 50.5825 39.7372 50.8755 39.74 52.1019C39.74 52.8636 39.2363 53.3398 38.5857 53.6054L40.0032 55.7288C40.2393 56.0788 40.3862 56.1664 40.7972 56.2193L40.8278 56.2241V56.5454H40.7924V56.5454ZM46.5232 54.8457L46.5379 54.8289V51.6647C46.5379 50.9719 46.0586 50.8707 45.8049 50.8707H45.6198V50.6175C46.0167 50.6175 46.4034 50.6514 46.8015 50.6514C47.1483 50.6514 47.492 50.6175 47.8404 50.6175V50.8707H47.7133C47.3586 50.8707 46.962 50.938 46.962 51.943V55.7833C46.962 56.0792 46.9704 56.3746 47.0118 56.6362H46.6924L42.3456 51.7901V55.2689C42.3456 56.0035 42.4882 56.256 43.138 56.256H43.2817V56.5096C42.919 56.5096 42.5555 56.4766 42.1927 56.4766C41.8113 56.4766 41.4239 56.5096 41.0444 56.5096V56.256H41.1619C41.7448 56.256 41.9228 55.859 41.9228 55.1857V51.6293C41.9228 51.157 41.5342 50.8707 41.1543 50.8707H41.0444V50.6175C41.3637 50.6175 41.6954 50.6514 42.0156 50.6514C42.2664 50.6514 42.5125 50.6175 42.7661 50.6175L46.5232 54.8457V54.8457Z"
            fill="#231F20" />
        <path
            d="M46.5021 54.8291V54.8267L46.4961 54.8203L46.5021 54.8291ZM46.522 54.8458L46.5495 54.8215L46.522 54.8458ZM46.6924 56.5982H46.9688C46.9317 56.3457 46.9242 56.0638 46.9242 55.7831V51.9428C46.925 50.9298 47.3518 50.8359 47.7129 50.8331H47.8017V50.6535C47.4693 50.6559 47.136 50.6866 46.8011 50.6866C46.4133 50.6866 46.0371 50.6559 45.6552 50.6535V50.8331H45.8045C46.0645 50.8355 46.5758 50.9494 46.5758 51.6645L46.5634 54.8554L46.5483 54.8717L46.5216 54.8996L42.7661 50.6535C42.5149 50.6535 42.27 50.6866 42.0152 50.6866C41.7022 50.6866 41.3868 50.6559 41.0799 50.6535V50.8331H41.1539C41.5509 50.8355 41.957 51.1349 41.957 51.629V55.1835C41.957 55.8608 41.7663 56.292 41.1611 56.2948L41.0795 56.294V56.4735C41.4442 56.4711 41.8201 56.4397 42.1903 56.4397C42.5443 56.4397 42.8951 56.4707 43.2443 56.4735V56.2952H43.1372C42.473 56.2944 42.3074 56.0045 42.3054 55.2691V51.6975L46.6924 56.5982V56.5982ZM47.0118 56.6718L46.665 56.6599L42.3807 51.8858V55.2683C42.3906 56.0037 42.5017 56.2111 43.1384 56.2195H43.3172V56.5456H43.2805C42.9158 56.5456 42.5535 56.5106 42.1915 56.5106C41.8149 56.5106 41.4247 56.5456 41.0444 56.5456H41.0066V56.2195H41.1619C41.7193 56.2175 41.879 55.858 41.8846 55.1835V51.629C41.8838 51.1791 41.5155 50.9071 41.1547 50.9071H41.0066V50.5802H41.0444C41.3669 50.5802 41.697 50.6133 42.0156 50.6133C42.2636 50.6133 42.5081 50.5802 42.7912 50.591L46.5017 54.769V51.6645C46.4997 50.9939 46.0498 50.9111 45.8045 50.9071H45.5819V50.5802H45.6186C46.0171 50.5802 46.4066 50.6133 46.8011 50.6133C47.1452 50.6133 47.4904 50.5802 47.8388 50.5802H47.8762V50.9071H47.7133C47.3649 50.9155 47.0062 50.947 46.9978 51.9424V55.7827C46.9978 56.0782 47.0054 56.3708 47.0484 56.63L47.0528 56.6714H47.0118V56.6718ZM50.4296 51.5629H50.4121L49.6277 53.9519H51.2049L50.4296 51.5629ZM49.1973 55.3025C49.1121 55.5888 49.0106 55.8102 49.0106 55.9599C49.0106 56.2143 49.3661 56.2561 49.6437 56.2561H49.738V56.5094C49.3973 56.4893 49.0561 56.4784 48.7147 56.4767C48.4109 56.4767 48.1087 56.4911 47.8041 56.5094V56.2561H47.8555C48.184 56.2561 48.4635 56.0614 48.5889 55.7067L49.9395 51.8337C50.0498 51.5207 50.2019 51.0991 50.2533 50.7861C50.5216 50.6937 50.8609 50.5257 51.0205 50.4234C51.0468 50.415 51.0623 50.4062 51.0878 50.4062C51.1133 50.4062 51.1288 50.4063 51.1475 50.4329C51.1726 50.4998 51.1973 50.5759 51.2232 50.6432L52.7773 55.0584C52.8784 55.3531 52.9787 55.6649 53.0866 55.9197C53.1898 56.1566 53.3669 56.2565 53.6465 56.2565H53.697V56.5098C53.3091 56.4894 52.9208 56.4785 52.5324 56.4771C52.1187 56.4771 51.695 56.4914 51.265 56.5098V56.2565H51.3582C51.5509 56.2565 51.8822 56.2227 51.8822 56.0117C51.8822 55.903 51.8061 55.6748 51.7118 55.4037L51.3829 54.425H49.4669L49.1973 55.3025V55.3025Z"
            fill="#231F20" />
        <path
            d="M50.393 51.5739L50.4125 51.5675L50.393 51.5739ZM49.6771 53.9147H51.1551L50.4205 51.6527L49.6771 53.9147ZM49.5764 53.988L50.3843 51.5253H50.4297V51.5627L50.4209 51.5651L50.4297 51.5627V51.5253H50.4552L51.2571 53.988H49.5764ZM51.3021 56.4701C51.7193 56.4554 52.1294 56.4391 52.5328 56.4391C52.9242 56.4391 53.2921 56.4558 53.6592 56.4701V56.2934H53.6469C53.3574 56.2953 53.1583 56.1815 53.0548 55.9326C52.9449 55.6778 52.8422 55.3644 52.7426 55.0686L51.1886 50.6537C51.1631 50.5864 51.1388 50.5108 51.1169 50.451C51.1085 50.4427 51.1105 50.4427 51.1038 50.4427H51.0878C51.0707 50.4427 51.0608 50.4478 51.0389 50.4534C50.8768 50.5589 50.538 50.7254 50.2871 50.7911C50.2358 51.1108 50.0833 51.5329 49.9738 51.8454L48.6236 55.7188C48.495 56.0859 48.1983 56.2945 47.8555 56.2938H47.8416V56.4705C48.1314 56.4558 48.4233 56.4395 48.7163 56.4395C49.0428 56.4395 49.3757 56.4562 49.6986 56.4705V56.2938H49.6445C49.3689 56.2902 48.9847 56.2599 48.9752 55.9609C48.976 55.7937 49.0795 55.5778 49.1619 55.2924L49.1981 55.3031L49.1619 55.2916L49.4398 54.3893H51.4084L51.7464 55.3919C51.8412 55.6635 51.918 55.8884 51.918 56.0115C51.9057 56.2703 51.5501 56.289 51.359 56.2938H51.3029V56.4701H51.3021ZM53.6942 56.5454C53.3152 56.5291 52.9345 56.5104 52.5328 56.5104C52.1191 56.5104 51.6982 56.5291 51.2674 56.5454L51.2284 56.5474V56.2173H51.3586C51.5541 56.2173 51.844 56.1735 51.8448 56.0107C51.8467 55.9147 51.7711 55.6834 51.6783 55.4146L51.357 54.4598H49.4952L49.2328 55.3127C49.1476 55.5993 49.0452 55.8223 49.0468 55.9597C49.0496 56.1659 49.365 56.2169 49.6449 56.2169H49.7747V56.5466L49.7365 56.5446C49.3988 56.5283 49.0544 56.5096 48.7167 56.5096C48.4153 56.5096 48.1099 56.5283 47.8077 56.5446L47.7683 56.5466V56.2165H47.8559C48.1697 56.2157 48.4321 56.0365 48.5539 55.6937L49.9057 51.8191C50.0148 51.507 50.1681 51.0869 50.2409 50.7497C50.5077 50.6541 50.7645 50.5329 51.0078 50.3877C51.0313 50.3794 51.0548 50.3682 51.0886 50.3682C51.1071 50.3671 51.1255 50.371 51.142 50.3795C51.1585 50.388 51.1723 50.4007 51.1822 50.4164C51.2061 50.4857 51.2328 50.5613 51.2583 50.6294L52.8123 55.0443C52.9118 55.3397 53.0126 55.6515 53.1233 55.9016C53.2212 56.1265 53.3761 56.2153 53.6473 56.2161H53.7325V56.5458L53.6942 56.5454V56.5454ZM54.0681 51.0391C53.435 51.0391 53.4096 51.1916 53.2825 51.8072H53.0285C53.062 51.5711 53.105 51.3346 53.1312 51.0901C53.1643 50.8528 53.1806 50.6171 53.1806 50.373H53.3849C53.451 50.6262 53.6624 50.6171 53.8901 50.6171H58.2461C58.4731 50.6171 58.6837 50.6087 58.7008 50.3555L58.9027 50.3901C58.8712 50.6171 58.8378 50.8452 58.8111 51.0738C58.7924 51.3015 58.7924 51.5289 58.7924 51.7566L58.5404 51.8506C58.5252 51.5384 58.483 51.0391 57.9164 51.0391H56.5324V55.5297C56.5324 56.1807 56.8282 56.2555 57.2324 56.2555H57.3936V56.5092C57.0643 56.5092 56.4743 56.4765 56.0172 56.4765C55.5119 56.4765 54.919 56.5092 54.5901 56.5092V56.2555H54.751C55.216 56.2555 55.4514 56.2141 55.4514 55.5472V51.0391H54.0681Z"
            fill="#231F20" />
        <path
            d="M57.3937 56.5456C57.062 56.5456 56.4703 56.5122 56.0168 56.5122C55.5127 56.5122 54.9214 56.5456 54.5909 56.5456H54.5535V56.2195H54.7514C55.2169 56.2088 55.4036 56.2028 55.4148 55.5478L55.414 51.076H54.0682V51.0019H55.488V55.5478C55.488 56.2255 55.2149 56.2924 54.751 56.294H54.6264V56.4735C54.96 56.4707 55.527 56.4397 56.0164 56.4397C56.4576 56.4397 57.0222 56.4707 57.3558 56.4735V56.294H57.2316C56.8251 56.2924 56.4962 56.1948 56.4954 55.5303V51.0015H57.9157C58.4826 51.0035 58.5567 51.4849 58.5726 51.799L58.7562 51.7318C58.7562 51.5112 58.7574 51.2906 58.7745 51.0696C58.7972 50.8522 58.829 50.636 58.8601 50.4206L58.7327 50.3983C58.6941 50.644 58.4556 50.6575 58.2457 50.6539H53.8468C53.6477 50.6559 53.4323 50.6444 53.3558 50.4082H53.2181C53.2166 50.6377 53.1993 50.8668 53.1663 51.0939C53.1432 51.3268 53.1026 51.5502 53.0703 51.7724H53.2515C53.3626 51.1835 53.4355 50.9924 54.0682 51.0015V51.0756C53.4422 51.0863 53.4562 51.1922 53.318 51.8162L53.312 51.8448H52.9863L52.9915 51.803C53.0269 51.5657 53.0684 51.3288 53.093 51.0855C53.1277 50.8498 53.1432 50.6153 53.1432 50.3736V50.3362H53.4112L53.4183 50.3628C53.4773 50.5755 53.6314 50.5771 53.8472 50.581H58.2461C58.4799 50.5775 58.6503 50.5743 58.665 50.3541L58.6662 50.3135L58.7056 50.3214L58.9453 50.3593L58.9393 50.3963C58.9047 50.6229 58.8724 50.8502 58.8474 51.0764C58.8298 51.3021 58.8298 51.5299 58.8298 51.7576V51.7831L58.8052 51.7927L58.5065 51.9022L58.5053 51.8532C58.483 51.5355 58.45 51.0764 57.9164 51.0764H56.5687V55.5307C56.5774 56.1673 56.8302 56.2119 57.2324 56.2199H57.4291V56.546H57.3937V56.5456ZM59.2149 56.2557H59.3331C59.6373 56.2557 59.9571 56.2143 59.9571 55.7748V51.3527C59.9571 50.9127 59.6377 50.8709 59.3331 50.8709H59.2149V50.6173C59.5446 50.6173 60.0498 50.6511 60.4631 50.6511C60.8864 50.6511 61.3929 50.6173 61.7906 50.6173V50.8709H61.672C61.367 50.8709 61.0461 50.9127 61.0461 51.3527V55.7748C61.0461 56.2143 61.367 56.2557 61.672 56.2557H61.7906V56.5094C61.3849 56.5094 60.878 56.4767 60.4564 56.4767C60.0419 56.4767 59.5446 56.5094 59.2153 56.5094V56.2557H59.2149Z"
            fill="#231F20" />
        <path
            d="M61.752 56.4729V56.2937H61.6719C61.3689 56.2937 61.0106 56.2412 61.0106 55.7749V51.3528C61.0106 50.8862 61.3689 50.834 61.6719 50.8332H61.752V50.6537C61.3625 50.6561 60.874 50.6867 60.4631 50.6867C60.0625 50.6867 59.5791 50.6561 59.2519 50.6537V50.8332H59.3335C59.6333 50.834 59.9932 50.8858 59.994 51.3528V55.7749C59.9932 56.2412 59.6333 56.2937 59.3335 56.2937H59.2519V56.4729C59.5768 56.4693 60.0546 56.4394 60.4563 56.4394C60.8652 56.4394 61.3538 56.4705 61.752 56.4729ZM61.7902 56.5458C61.3821 56.5458 60.8772 56.5107 60.4559 56.5107C60.0426 56.5107 59.5445 56.5458 59.2148 56.5458H59.1786V56.2197H59.3335C59.6377 56.2145 59.9184 56.1878 59.92 55.7749V51.3528C59.918 50.9403 59.6377 50.9129 59.3335 50.9077H59.1786V50.5808H59.2148C59.5445 50.5808 60.0522 50.6138 60.4631 50.6138C60.8839 50.6138 61.3904 50.5808 61.7906 50.5808H61.8256V50.9077H61.6723C61.3629 50.9129 61.0858 50.9403 61.0826 51.3528V55.7749C61.0858 56.1878 61.3629 56.2145 61.6723 56.2197H61.8256V56.5458H61.7902ZM65.2833 56.2647C66.9214 56.2647 67.2069 54.8205 67.2069 53.5894C67.2069 52.3558 66.5415 50.8623 65.1396 50.8623C63.6628 50.8623 63.2236 52.1794 63.2236 53.3094C63.2236 54.8205 63.9164 56.2647 65.2833 56.2647V56.2647ZM65.1555 50.4912C66.9552 50.4912 68.3894 51.6065 68.3894 53.4042C68.3894 55.3461 66.9966 56.6365 65.1993 56.6365C63.4087 56.6365 62.0422 55.4209 62.0422 53.6061C62.0422 51.851 63.4008 50.4912 65.1555 50.4912Z"
            fill="#231F20" />
        <path
            d="M63.1866 53.3094C63.1893 52.1738 63.6325 50.8248 65.1396 50.8248C66.573 50.828 67.2415 52.349 67.2443 53.5893C67.2415 54.82 66.952 56.2992 65.2837 56.2992V56.2279C66.8887 56.2264 67.1674 54.8204 67.1702 53.5897C67.1702 52.3669 66.5117 50.9016 65.1396 50.8993C63.6914 50.9008 63.2638 52.1853 63.2598 53.3098C63.2606 54.8133 63.9471 56.2256 65.2837 56.2279V56.2992C63.8826 56.298 63.1893 54.8292 63.1866 53.3094V53.3094ZM62.0044 53.6056C62.008 51.8302 63.3821 50.4569 65.1551 50.4541V50.5278C63.4199 50.5278 62.0777 51.8692 62.0757 53.6056C62.0793 55.4002 63.4263 56.5974 65.1993 56.5982C66.9783 56.5974 68.3512 55.3257 68.3536 53.4029C68.352 51.6275 66.9401 50.5294 65.1551 50.5282V50.4545C66.9676 50.4565 68.4225 51.5829 68.4253 53.4029C68.4233 55.3651 67.0138 56.6687 65.1993 56.6719C63.394 56.6687 62.008 55.4408 62.0044 53.6056ZM74.0777 54.8459L74.0952 54.8292V51.6649C74.0952 50.9721 73.6126 50.871 73.3594 50.871H73.1754V50.6178C73.5712 50.6178 73.9602 50.6516 74.3556 50.6516C74.7028 50.6516 75.0488 50.6178 75.3952 50.6178V50.871H75.2682C74.9142 50.871 74.516 50.9383 74.516 51.9433V55.7836C74.516 56.0794 74.5248 56.3749 74.5674 56.6365H74.2465L69.8989 51.7904V55.2692C69.8989 56.0038 70.0426 56.2562 70.6912 56.2562H70.8362V56.5098C70.473 56.5098 70.1107 56.4768 69.7476 56.4768C69.3677 56.4768 68.9791 56.5098 68.5989 56.5098V56.2562H68.7175C69.3008 56.2562 69.4768 55.8592 69.4768 55.1859V51.6295C69.4768 51.1573 69.0898 50.871 68.708 50.871H68.5989V50.6178C68.9198 50.6178 69.2487 50.6516 69.57 50.6516C69.8228 50.6516 70.0661 50.6178 70.3205 50.6178L74.0777 54.8459V54.8459Z"
            fill="#231F20" />
        <path
            d="M74.0577 54.8291V54.8267L74.0513 54.8203L74.0577 54.8291ZM74.0776 54.8458L74.1043 54.8215L74.0776 54.8458ZM74.2468 56.5982H74.5235C74.4877 56.3441 74.4797 56.0638 74.4797 55.7831V51.9428C74.4797 50.9278 74.9058 50.8359 75.2681 50.8331H75.3597V50.6535C75.0244 50.6559 74.6928 50.6866 74.3551 50.6866C73.9709 50.6866 73.5934 50.6559 73.2112 50.6535V50.8331H73.3597C73.6201 50.8355 74.1297 50.9505 74.1297 51.6645L74.121 54.8554L74.1047 54.8717L74.078 54.8996L70.3213 50.6535C70.0716 50.6535 69.8259 50.6866 69.5703 50.6866C69.2593 50.6866 68.9424 50.6559 68.635 50.6535V50.8331H68.7091C69.1061 50.8355 69.5138 51.1349 69.5138 51.629V55.1851C69.5138 55.8608 69.3254 56.292 68.7178 56.2944L68.635 56.2936V56.4731C69.0013 56.4707 69.3772 56.4393 69.7479 56.4393C70.1003 56.4393 70.4499 56.4703 70.7999 56.4731V56.2948H70.6912C70.0286 56.294 69.8626 56.0041 69.8626 55.2691V51.6959L74.2468 56.5982V56.5982ZM74.5681 56.6718L74.2189 56.6599L69.935 51.8858V55.2687C69.945 56.0033 70.0569 56.2099 70.6904 56.2175H70.8723V56.5448H70.8365C70.471 56.5448 70.1086 56.511 69.7475 56.511C69.3692 56.511 68.981 56.5448 68.598 56.5448H68.5634V56.2171H68.717C69.2733 56.2155 69.4337 55.8572 69.4401 55.1847V51.6286C69.4397 51.1787 69.071 50.9067 68.7083 50.9067H68.5634V50.5799H68.598C68.9217 50.5799 69.2506 50.6129 69.5695 50.6129C69.82 50.6129 70.0625 50.5799 70.3487 50.593L74.0577 54.769V51.6645C74.0549 50.9939 73.6054 50.9123 73.3589 50.9071H73.1363V50.5802H73.1749C73.5715 50.5802 73.9609 50.6133 74.3539 50.6133C74.6991 50.6133 75.0439 50.5802 75.3947 50.5802H75.4302V50.9071H75.2673C74.9193 50.9163 74.5602 50.9482 74.553 51.9424V55.7827C74.553 56.0782 74.5598 56.3728 74.6008 56.63L74.6079 56.6714H74.5681V56.6718ZM77.9852 51.5629H77.9685L77.1817 53.9519H78.7624L77.9852 51.5629ZM76.7509 55.3025C76.6681 55.5888 76.5661 55.8102 76.5661 55.9599C76.5661 56.2143 76.9217 56.2561 77.1984 56.2561H77.2928V56.5094C76.9523 56.4893 76.6114 56.4785 76.2703 56.4767C75.9665 56.4767 75.6631 56.4911 75.3605 56.5094V56.2561H75.4087C75.7395 56.2561 76.0191 56.0614 76.1425 55.7067L77.4959 51.8337C77.605 51.5207 77.7579 51.0991 77.8064 50.7861C78.0746 50.6906 78.3328 50.5691 78.5773 50.4234C78.6008 50.415 78.6179 50.4062 78.6442 50.4062C78.6685 50.4062 78.6848 50.4063 78.7019 50.4329C78.7274 50.4998 78.7529 50.5759 78.7784 50.6432L80.3312 55.0584C80.432 55.3531 80.5339 55.6649 80.6442 55.9197C80.7453 56.1566 80.9225 56.2565 81.2008 56.2565H81.2526V56.5098C80.8643 56.4894 80.4756 56.4785 80.0867 56.4771C79.6738 56.4771 79.251 56.4914 78.8202 56.5098V56.2565H78.9137C79.1065 56.2565 79.4377 56.2227 79.4377 56.0117C79.4377 55.903 79.3621 55.6748 79.2677 55.4037L78.9388 54.425H77.0228L76.7509 55.3025V55.3025Z"
            fill="#231F20" />
        <path
            d="M77.9503 51.5742L77.967 51.5678L77.9503 51.5742ZM77.2332 53.915H78.7096L77.9754 51.6542L77.2332 53.915ZM77.1313 53.9883L77.9419 51.526H77.9853V51.5634L77.9758 51.5658L77.9853 51.5634V51.526H78.0108L78.8091 53.9883H77.1313ZM78.8557 56.4712C79.2734 56.4561 79.6843 56.4394 80.0865 56.4394C80.4787 56.4394 80.8458 56.4561 81.2145 56.4704L81.2137 56.2936H81.1994C80.9135 56.2944 80.7144 56.1818 80.6089 55.9329C80.4978 55.6781 80.3974 55.3647 80.2963 55.0701L78.743 50.654C78.718 50.5867 78.6913 50.511 78.6714 50.4529C78.6642 50.443 78.665 50.443 78.6598 50.443H78.6431C78.6248 50.443 78.6152 50.4485 78.5953 50.4545C78.4301 50.5576 78.0924 50.7269 77.8432 50.7914C77.7906 51.1111 77.6377 51.5324 77.529 51.8457L76.1773 55.7191C76.049 56.0862 75.754 56.2948 75.4088 56.294H75.3964V56.4708C75.6871 56.4561 75.977 56.4398 76.2708 56.4398C76.5977 56.4398 76.9318 56.4565 77.2559 56.4708V56.294H77.1989C76.9242 56.2905 76.5396 56.2614 76.5292 55.9604C76.5312 55.7939 76.6351 55.5785 76.718 55.2922L76.7518 55.303L76.718 55.2915L76.9955 54.3892H78.9628L79.3021 55.3918C79.3953 55.6633 79.4721 55.8883 79.4721 56.0113C79.4601 56.2701 79.105 56.2889 78.9135 56.2936H78.8565V56.4712H78.8557ZM81.2487 56.5457C80.8685 56.5306 80.4894 56.5118 80.0869 56.5118C79.6752 56.5118 79.2519 56.5306 78.8219 56.5457L78.7845 56.5477V56.2192H78.9131C79.109 56.2192 79.4 56.1738 79.4 56.0109C79.4024 55.915 79.326 55.6844 79.2312 55.4149L78.9111 54.4601H77.0476L76.7868 55.313C76.702 55.602 76.6021 55.8226 76.6029 55.9596C76.6029 56.1666 76.9194 56.2188 77.1986 56.2188H77.3276V56.5473L77.2893 56.5453C76.9525 56.5302 76.6065 56.5114 76.2704 56.5114C75.9682 56.5114 75.6652 56.5302 75.3606 56.5453L75.324 56.5473V56.2188H75.4088C75.7233 56.2172 75.9865 56.0368 76.1104 55.6948L77.4606 51.8202C77.5689 51.5081 77.7209 51.088 77.7954 50.7519C78.0621 50.6549 78.3192 50.5333 78.5635 50.3888C78.5854 50.3805 78.6089 50.3705 78.6435 50.3705C78.6619 50.3688 78.6804 50.3726 78.6967 50.3814C78.713 50.3902 78.7263 50.4036 78.7351 50.4199C78.7606 50.4864 78.7857 50.5632 78.8131 50.6313L80.3656 55.0462C80.4671 55.3416 80.5679 55.6534 80.6774 55.905C80.7769 56.1284 80.9294 56.2172 81.1994 56.2196H81.2865V56.5481L81.2487 56.5457ZM83.3785 55.6817C83.3785 56.0213 83.613 56.1208 83.8838 56.1563C84.2294 56.1814 84.6097 56.1814 84.9991 56.1384C85.353 56.0958 85.6568 55.8943 85.8085 55.6817C85.9427 55.4965 86.0188 55.26 86.0705 55.0749H86.315C86.2218 55.5558 86.104 56.0293 86.0029 56.5098C85.2619 56.5098 84.5165 56.4772 83.7751 56.4772C83.0317 56.4772 82.2891 56.5098 81.5469 56.5098V56.2562H81.6636C81.9682 56.2562 82.2987 56.2148 82.2987 55.6912V51.3532C82.2987 50.9132 81.9682 50.871 81.6636 50.871H81.5469V50.6178C81.9933 50.6178 82.4333 50.6516 82.88 50.6516C83.3112 50.6516 83.7325 50.6178 84.1641 50.6178V50.871H83.9519C83.631 50.871 83.3793 50.8802 83.3793 51.3273V55.6817H83.3785Z"
            fill="#231F20" />
        <path
            d="M85.9717 56.4727C86.0693 56.014 86.18 55.5661 86.2708 55.1106H86.0968C86.045 55.2941 85.9697 55.5207 85.8375 55.7042C85.6795 55.9228 85.3673 56.1291 85.001 56.1749C84.78 56.1972 84.5606 56.2087 84.354 56.2087C84.1903 56.2087 84.0327 56.2015 83.879 56.1908C83.6042 56.1605 83.339 56.0431 83.339 55.6815V51.3268C83.339 50.8573 83.6361 50.833 83.951 50.833H84.1246V50.6535C83.7089 50.6559 83.2984 50.6873 82.8784 50.6873C82.442 50.6873 82.0143 50.6559 81.5823 50.6535V50.833H81.6628C81.9638 50.833 82.3325 50.8856 82.3325 51.3511V55.6907C82.3325 56.237 81.9654 56.2935 81.6628 56.2935H81.5823V56.4727C82.3114 56.4711 83.0412 56.4392 83.7742 56.4392C84.5081 56.4392 85.2407 56.4711 85.9717 56.4727V56.4727ZM86.0024 56.5456C85.2578 56.5456 84.5148 56.5117 83.7742 56.5117C83.0317 56.5117 82.2887 56.5456 81.5441 56.5456H81.5087V56.2195H81.6628C81.9678 56.2119 82.2576 56.1908 82.2612 55.6911V51.3514C82.2576 50.9405 81.9689 50.9131 81.6628 50.9079H81.5091V50.581H81.5445C81.994 50.581 82.4336 50.614 82.8788 50.614C83.3084 50.614 83.7289 50.581 84.1633 50.581H84.1971V50.9079H83.951C83.6237 50.9163 83.4203 50.9015 83.4131 51.3272V55.6819C83.4151 55.9977 83.6217 56.0821 83.8857 56.1195C84.0342 56.1299 84.1915 56.1354 84.3536 56.1354C84.5602 56.1354 84.7744 56.1259 84.9926 56.1028C85.3367 56.0618 85.6325 55.8631 85.7782 55.662C85.9088 55.4813 85.9825 55.2503 86.0334 55.0664L86.0402 55.0385H86.3584L86.3508 55.0827C86.2552 55.5653 86.1394 56.0363 86.037 56.5173L86.0303 56.5456H86.0024ZM86.0693 51.2686H86.174C86.2887 51.2686 86.342 51.1822 86.342 51.0417C86.342 50.9003 86.2604 50.8506 86.1684 50.8506H86.0693V51.2686ZM85.7699 51.7373V51.6943C85.8786 51.6787 85.8989 51.6815 85.8989 51.615V50.9565C85.8989 50.8637 85.8897 50.8314 85.7734 50.837V50.7916H86.2286C86.385 50.7916 86.5292 50.8665 86.5292 51.0281C86.5292 51.1599 86.442 51.2583 86.3189 51.2961L86.4655 51.5C86.5335 51.5919 86.6112 51.6791 86.661 51.7098V51.7381H86.4882C86.4049 51.7381 86.3317 51.5637 86.1688 51.3296H86.0701V51.6242C86.0701 51.6823 86.0908 51.6795 86.1999 51.6951V51.7381H85.7699V51.7373ZM86.2114 51.9897C86.61 51.9897 86.9146 51.6509 86.9146 51.2686C86.9146 50.886 86.6136 50.5444 86.2114 50.5444C85.8113 50.5444 85.5071 50.8856 85.5071 51.2686C85.5071 51.6509 85.8113 51.9897 86.2114 51.9897ZM86.2114 50.3779C86.7207 50.3779 87.1005 50.7689 87.1005 51.2686C87.1005 51.7683 86.7203 52.155 86.2114 52.155C85.7034 52.155 85.3227 51.7679 85.3227 51.2686C85.3227 50.7689 85.7034 50.3779 86.2114 50.3779Z"
            fill="#231F20" />
        <path
            d="M47.7858 35.1132C55.6812 35.1132 62.0817 28.7127 62.0817 20.8173C62.0817 12.9219 55.6812 6.52148 47.7858 6.52148C39.8905 6.52148 33.49 12.9219 33.49 20.8173C33.49 28.7127 39.8905 35.1132 47.7858 35.1132Z"
            fill="white" />
        <path
            d="M47.8057 35.3683C39.613 35.4073 32.87 28.7698 32.87 20.6906C32.87 11.8608 39.613 5.75329 47.8057 5.75488H51.6448C59.7404 5.75329 67.1292 11.858 67.1292 20.6906C67.1292 28.7674 59.7404 35.3683 51.6448 35.3683H47.8057ZM47.8387 6.97925C40.352 6.98204 34.2863 13.0489 34.2851 20.5357C34.2863 28.0217 40.352 34.0874 47.8387 34.0889C55.3255 34.0874 61.3924 28.0217 61.3944 20.5357C61.3928 13.0489 55.3255 6.98204 47.8387 6.97925V6.97925ZM44.7617 28.5516V12.5174C41.5401 13.7581 39.255 16.8757 39.2467 20.5353C39.255 24.1945 41.5401 27.3125 44.7617 28.5516ZM56.4316 20.5357C56.426 16.8749 54.1378 13.7525 50.913 12.5162V28.5552C54.1374 27.3165 56.426 24.1972 56.4316 20.5357V20.5357Z"
            fill="#004A97" />
    </g>
    <defs>
        <clipPath id="clip0">
            <rect width="100" height="63.1814" fill="white" />
        </clipPath>
    </defs>
</svg>
