<svg width="28" height="10" viewBox="0 0 28 10" fill="none" xmlns="http://www.w3.org/2000/svg">
<path fill-rule="evenodd" clip-rule="evenodd" d="M2.58925 1.00137C2.8394 0.999798 3.58283 0.929652 3.89773 2.04305C4.10985 2.79305 4.44774 4.02159 4.91142 5.72866H5.10025C5.5975 3.92895 5.93908 2.70041 6.125 2.04305C6.44318 0.918054 7.23864 1.00139 7.55682 1.00139L10.0117 1.00139V9.00137H7.50962V4.28685H7.34184L5.94707 9.00137H4.0646L2.66983 4.28336H2.50205V9.00137H0V1.00139L2.58925 1.00137ZM13.6046 1.00139V5.71942H13.8042L15.5008 1.83982C15.8301 1.06777 16.532 1.00139 16.532 1.00139H18.9533V9.00139H16.399V4.28336H16.1994L14.536 8.16296C14.2067 8.93152 13.4715 9.00139 13.4715 9.00139H11.0503V1.00139H13.6046ZM27.7821 4.80304C27.4258 5.86079 26.3069 6.61831 25.0681 6.61831H22.3894V9.00139H19.9604V4.80304H27.7821Z" fill="#0F754E"/>
<path fill-rule="evenodd" clip-rule="evenodd" d="M25.1855 0.9729H19.8333C19.9606 2.75397 21.4247 4.27868 22.9404 4.27868H27.9511C28.2403 2.7984 27.2448 0.9729 25.1855 0.9729Z" fill="url(#paint0_linear_17_56)"/>
<defs>
<linearGradient id="paint0_linear_17_56" x1="28.0002" y1="3.05238" x2="19.8333" y2="3.05238" gradientUnits="userSpaceOnUse">
<stop stop-color="#1F5CD7"/>
<stop offset="1" stop-color="#02AEFF"/>
</linearGradient>
</defs>
</svg>
