<svg width="28" height="10" viewBox="0 0 28 10" fill="none" xmlns="http://www.w3.org/2000/svg">
<path d="M14.4809 3.76846C14.465 4.98738 15.6034 5.66754 16.461 6.07197C17.3422 6.48688 17.6381 6.75298 17.6346 7.12407C17.6281 7.69193 16.9318 7.94257 16.2803 7.95231C15.1435 7.96935 14.4826 7.65531 13.9571 7.41779L13.5476 9.27209C14.0748 9.50717 15.051 9.71219 16.0632 9.72119C18.4394 9.72119 19.994 8.58611 20.0024 6.82622C20.0117 4.59268 16.81 4.46905 16.8318 3.47072C16.8394 3.16801 17.1379 2.84497 17.7919 2.76283C18.1157 2.72134 19.0094 2.68959 20.0226 3.14112L20.4203 1.34705C19.8754 1.15504 19.1751 0.971191 18.3031 0.971191C16.0666 0.971191 14.4936 2.12173 14.4809 3.76846ZM24.2417 1.12572C23.8078 1.12572 23.4421 1.37065 23.2789 1.74651L19.8847 9.58941H22.2591L22.7316 8.32573H25.6331L25.9072 9.58941H28L26.1738 1.12572H24.2417ZM24.5738 3.41208L25.2591 6.59029H23.3824L24.5738 3.41208ZM11.6021 1.12583L9.73044 9.58931H11.9931L13.8638 1.12562H11.6021V1.12583ZM8.25486 1.12562L5.8998 6.88645L4.94714 1.98826C4.83536 1.44146 4.39392 1.12572 3.9037 1.12572H0.0539219L0 1.3715C0.790344 1.53746 1.68831 1.80514 2.23234 2.09156C2.56528 2.26652 2.66022 2.41947 2.76959 2.83523L4.57395 9.58941H6.965L10.6308 1.12572H8.25486" fill="url(#paint0_linear_17_54)"/>
<defs>
<linearGradient id="paint0_linear_17_54" x1="12.8727" y1="9.89672" x2="13.1178" y2="0.909885" gradientUnits="userSpaceOnUse">
<stop stop-color="#222357"/>
<stop offset="1" stop-color="#254AA5"/>
</linearGradient>
</defs>
</svg>
