<svg width="23" height="15" viewBox="0 0 23 15" fill="none" xmlns="http://www.w3.org/2000/svg">
<path d="M7 14.9712C10.866 14.9712 14 11.8372 14 7.97119C14 4.1052 10.866 0.971191 7 0.971191C3.13401 0.971191 0 4.1052 0 7.97119C0 11.8372 3.13401 14.9712 7 14.9712Z" fill="#EE0005"/>
<path d="M16 14.9712C19.866 14.9712 23 11.8372 23 7.97119C23 4.1052 19.866 0.971191 16 0.971191C12.134 0.971191 9 4.1052 9 7.97119C9 11.8372 12.134 14.9712 16 14.9712Z" fill="#F9A000"/>
<path d="M9 7.97119C9 9.99717 9.97691 11.8024 11.5 12.9712C13.023 11.8024 14 9.99717 14 7.97119C14 5.94522 13.0231 4.13997 11.5 2.97119C9.97696 4.14007 9 5.94526 9 7.97119Z" fill="#FF6300"/>
</svg>
