<svg width="100" height="100" viewBox="0 0 100 100" fill="none" xmlns="http://www.w3.org/2000/svg">
    <path fill-rule="evenodd" clip-rule="evenodd"
        d="M9.242 0H89.472C95.262 0 100 4.738 100 10.528V89.472C100 95.262 95.262 100 89.472 100H10.528C4.738 100 0 95.262 0 89.472V9.242C0 4.158 4.158 0 9.242 0Z"
        fill="#EBECEC" />
    <path fill-rule="evenodd" clip-rule="evenodd"
        d="M12.46 3.9458H86.356C91.69 3.9458 96.054 8.3098 96.054 13.6438V86.3558C96.054 91.6898 91.69 96.0538 86.356 96.0538H13.644C8.31005 96.0538 3.94604 91.6898 3.94604 86.3558V12.4598C3.94604 7.7778 7.77804 3.9458 12.46 3.9458V3.9458Z"
        fill="#FEFEFE" />
    <path
        d="M49.414 62.2421C61.3047 62.2421 70.944 52.6028 70.944 40.7121C70.944 28.8214 61.3047 19.1821 49.414 19.1821C37.5233 19.1821 27.884 28.8214 27.884 40.7121C27.884 52.6028 37.5233 62.2421 49.414 62.2421Z"
        fill="#FEFEFE" />
    <path fill-rule="evenodd" clip-rule="evenodd"
        d="M82.79 44.886L68.612 30.706C68.338 30.434 67.892 30.434 67.618 30.706L58.192 40.132C57.92 40.406 57.92 40.852 58.192 41.124L62.816 45.748L69.298 46.432C69.682 46.472 70 46.748 70 47.134V52.932L72.372 55.304C72.644 55.576 73.09 55.576 73.364 55.304L82.79 45.878C83.064 45.604 83.064 45.158 82.79 44.886V44.886Z"
        fill="url(#paint0_linear)" />
    <path fill-rule="evenodd" clip-rule="evenodd"
        d="M70.0001 67.1861V47.1341C70.0001 46.7481 69.6841 46.4321 69.2981 46.4321H55.9681C55.5821 46.4321 55.2661 46.7481 55.2661 47.1341V53.3941L59.4661 58.7341C59.7041 59.0381 59.7381 59.4541 59.4661 59.7281L55.2661 63.9261V67.1861C55.2661 67.5721 55.5821 67.8881 55.9681 67.8881H69.2981C69.6841 67.8881 70.0001 67.5721 70.0001 67.1861Z"
        fill="url(#paint1_linear)" />
    <path fill-rule="evenodd" clip-rule="evenodd"
        d="M45.2861 73.906L59.4661 59.728C59.7381 59.454 59.7381 59.008 59.4661 58.734L50.0401 49.308C49.7661 49.036 49.3201 49.036 49.0461 49.308L44.5501 53.806L43.7141 60.486C43.6661 60.868 43.3981 61.188 43.0121 61.188H37.1681L34.8681 63.488C34.5961 63.76 34.5961 64.206 34.8681 64.48L44.2941 73.906C44.5681 74.18 45.0141 74.18 45.2861 73.906V73.906Z"
        fill="url(#paint2_linear)" />
    <path fill-rule="evenodd" clip-rule="evenodd"
        d="M22.9601 61.1881H43.0121C43.3981 61.1881 43.7141 60.8721 43.7141 60.4861V47.1561C43.7141 46.7701 43.3981 46.4541 43.0121 46.4541H36.2781L31.3121 50.5061C31.0141 50.7501 30.5941 50.7801 30.3201 50.5061L26.2661 46.4541H22.9601C22.5741 46.4541 22.2581 46.7701 22.2581 47.1561V60.4861C22.2581 60.8721 22.5741 61.1881 22.9601 61.1881Z"
        fill="url(#paint3_linear)" />
    <path fill-rule="evenodd" clip-rule="evenodd"
        d="M28.9221 14.0062V34.0582C28.9221 34.4442 29.2381 34.7602 29.6241 34.7602H42.9561C43.3421 34.7602 43.6561 34.4442 43.6561 34.0582V27.6922L39.5001 22.4722C39.2601 22.1702 39.2281 21.7522 39.5021 21.4802L43.6561 17.3242V14.0062C43.6561 13.6202 43.3421 13.3062 42.9561 13.3062H29.6241C29.2381 13.3062 28.9221 13.6202 28.9221 14.0062Z"
        fill="url(#paint4_linear)" />
    <path fill-rule="evenodd" clip-rule="evenodd"
        d="M53.6799 7.30019L39.5019 21.4802C39.2279 21.7522 39.2279 22.2002 39.4999 22.4722L48.9279 31.8982C49.1999 32.1722 49.6459 32.1722 49.9199 31.8982L54.5539 27.2642L55.2379 20.7282C55.2779 20.3442 55.5539 20.0262 55.9399 20.0262H61.7919L64.0979 17.7202C64.3719 17.4462 64.3719 17.0002 64.0979 16.7282L54.6719 7.30019C54.3999 7.02819 53.9519 7.02819 53.6799 7.30019V7.30019Z"
        fill="url(#paint5_linear)" />
    <path fill-rule="evenodd" clip-rule="evenodd"
        d="M75.992 20.0259H55.94C55.554 20.0259 55.238 20.3419 55.238 20.7279V34.0579C55.238 34.4439 55.554 34.7599 55.94 34.7599H62.576L67.618 30.7059C67.92 30.4639 68.338 30.4339 68.612 30.7059L72.664 34.7599H75.992C76.378 34.7599 76.694 34.4439 76.694 34.0579V20.7279C76.694 20.3419 76.378 20.0259 75.992 20.0259V20.0259Z"
        fill="url(#paint6_linear)" />
    <path fill-rule="evenodd" clip-rule="evenodd"
        d="M16.142 36.3281L30.32 50.5061C30.594 50.7801 31.04 50.7801 31.312 50.5061L40.738 41.0801C41.012 40.8081 41.012 40.3621 40.738 40.0881L36.02 35.3681L29.624 34.7601C29.24 34.7241 28.922 34.4441 28.922 34.0581V28.2721L26.56 25.9101C26.286 25.6361 25.84 25.6361 25.568 25.9101L16.142 35.3361C15.868 35.6081 15.868 36.0561 16.142 36.3281V36.3281Z"
        fill="url(#paint7_linear)" />
    <path fill-rule="evenodd" clip-rule="evenodd"
        d="M70 47.1339V52.9319L72.372 55.3039L70 47.1339ZM68.612 30.7059L72.664 34.7599H75.992L68.612 30.7059ZM55.94 20.0259H61.792L64.098 17.7199L55.94 20.0259V20.0259ZM39.368 21.6639L43.656 17.3239V14.0059L39.368 21.6639V21.6639ZM28.922 34.0579V28.2719L26.56 25.9099L28.922 34.0579ZM30.32 50.5059L26.266 46.4539H22.96L30.32 50.5059ZM43.012 61.1879H37.168L34.868 63.4879L43.012 61.1879ZM59.408 59.7859L55.266 63.9259V67.1859L59.408 59.7859Z"
        fill="#005788" />
    <path
        d="M19.6161 86.3019C19.6181 86.4739 19.5921 86.6579 19.5361 86.8519C19.4821 87.0479 19.3901 87.2299 19.2581 87.4059C19.1281 87.5779 18.9521 87.7179 18.7261 87.8279C18.5021 87.9399 18.2221 87.9959 17.8821 87.9979H15.2921V84.6759H17.9001C18.2761 84.6779 18.5921 84.7499 18.8441 84.8899C19.1001 85.0299 19.2901 85.2239 19.4221 85.4679C19.5501 85.7119 19.6161 85.9879 19.6161 86.3019ZM32.1181 89.9639V88.4459C32.1221 88.2719 32.1001 88.1559 32.0521 88.0959C32.0061 88.0399 31.9101 88.0139 31.7621 88.0159H27.0441C26.7881 88.0199 26.5721 87.9899 26.4001 87.9239C26.2281 87.8619 26.1001 87.7519 26.0141 87.5959C25.9261 87.4379 25.8821 87.2219 25.8821 86.9439V84.9079H31.0101C31.1501 84.9079 31.2421 84.8739 31.2881 84.8099C31.3321 84.7439 31.3521 84.6399 31.3501 84.4959V83.1019C31.3521 82.9359 31.3321 82.8219 31.2881 82.7599C31.2421 82.6999 31.1501 82.6699 31.0101 82.6739H25.8821V81.2979C25.8801 81.0859 25.9121 80.8979 25.9781 80.7319C26.0421 80.5659 26.1601 80.4339 26.3281 80.3379C26.4981 80.2399 26.7361 80.1919 27.0441 80.1899H31.5821C31.7141 80.1919 31.8021 80.1639 31.8541 80.1059C31.9001 80.0499 31.9241 79.9459 31.9221 79.7959V78.2779C31.9241 78.1119 31.9041 77.9979 31.8601 77.9359C31.8141 77.8759 31.7221 77.8459 31.5821 77.8499H26.4541C25.8521 77.8519 25.3441 77.9439 24.9241 78.1259C24.5041 78.3079 24.1641 78.5559 23.9041 78.8639C23.6481 79.1779 23.4581 79.5279 23.3421 79.9219C23.2221 80.3159 23.1641 80.7259 23.1661 81.1539V87.0879C23.1641 87.4979 23.2101 87.8979 23.3121 88.2879C23.4101 88.6739 23.5841 89.0259 23.8281 89.3419C24.0721 89.6539 24.4081 89.9039 24.8401 90.0899C25.2681 90.2759 25.8141 90.3699 26.4721 90.3759H31.7621C31.9001 90.3759 31.9961 90.3419 32.0461 90.2759C32.0981 90.2119 32.1221 90.1079 32.1181 89.9639V89.9639ZM52.4801 83.7099V83.6199C52.8661 83.3879 53.1861 83.0839 53.4401 82.7119C53.6961 82.3399 53.8841 81.8999 54.0001 81.3939L54.8221 78.2039C54.8401 78.1619 54.8481 78.1119 54.8481 78.0579C54.8461 78.0019 54.8241 77.9539 54.7821 77.9139C54.7421 77.8739 54.6701 77.8519 54.5721 77.8499H52.5701C52.5041 77.8459 52.4361 77.8579 52.3641 77.8879C52.2941 77.9139 52.2421 77.9859 52.2121 78.0999L51.4081 81.1079C51.3141 81.4739 51.1861 81.7659 51.0281 81.9799C50.8701 82.1979 50.6941 82.3579 50.5001 82.4619C50.3101 82.5659 50.1141 82.6359 49.9161 82.6679C49.7181 82.6979 49.5301 82.7119 49.3541 82.7099H47.9241V78.1699C47.9521 78.0399 47.9401 77.9599 47.8881 77.9259C47.8381 77.8939 47.7541 77.8799 47.6381 77.8859H45.5481C45.4401 77.8799 45.3601 77.8939 45.3061 77.9259C45.2521 77.9599 45.2261 78.0399 45.2261 78.1699V90.0899C45.2261 90.2179 45.2521 90.2999 45.3061 90.3339C45.3601 90.3659 45.4401 90.3819 45.5481 90.3759H47.6201C47.7361 90.3819 47.8181 90.3659 47.8681 90.3339C47.9181 90.2999 47.9421 90.2179 47.9421 90.0899L47.9241 84.7819H49.3901C49.8041 84.7759 50.1561 84.8139 50.4401 84.8979C50.7261 84.9779 50.9641 85.1279 51.1561 85.3459C51.3441 85.5619 51.5021 85.8759 51.6241 86.2839L52.7141 90.1239C52.7521 90.2379 52.8061 90.3059 52.8721 90.3359C52.9401 90.3659 53.0061 90.3779 53.0701 90.3759H55.1441C55.2421 90.3719 55.3121 90.3519 55.3541 90.3099C55.3961 90.2679 55.4181 90.2199 55.4201 90.1659C55.4201 90.1099 55.4121 90.0619 55.3941 90.0179L54.2861 85.8719C54.2181 85.6039 54.1401 85.3599 54.0601 85.1419C53.9761 84.9219 53.8721 84.7259 53.7441 84.5499C53.6181 84.3739 53.4521 84.2159 53.2501 84.0759C53.0461 83.9399 52.7901 83.8179 52.4801 83.7099V83.7099ZM60.0021 85.5499L60.6801 83.2879L61.3601 80.7379H61.4681L62.1281 83.2879L62.8081 85.5499H60.0021ZM63.4501 87.7659L64.1481 90.0899C64.1841 90.2179 64.2461 90.2999 64.3321 90.3339C64.4221 90.3659 64.5321 90.3819 64.6661 90.3759H66.7921C66.8821 90.3719 66.9441 90.3539 66.9821 90.3119C67.0221 90.2739 67.0461 90.2299 67.0481 90.1719C67.0521 90.1199 67.0421 90.0679 67.0241 90.0179L63.3081 78.8299C63.2161 78.5439 63.1121 78.3279 62.9981 78.1859C62.8841 78.0459 62.7421 77.9539 62.5701 77.9079C62.3961 77.8639 62.1801 77.8459 61.9141 77.8499H60.8421C60.6041 77.8459 60.4041 77.8739 60.2381 77.9299C60.0701 77.9839 59.9341 78.0839 59.8201 78.2279C59.7081 78.3699 59.6161 78.5699 59.5381 78.8299L55.8201 90.0179C55.7921 90.1199 55.7941 90.2019 55.8261 90.2699C55.8601 90.3359 55.9401 90.3719 56.0701 90.3759H58.1621C58.3261 90.3759 58.4441 90.3479 58.5141 90.2919C58.5821 90.2379 58.6321 90.1519 58.6621 90.0359L59.3581 87.7659H63.4501V87.7659ZM74.6161 81.9419C74.6161 82.2599 74.5521 82.5459 74.4281 82.8019C74.3001 83.0579 74.1061 83.2599 73.8441 83.4099C73.5841 83.5579 73.2521 83.6359 72.8461 83.6379H70.5061V80.2439H72.8281C73.1881 80.2459 73.4861 80.3039 73.7181 80.4159C73.9521 80.5259 74.1321 80.6699 74.2641 80.8459C74.3941 81.0179 74.4881 81.2019 74.5401 81.3959C74.5921 81.5899 74.6181 81.7719 74.6161 81.9419V81.9419ZM70.5061 89.9999V85.8359H72.8821C73.5501 85.8339 74.1261 85.7599 74.6161 85.6199C75.1001 85.4759 75.5121 85.2879 75.8461 85.0499C76.1781 84.8119 76.4501 84.5459 76.6581 84.2559C76.8661 83.9639 77.0281 83.6619 77.1381 83.3579C77.2481 83.0519 77.3221 82.7639 77.3641 82.4859C77.4021 82.2099 77.4241 81.9679 77.4201 81.7619C77.4201 81.1939 77.3221 80.6699 77.1321 80.1919C76.9421 79.7159 76.6641 79.3059 76.3001 78.9539C75.9401 78.6059 75.5001 78.3339 74.9841 78.1419C74.4721 77.9499 73.8881 77.8519 73.2401 77.8499H68.8621C68.5781 77.8499 68.3581 77.8959 68.2041 77.9839C68.0461 78.0719 67.9381 78.1999 67.8761 78.3619C67.8161 78.5259 67.7861 78.7159 67.7901 78.9399V89.9999C67.7901 90.1399 67.8221 90.2379 67.8881 90.2939C67.9541 90.3519 68.0581 90.3779 68.2001 90.3759H70.0761C70.1961 90.3759 70.2861 90.3699 70.3481 90.3539C70.4101 90.3359 70.4521 90.2999 70.4721 90.2479C70.4961 90.1939 70.5061 90.1099 70.5061 89.9999V89.9999ZM87.4241 79.8139V78.2239C87.4281 78.0759 87.4041 77.9739 87.3541 77.9239C87.3021 77.8699 87.2081 77.8459 87.0681 77.8499H77.9181C77.7881 77.8459 77.6981 77.8699 77.6481 77.9239C77.6001 77.9739 77.5761 78.0759 77.5781 78.2239V79.8139C77.5781 79.9319 77.6061 80.0199 77.6621 80.0799C77.7161 80.1399 77.8021 80.1719 77.9181 80.1719H81.0821V89.9999C81.0821 90.1399 81.1141 90.2379 81.1801 90.2939C81.2441 90.3519 81.3501 90.3779 81.4921 90.3759H83.4041C83.5801 90.3779 83.6961 90.3539 83.7521 90.2999C83.8121 90.2479 83.8381 90.1479 83.8321 89.9999V80.1719H87.0681C87.1841 80.1719 87.2721 80.1399 87.3321 80.0799C87.3941 80.0199 87.4241 79.9319 87.4241 79.8139V79.8139ZM13.6481 90.3759H18.1501C18.7581 90.3719 19.3201 90.2739 19.8401 90.0799C20.3581 89.8859 20.8101 89.6119 21.2001 89.2619C21.5881 88.9059 21.8901 88.4919 22.1081 88.0159C22.3261 87.5359 22.4361 87.0119 22.4381 86.4439C22.4421 86.2379 22.4261 85.9979 22.3981 85.7239C22.3681 85.4499 22.3041 85.1599 22.2061 84.8559C22.1121 84.5539 21.9621 84.2579 21.7661 83.9699C21.5661 83.6799 21.3021 83.4179 20.9681 83.1819C20.6341 82.9479 20.2181 82.7599 19.7141 82.6199C19.2101 82.4799 18.6061 82.4079 17.9001 82.4059H15.2921V80.1719H20.6881C20.8181 80.1759 20.9061 80.1519 20.9501 80.1039C20.9921 80.0539 21.0121 79.9639 21.0101 79.8319V78.2419C21.0121 78.0939 20.9921 77.9899 20.9501 77.9319C20.9061 77.8739 20.8181 77.8459 20.6881 77.8499H13.7181C13.4361 77.8499 13.2101 77.8899 13.0421 77.9779C12.8741 78.0639 12.7541 78.1979 12.6821 78.3759C12.6081 78.5559 12.5721 78.7839 12.5761 79.0639V89.3039C12.5721 89.5599 12.6001 89.7639 12.6581 89.9219C12.7181 90.0799 12.8261 90.1959 12.9801 90.2679C13.1361 90.3399 13.3581 90.3759 13.6481 90.3759V90.3759ZM34.8841 79.0459L34.7241 81.7619C34.6701 82.6879 34.6101 83.4899 34.5481 84.1739C34.4501 85.3059 34.3361 88.0159 32.8701 88.0159C32.7221 88.0159 32.6261 88.0399 32.5781 88.0959C32.5321 88.1559 32.5141 88.2719 32.5141 88.4459V89.9639C32.5141 90.1059 32.5341 90.2119 32.5841 90.2759C32.6361 90.3419 32.7301 90.3759 32.8701 90.3759C34.0061 90.3759 35.0001 90.2839 35.8521 88.9939C36.1141 88.5979 36.3441 88.1539 36.5081 87.6499C36.6741 87.1459 36.8061 86.5819 36.9001 85.9579C36.9961 85.3359 37.0741 84.6519 37.1361 83.8999C37.1961 83.1539 37.2561 82.3399 37.3141 81.4579L37.3861 80.2079H40.8701V90.0359C40.8701 90.1659 40.8941 90.2519 40.9481 90.2979C41.0041 90.3399 41.0961 90.3599 41.2281 90.3579H43.2121C43.3241 90.3579 43.4041 90.3479 43.4581 90.3339C43.5161 90.3159 43.5481 90.2819 43.5661 90.2379C43.5801 90.1899 43.5901 90.1219 43.5861 90.0359V79.0459C43.5901 78.7779 43.5541 78.5559 43.4821 78.3799C43.4081 78.1999 43.2881 78.0699 43.1221 77.9799C42.9521 77.8939 42.7261 77.8499 42.4441 77.8499H36.0281C35.7461 77.8499 35.5221 77.8899 35.3641 77.9719C35.2041 78.0539 35.0881 78.1859 35.0161 78.3619C34.9441 78.5399 34.9001 78.7659 34.8841 79.0459V79.0459Z"
        fill="#005A95" />
    <defs>
        <linearGradient id="paint0_linear" x1="82.788" y1="41.126" x2="58.194" y2="44.884"
            gradientUnits="userSpaceOnUse">
            <stop stop-color="#A2D9F7" />
            <stop offset="0.501961" stop-color="#00A0E3" />
            <stop offset="1" stop-color="#005A95" />
        </linearGradient>
        <linearGradient id="paint1_linear" x1="70.0001" y1="47.1341" x2="55.2661" y2="67.1861"
            gradientUnits="userSpaceOnUse">
            <stop stop-color="#A2D9F7" />
            <stop offset="0.501961" stop-color="#00A0E3" />
            <stop offset="1" stop-color="#005A95" />
        </linearGradient>
        <linearGradient id="paint2_linear" x1="45.2861" y1="49.308" x2="49.0481" y2="73.906"
            gradientUnits="userSpaceOnUse">
            <stop stop-color="#A2D9F7" />
            <stop offset="0.501961" stop-color="#00A0E3" />
            <stop offset="1" stop-color="#005A95" />
        </linearGradient>
        <linearGradient id="paint3_linear" x1="22.9581" y1="46.4521" x2="43.7141" y2="60.4861"
            gradientUnits="userSpaceOnUse">
            <stop stop-color="#A2D9F7" />
            <stop offset="0.501961" stop-color="#00A0E3" />
            <stop offset="1" stop-color="#005A95" />
        </linearGradient>
        <linearGradient id="paint4_linear" x1="28.9221" y1="34.0582" x2="43.6581" y2="14.0062"
            gradientUnits="userSpaceOnUse">
            <stop stop-color="#A2D9F7" />
            <stop offset="0.501961" stop-color="#00A0E3" />
            <stop offset="1" stop-color="#005A95" />
        </linearGradient>
        <linearGradient id="paint5_linear" x1="53.6799" y1="31.9002" x2="49.9199" y2="7.30019"
            gradientUnits="userSpaceOnUse">
            <stop stop-color="#A2D9F7" />
            <stop offset="0.501961" stop-color="#00A0E3" />
            <stop offset="1" stop-color="#005A95" />
        </linearGradient>
        <linearGradient id="paint6_linear" x1="75.992" y1="34.7599" x2="55.94" y2="20.0239"
            gradientUnits="userSpaceOnUse">
            <stop stop-color="#A2D9F7" />
            <stop offset="0.501961" stop-color="#00A0E3" />
            <stop offset="1" stop-color="#005A95" />
        </linearGradient>
        <linearGradient id="paint7_linear" x1="16.142" y1="40.0901" x2="40.738" y2="36.3281"
            gradientUnits="userSpaceOnUse">
            <stop stop-color="#A2D9F7" />
            <stop offset="0.501961" stop-color="#00A0E3" />
            <stop offset="1" stop-color="#005A95" />
        </linearGradient>
    </defs>
</svg>
