<svg width="100" height="33" viewBox="0 0 100 33" fill="none" xmlns="http://www.w3.org/2000/svg">
    <path d="M43.3334 31.8972H35.2327L40.2994 0.568024H48.3997L43.3334 31.8972Z" fill="white" />
    <path
        d="M72.6995 1.33381C71.1017 0.699905 68.5674 0 65.4338 0C57.4341 0 51.8007 4.26587 51.7662 10.3648C51.6997 14.8646 55.7995 17.3638 58.8658 18.8642C61.9998 20.3973 63.0652 21.398 63.0652 22.7646C63.0333 24.8634 60.5327 25.8309 58.2004 25.8309C54.9662 25.8309 53.2333 25.3321 50.5998 24.1644L49.5331 23.6639L48.3995 30.6966C50.2995 31.5621 53.7999 32.3303 57.4341 32.3639C65.9339 32.3639 71.4676 28.1641 71.5331 21.6647C71.5655 18.0983 69.4006 15.3656 64.7334 13.1325C61.9002 11.699 60.165 10.7325 60.165 9.26576C60.1982 7.9324 61.6326 6.5667 64.8309 6.5667C67.4644 6.49981 69.3993 7.13282 70.8651 7.76628L71.5978 8.09896L72.6995 1.33381V1.33381Z"
        fill="white" />
    <path
        d="M83.4654 20.7984C84.1325 18.9985 86.6996 12.0327 86.6996 12.0327C86.6659 12.0996 87.3654 10.1997 87.7654 9.03332L88.3315 11.7328C88.3315 11.7328 89.8655 19.232 90.1987 20.7984C88.9326 20.7984 85.0654 20.7984 83.4654 20.7984ZM93.4647 0.568024H87.1988C85.2666 0.568024 83.7985 1.13415 82.9648 3.16741L70.9323 31.8967H79.4321C79.4321 31.8967 80.8315 28.03 81.1322 27.1972C82.0647 27.1972 90.3333 27.1972 91.5329 27.1972C91.7655 28.2971 92.4995 31.8967 92.4995 31.8967H100L93.4647 0.568024V0.568024Z"
        fill="white" />
    <path
        d="M28.4664 0.568024L20.5331 21.9315L19.6662 17.5987C18.1995 12.5993 13.5996 7.1675 8.46637 4.46667L15.733 31.8639H24.2993L37.0322 0.568024H28.4664V0.568024Z"
        fill="white" />
    <path
        d="M13.1666 0.568024H0.133336L0 1.20104C10.1668 3.80087 16.9 10.0677 19.6664 17.6001L16.8331 3.20152C16.3667 1.2006 14.9332 0.634027 13.1666 0.568024Z"
        fill="white" />
</svg>
