<svg width="100" height="78" viewBox="0 0 100 78" fill="none" xmlns="http://www.w3.org/2000/svg">
    <g clip-path="url(#clip0)">
        <path
            d="M100 61.4914C100 70.0489 93.0318 77.0171 84.4743 77.0171H0V15.5257C0 6.96816 6.9682 0 15.5257 0H100V61.4914Z"
            fill="white" />
        <path
            d="M72.4939 45.7215H78.912C79.0953 45.7215 79.5232 45.6603 79.7066 45.6603C80.9291 45.4158 81.9682 44.3156 81.9682 42.7875C81.9682 41.3205 80.9291 40.2202 79.7066 39.9146C79.5232 39.8535 79.1565 39.8535 78.912 39.8535H72.4939V45.7215Z"
            fill="url(#paint0_linear)" />
        <path
            d="M78.1785 5.19531C72.066 5.19531 67.0538 10.1464 67.0538 16.32V27.8726H82.7629C83.1296 27.8726 83.5575 27.8726 83.8631 27.9337C87.4083 28.1171 90.0367 29.9508 90.0367 33.1293C90.0367 35.6354 88.264 37.7748 84.9633 38.2027V38.3249C88.5697 38.5694 91.3203 40.5865 91.3203 43.7039C91.3203 47.0657 88.2641 49.2663 84.2299 49.2663H66.9927V71.8824H83.313C89.4255 71.8824 94.4377 66.9312 94.4377 60.7577V5.19531H78.1785H78.1785Z"
            fill="url(#paint1_linear)" />
        <path
            d="M81.1736 33.8633C81.1736 32.3963 80.1345 31.4183 78.912 31.235C78.7897 31.235 78.4841 31.1738 78.3007 31.1738H72.4939V36.5528H78.3007C78.4841 36.5528 78.8508 36.5528 78.912 36.4917C80.1345 36.3083 81.1736 35.3303 81.1736 33.8633V33.8633Z"
            fill="url(#paint2_linear)" />
        <path
            d="M16.687 5.19531C10.5746 5.19531 5.56235 10.1464 5.56235 16.32V43.765C8.6797 45.2931 11.9193 46.2711 15.1589 46.2711C19.0098 46.2711 21.088 43.9484 21.088 40.7699V27.8114H30.6235V40.7088C30.6235 45.721 27.5061 49.8164 16.9315 49.8164C10.5134 49.8164 5.50122 48.4105 5.50122 48.4105V71.8213H21.8215C27.934 71.8213 32.9462 66.8702 32.9462 60.6966V5.19531H16.687Z"
            fill="url(#paint3_linear)" />
        <path
            d="M47.4328 5.19531C41.3203 5.19531 36.3081 10.1464 36.3081 16.32V30.8677C39.1198 28.4838 44.0098 26.9557 51.8949 27.3225C56.1125 27.5058 60.6357 28.6672 60.6357 28.6672V33.3738C58.3741 32.2124 55.6846 31.1733 52.2005 30.9288C46.2103 30.5009 42.6039 33.4349 42.6039 38.5694C42.6039 43.765 46.2103 46.699 52.2005 46.21C55.6846 45.9655 58.3741 44.8652 60.6357 43.765V48.4716C60.6357 48.4716 56.1736 49.633 51.8949 49.8164C44.0098 50.1831 39.1198 48.655 36.3081 46.2711V71.9435H52.6284C58.7408 71.9435 63.7531 66.9924 63.7531 60.8188V5.19535H47.4328L47.4328 5.19531Z"
            fill="url(#paint4_linear)" />
    </g>
    <defs>
        <linearGradient id="paint0_linear" x1="67.0436" y1="42.7948" x2="94.5113" y2="42.7948"
            gradientUnits="userSpaceOnUse">
            <stop stop-color="#007940" />
            <stop offset="0.2285" stop-color="#00873F" />
            <stop offset="0.7433" stop-color="#40A737" />
            <stop offset="1" stop-color="#5CB531" />
        </linearGradient>
        <linearGradient id="paint1_linear" x1="67.0428" y1="38.5122" x2="94.5127" y2="38.5122"
            gradientUnits="userSpaceOnUse">
            <stop stop-color="#007940" />
            <stop offset="0.2285" stop-color="#00873F" />
            <stop offset="0.7433" stop-color="#40A737" />
            <stop offset="1" stop-color="#5CB531" />
        </linearGradient>
        <linearGradient id="paint2_linear" x1="67.0429" y1="33.8557" x2="94.5118" y2="33.8557"
            gradientUnits="userSpaceOnUse">
            <stop stop-color="#007940" />
            <stop offset="0.2285" stop-color="#00873F" />
            <stop offset="0.7433" stop-color="#40A737" />
            <stop offset="1" stop-color="#5CB531" />
        </linearGradient>
        <linearGradient id="paint3_linear" x1="5.54941" y1="38.5121" x2="33.4425" y2="38.5121"
            gradientUnits="userSpaceOnUse">
            <stop stop-color="#1F286F" />
            <stop offset="0.4751" stop-color="#004E94" />
            <stop offset="0.8261" stop-color="#0066B1" />
            <stop offset="1" stop-color="#006FBC" />
        </linearGradient>
        <linearGradient id="paint4_linear" x1="36.15" y1="38.5121" x2="63.2407" y2="38.5121"
            gradientUnits="userSpaceOnUse">
            <stop stop-color="#6C2C2F" />
            <stop offset="0.1735" stop-color="#882730" />
            <stop offset="0.5731" stop-color="#BE1833" />
            <stop offset="0.8585" stop-color="#DC0436" />
            <stop offset="1" stop-color="#E60039" />
        </linearGradient>
        <clipPath id="clip0">
            <rect width="100" height="77.3438" fill="white" />
        </clipPath>
    </defs>
</svg>
