<svg width="24" height="20" viewBox="0 0 24 20" fill="none" xmlns="http://www.w3.org/2000/svg">
<path d="M24 15.5236C24 17.5774 22.3276 19.2497 20.2738 19.2497H0V4.49179C0 2.438 1.67237 0.765625 3.72616 0.765625H24V15.5236Z" fill="white"/>
<path d="M18.763 2.01257C17.296 2.01257 16.093 3.20084 16.093 4.6825V7.45512H19.8632C19.9512 7.45512 20.0539 7.45512 20.1273 7.46979C20.9781 7.5138 21.6089 7.95389 21.6089 8.71673C21.6089 9.3182 21.1835 9.83164 20.3913 9.93433V9.96367C21.2569 10.0224 21.917 10.5065 21.917 11.2546C21.917 12.0615 21.1835 12.5896 20.2153 12.5896H16.0784V18.0175H19.9952C21.4622 18.0175 22.6652 16.8292 22.6652 15.3475V2.01257H18.763Z" fill="url(#paint0_linear_983_9905)"/>
<path d="M17.3987 11.7387H18.939C18.961 11.7387 18.9977 11.7351 19.0344 11.7314C19.071 11.7277 19.1077 11.7241 19.1297 11.7241C19.4231 11.6654 19.6725 11.4013 19.6725 11.0346C19.6725 10.6825 19.4231 10.4184 19.1297 10.3451C19.0857 10.3304 18.9977 10.3304 18.939 10.3304H17.3987V11.7387Z" fill="url(#paint1_linear_983_9905)"/>
<path d="M18.939 8.26196C19.2324 8.30597 19.4818 8.54068 19.4818 8.89276C19.4818 9.24484 19.2324 9.47956 18.939 9.52357C18.9243 9.53824 18.8363 9.53824 18.7923 9.53824H17.3987V8.24729H18.7923C18.8165 8.24729 18.8497 8.25173 18.8794 8.25573C18.9037 8.25899 18.9258 8.26196 18.939 8.26196Z" fill="url(#paint2_linear_983_9905)"/>
<path d="M4.00491 2.01257C2.53792 2.01257 1.33498 3.20084 1.33498 4.6825V11.2693C2.08315 11.636 2.86065 11.8708 3.63816 11.8708C4.56237 11.8708 5.06114 11.3133 5.06114 10.5505V7.44045H7.34965V10.5358C7.34965 11.7387 6.60149 12.7216 4.06359 12.7216C2.52325 12.7216 1.32031 12.3842 1.32031 12.3842V18.0028H5.23718C6.70417 18.0028 7.90711 16.8145 7.90711 15.3329V2.01257H4.00491Z" fill="url(#paint3_linear_983_9905)"/>
<path d="M11.3838 2.01257C9.9168 2.01257 8.71387 3.20084 8.71387 4.6825V8.17394C9.38868 7.60181 10.5623 7.23507 12.4547 7.32309C13.4669 7.3671 14.5525 7.64582 14.5525 7.64582V8.77541C14.0097 8.49668 13.3642 8.24729 12.528 8.18861C11.0904 8.08592 10.2249 8.79008 10.2249 10.0224C10.2249 11.2693 11.0904 11.9735 12.528 11.8561C13.3642 11.7974 14.0097 11.5334 14.5525 11.2693V12.3989C14.5525 12.3989 13.4816 12.6776 12.4547 12.7216C10.5623 12.8096 9.38868 12.4429 8.71387 11.8708V18.0321H12.6307C14.0977 18.0321 15.3007 16.8439 15.3007 15.3622V2.01257H11.3838Z" fill="url(#paint4_linear_983_9905)"/>
<defs>
<linearGradient id="paint0_linear_983_9905" x1="16.0901" y1="8.89055" x2="22.6826" y2="8.89055" gradientUnits="userSpaceOnUse">
<stop stop-color="#007940"/>
<stop offset="0.2285" stop-color="#00873F"/>
<stop offset="0.7433" stop-color="#40A737"/>
<stop offset="1" stop-color="#5CB531"/>
</linearGradient>
<linearGradient id="paint1_linear_983_9905" x1="16.0901" y1="8.89055" x2="22.6826" y2="8.89055" gradientUnits="userSpaceOnUse">
<stop stop-color="#007940"/>
<stop offset="0.2285" stop-color="#00873F"/>
<stop offset="0.7433" stop-color="#40A737"/>
<stop offset="1" stop-color="#5CB531"/>
</linearGradient>
<linearGradient id="paint2_linear_983_9905" x1="16.0901" y1="8.89055" x2="22.6826" y2="8.89055" gradientUnits="userSpaceOnUse">
<stop stop-color="#007940"/>
<stop offset="0.2285" stop-color="#00873F"/>
<stop offset="0.7433" stop-color="#40A737"/>
<stop offset="1" stop-color="#5CB531"/>
</linearGradient>
<linearGradient id="paint3_linear_983_9905" x1="1.33165" y1="10.0084" x2="8.02615" y2="10.0084" gradientUnits="userSpaceOnUse">
<stop stop-color="#1F286F"/>
<stop offset="0.4751" stop-color="#004E94"/>
<stop offset="0.8261" stop-color="#0066B1"/>
<stop offset="1" stop-color="#006FBC"/>
</linearGradient>
<linearGradient id="paint4_linear_983_9905" x1="8.67574" y1="10.0084" x2="15.1774" y2="10.0084" gradientUnits="userSpaceOnUse">
<stop stop-color="#6C2C2F"/>
<stop offset="0.1735" stop-color="#882730"/>
<stop offset="0.5731" stop-color="#BE1833"/>
<stop offset="0.8585" stop-color="#DC0436"/>
<stop offset="1" stop-color="#E60039"/>
</linearGradient>
</defs>
</svg>
