<svg width="100" height="78" viewBox="0 0 100 78" fill="none" xmlns="http://www.w3.org/2000/svg">
    <g clip-path="url(#clip0)">
        <path
            d="M97.7861 76.4118V76.6136H97.9719C98.0128 76.6136 98.0482 76.6036 98.0736 76.5882C98.097 76.5722 98.1109 76.5448 98.1109 76.512C98.1109 76.4791 98.097 76.4532 98.0736 76.4373C98.0429 76.419 98.0075 76.4103 97.9719 76.4123L97.7861 76.4118ZM97.9734 76.2709C98.0696 76.2709 98.1438 76.2928 98.1966 76.3356C98.2494 76.3785 98.2753 76.4372 98.2753 76.512C98.2753 76.5742 98.2554 76.6255 98.2125 76.6664C98.1628 76.71 98.1002 76.7362 98.0342 76.7411L98.2808 77.025H98.089L97.8599 76.7426H97.7856V77.0246H97.6252V76.2709H97.9734ZM97.9246 77.2851C98.0128 77.2851 98.095 77.2671 98.1692 77.2343C98.284 77.1864 98.3819 77.1052 98.4502 77.0013C98.5186 76.8974 98.5543 76.7753 98.5528 76.651C98.5528 76.5628 98.5353 76.4806 98.5039 76.4044C98.4711 76.3277 98.4257 76.2594 98.3694 76.2026C98.3132 76.1458 98.2459 76.1005 98.1692 76.0676C98.095 76.0362 98.0128 76.0203 97.9251 76.0203C97.8374 76.0203 97.7523 76.0362 97.676 76.0676C97.5978 76.1005 97.5291 76.1458 97.4728 76.2021C97.4165 76.2584 97.3707 76.3277 97.3393 76.4044C97.3059 76.4806 97.2905 76.5628 97.2905 76.651C97.2905 76.7391 97.3059 76.8213 97.3393 76.8975C97.3707 76.9757 97.416 77.042 97.4728 77.0993C97.5296 77.1566 97.5978 77.2009 97.676 77.2338C97.7523 77.2671 97.8364 77.2851 97.9251 77.2851H97.9246ZM97.9251 75.8385C98.0402 75.8385 98.1458 75.8599 98.2479 75.9032C98.4447 75.9849 98.6019 76.14 98.6863 76.3356C98.7291 76.4333 98.751 76.5394 98.751 76.651C98.751 76.7625 98.7291 76.8681 98.6863 76.9658C98.6434 77.0634 98.5846 77.1501 98.5099 77.2243C98.4336 77.2975 98.3449 77.3566 98.2479 77.3986C98.1458 77.4415 98.0402 77.4634 97.9246 77.4634C97.7039 77.4636 97.4918 77.3778 97.3333 77.2243C97.2591 77.1496 97.2003 77.0639 97.1575 76.9658C97.1146 76.8676 97.0927 76.7625 97.0927 76.651C97.0927 76.5394 97.1141 76.4333 97.1575 76.3356C97.1986 76.2386 97.2585 76.1508 97.3338 76.0771C97.408 76.0024 97.4962 75.9441 97.5978 75.9027C97.6995 75.8599 97.807 75.838 97.9246 75.838L97.9251 75.8385ZM21.659 72.9354C21.659 71.4987 22.6005 70.3181 24.1392 70.3181C25.6092 70.3181 26.6015 71.4479 26.6015 72.9354C26.6015 74.4228 25.6092 75.5526 24.1392 75.5526C22.6005 75.5526 21.659 74.372 21.659 72.9354ZM28.2772 72.9354V68.8482H26.4999V69.8404C25.936 69.1047 25.0807 68.6429 23.918 68.6429C21.6256 68.6429 19.8283 70.4397 19.8283 72.9354C19.8283 75.433 21.6256 77.2283 23.918 77.2283C25.0807 77.2283 25.936 76.7665 26.4999 76.0303V77.0226H28.2772V72.9354ZM88.341 72.9354C88.341 71.4987 89.2825 70.3181 90.8212 70.3181C92.2932 70.3181 93.2835 71.4479 93.2835 72.9354C93.2835 74.4228 92.2932 75.5526 90.8212 75.5526C89.2825 75.5526 88.3405 74.372 88.3405 72.9354H88.341ZM94.9607 72.9354V65.5654H93.1819V69.8404C92.618 69.1047 91.7622 68.6429 90.6 68.6429C88.3076 68.6429 86.5103 70.4397 86.5103 72.9354C86.5103 75.433 88.3076 77.2283 90.6 77.2283C91.7627 77.2283 92.618 76.7665 93.1819 76.0303V77.0226H94.9612L94.9607 72.9354ZM50.3402 70.234C51.4854 70.234 52.2211 70.9528 52.4094 72.217H48.1668C48.3566 71.0365 49.0734 70.2345 50.3397 70.2345L50.3402 70.234ZM50.3745 68.6429C47.9785 68.6429 46.3033 70.3864 46.3033 72.9354C46.3033 75.5351 48.0472 77.2283 50.4941 77.2283C51.7255 77.2283 52.8533 76.9209 53.8456 76.0831L52.9743 74.7655C52.2894 75.312 51.4161 75.6213 50.5962 75.6213C49.4505 75.6213 48.4074 75.0908 48.1514 73.6188H54.2211C54.2391 73.3976 54.2565 73.1745 54.2565 72.9354C54.2391 70.3869 52.665 68.6429 50.375 68.6429H50.3745ZM71.8367 72.9354C71.8367 71.4987 72.7782 70.3181 74.3169 70.3181C75.7869 70.3181 76.7792 71.4479 76.7792 72.9354C76.7792 74.4228 75.7869 75.5526 74.3169 75.5526C72.7782 75.5526 71.8367 74.372 71.8367 72.9354ZM78.455 72.9354V68.8482H76.6776V69.8404C76.1117 69.1047 75.2584 68.6429 74.0958 68.6429C71.8034 68.6429 70.0061 70.4397 70.0061 72.9354C70.0061 75.433 71.8034 77.2283 74.0958 77.2283C75.2584 77.2283 76.1117 76.7665 76.6776 76.0303V77.0226H78.455V72.9354ZM61.7988 72.9354C61.7988 75.4161 63.5253 77.2283 66.16 77.2283C67.3914 77.2283 68.2113 76.9543 69.1005 76.2534L68.2467 74.8168C67.5792 75.296 66.8783 75.5526 66.1072 75.5526C64.688 75.5351 63.6449 74.5095 63.6449 72.9354C63.6449 71.3612 64.688 70.3361 66.1072 70.3181C66.8783 70.3181 67.5792 70.5747 68.2467 71.0544L69.1005 69.6178C68.2113 68.9169 67.3914 68.6429 66.16 68.6429C63.5253 68.6429 61.7988 70.4551 61.7988 72.9354V72.9354ZM84.715 68.6429C83.6894 68.6429 83.0219 69.1221 82.5601 69.8404V68.8482H80.7982V77.0226H82.5775V72.4402C82.5775 71.0878 83.1589 70.3361 84.3215 70.3361C84.6817 70.3361 85.0578 70.3869 85.4334 70.5413L85.9813 68.8661C85.5878 68.7117 85.0752 68.6429 84.715 68.6429ZM37.0683 69.4982C36.2125 68.9343 35.0339 68.6429 33.7343 68.6429C31.6631 68.6429 30.33 69.6352 30.33 71.2596C30.33 72.5931 31.3228 73.4151 33.151 73.6716L33.9908 73.7911C34.9657 73.9281 35.4255 74.1847 35.4255 74.6465C35.4255 75.2786 34.7759 75.6387 33.5625 75.6387C32.3306 75.6387 31.4419 75.2452 30.8426 74.7834L30.0058 76.1673C30.9801 76.8856 32.2115 77.2283 33.5445 77.2283C35.9052 77.2283 37.2736 76.1164 37.2736 74.5603C37.2736 73.1232 36.1966 72.3715 34.4173 72.1154L33.5799 71.9939C32.8103 71.8923 32.1936 71.7398 32.1936 71.1914C32.1936 70.5921 32.7749 70.234 33.7497 70.234C34.7933 70.234 35.8036 70.6275 36.2987 70.9348L37.0683 69.4982ZM60.002 68.6429C58.9759 68.6429 58.3084 69.1221 57.8486 69.8404V68.8482H56.0867V77.0226H57.864V72.4402C57.864 71.0878 58.4458 70.3361 59.6085 70.3361C59.9686 70.3361 60.3442 70.3869 60.7203 70.5413L61.2683 68.8661C60.8748 68.7117 60.3617 68.6429 60.002 68.6429V68.6429ZM44.8333 68.8482H41.9262V66.3679H40.1294V68.8486H38.4716V70.4726H40.1294V74.2021C40.1294 76.0985 40.8656 77.2283 42.9678 77.2283C43.7389 77.2283 44.6275 76.9892 45.1914 76.5957L44.6784 75.0729C44.1483 75.3802 43.5665 75.5351 43.1047 75.5351C42.2161 75.5351 41.9262 74.9872 41.9262 74.1667V70.4731H44.8333V68.8482ZM18.2562 77.0226V71.8918C18.2562 69.96 17.0253 68.6604 15.0403 68.6429C13.9972 68.625 12.9202 68.9503 12.1665 70.0975C11.6031 69.1909 10.7144 68.6429 9.46512 68.6429C8.59239 68.6429 7.73908 68.899 7.07158 69.8564V68.8482H5.29224V77.0226H7.08702V72.491C7.08702 71.0718 7.87407 70.3181 9.08953 70.3181C10.2701 70.3181 10.8669 71.0878 10.8669 72.4736V77.0226H12.6642V72.491C12.6642 71.0718 13.4841 70.3181 14.6647 70.3181C15.8781 70.3181 16.4594 71.0878 16.4594 72.4736V77.0226H18.2562Z"
            fill="white" />
        <path
            d="M98.8821 49.8376V48.6431H98.5708L98.2106 49.463L97.852 48.6431H97.5392V49.8371H97.7603V48.937L98.0971 49.7141H98.3262L98.6629 48.935V49.8376H98.8821ZM96.907 49.8376V48.8468H97.306V48.6456H96.2883V48.8468H96.6878V49.8376H96.907Z"
            fill="#F79410" />
        <path d="M63.4904 54.9739H36.5522V6.56104H63.4904V54.9739Z" fill="#FF5F00" />
        <path
            d="M38.2785 30.7634C38.2785 20.9427 42.8763 12.1949 50.037 6.55752C44.6168 2.28347 37.9127 -0.0361618 31.0102 -0.0258446C14.0073 -0.0258446 0.224854 13.7591 0.224854 30.7639C0.224854 47.7688 14.0073 61.5527 31.0102 61.5527C37.9127 61.5632 44.6167 59.2437 50.037 54.9699C42.8763 49.3325 38.2785 40.5842 38.2785 30.7634Z"
            fill="#EB001B" />
        <path
            d="M99.8217 30.7634C99.8217 47.7683 86.0392 61.5532 69.0364 61.5532C62.1332 61.5633 55.4286 59.2437 50.0076 54.9699C57.1698 49.3325 61.7686 40.5842 61.7686 30.7634C61.7686 20.9427 57.1698 12.1949 50.0076 6.55752C55.4286 2.2837 62.1332 -0.0358715 69.0364 -0.0258465C86.0392 -0.0258465 99.8217 13.7591 99.8217 30.7639"
            fill="#F79E1B" />
    </g>
    <defs>
        <clipPath id="clip0">
            <rect width="100" height="77.5" fill="white" />
        </clipPath>
    </defs>
</svg>
