<svg width="24" height="15" viewBox="0 0 24 15" fill="none" xmlns="http://www.w3.org/2000/svg">
<path d="M24 7.97119C24 11.8373 20.8662 14.9712 17 14.9712C13.1338 14.9712 10 11.8373 10 7.97119C10 4.10504 13.1338 0.971191 17 0.971191C20.8662 0.971191 24 4.10504 24 7.97119Z" fill="#F44336"/>
<path d="M14 7.97119H10.0332C10.0332 7.60288 10.0687 7.24535 10.1236 6.89427H13.9074C13.8542 6.52916 13.7714 6.16899 13.6597 5.81735H10.3438C10.4645 5.44649 10.6158 5.08628 10.7961 4.74042H13.2047C13.0071 4.35812 12.7739 4.00004 12.5085 3.6635H11.4719C11.676 3.403 11.7617 3.20081 12 2.97119C11.8798 2.85265 11.6011 2.69518 11.4719 2.58658C10.2163 1.54124 8.63378 0.969578 7 0.971195C3.13385 0.971195 0 4.10504 0 7.97119C0 11.8373 3.13385 14.9712 7 14.9712C8.06267 14.9721 9.11147 14.73 10.0662 14.2633C11.0209 13.7967 11.8563 13.1179 12.5085 12.2789H11.4719C11.2075 11.9419 10.9745 11.5814 10.7757 11.202H13.2047C13.3856 10.859 13.5375 10.4993 13.6592 10.125H10.3438C10.2329 9.77314 10.1499 9.41305 10.0955 9.04811H13.9095C13.9645 8.69704 14 8.3395 14 7.97119Z" fill="#2196F3"/>
</svg>
