<svg width="28" height="11" viewBox="0 0 28 11" fill="none" xmlns="http://www.w3.org/2000/svg">
<path fill-rule="evenodd" clip-rule="evenodd" d="M27.9999 5.64774H26.5434C26.1039 5.64774 25.7846 5.75269 25.5585 5.91586V5.64774H23.4042C23.0597 5.64774 22.6553 5.73289 22.464 5.91586V5.64774H18.6169V5.91586C18.3108 5.69566 17.7941 5.64774 17.5557 5.64774H15.0181V5.91586C14.7759 5.682 14.2373 5.64774 13.9089 5.64774H11.069L10.4191 6.34894L9.81043 5.64774H5.56812V10.2292H9.73059L10.4002 9.5169L11.031 10.2292L13.5968 10.2315V9.15372H13.8491C14.1895 9.15897 14.591 9.14531 14.9452 8.99263V10.2291H17.0615V9.03501H17.1636C17.2939 9.03501 17.3067 9.04035 17.3067 9.17016V10.229H23.7357C24.1438 10.229 24.5705 10.1248 24.8067 9.93581V10.229H26.8459C27.2703 10.229 27.6847 10.1697 28 10.0178C28 -15.0487 27.9999 16.1429 27.9999 5.64774Z" fill="#006FCF"/>
<path fill-rule="evenodd" clip-rule="evenodd" d="M1.34475 4.57827L1.64795 3.84916H2.32673L2.62913 4.57827H5.27484V4.02084L5.511 4.58065H6.88445L7.12061 4.01253V4.57827H13.6957L13.6926 3.38143H13.8199C13.9089 3.3845 13.935 3.39271 13.935 3.53935V4.57827H17.3356V4.29966C17.6099 4.44619 18.0365 4.57827 18.5979 4.57827H20.0286L20.3348 3.84916H21.0136L21.313 4.57827H24.0699V3.88569L24.4874 4.57827H26.6967V0H24.5103V0.5407L24.2041 0H21.9606V0.5407L21.6794 0H18.649C18.1417 0 17.6958 0.0705949 17.3356 0.26733V0H15.2444V0.26733C15.0151 0.0645553 14.7028 0 14.3555 0H6.71533L6.20269 1.18249L5.67625 0H3.26978V0.5407L3.00541 0H0.953076L0 2.17676V4.57827H1.34475Z" fill="#006FCF"/>
<path fill-rule="evenodd" clip-rule="evenodd" d="M13.884 8.47813C14.5719 8.47813 15.2544 8.28981 15.2544 7.37772C15.2544 6.4684 14.5527 6.29602 13.9281 6.29602H11.4134L10.4124 7.37227L9.44411 6.29602H6.27881V9.57943H9.39614L10.4032 8.49248L11.3723 9.57943H12.902V8.47813H13.884ZM12.902 7.81131H13.919C14.2214 7.81131 14.4095 7.6617 14.4095 7.37774C14.4095 7.09061 14.2123 6.97516 13.9281 6.97516H12.902V7.81131ZM8.99771 8.89518H7.06276V8.24191H8.79055V7.572H7.06276V6.97506H9.03585L9.89666 7.9319L8.99771 8.89518ZM12.1181 9.28083L10.9098 7.94339L12.1181 6.64843V9.28083Z" fill="white"/>
<path fill-rule="evenodd" clip-rule="evenodd" d="M18.6201 8.32921C18.553 8.23357 18.4098 8.11802 18.2346 8.05357C18.4418 7.97159 18.7923 7.70416 18.7924 7.18009C18.7924 6.80553 18.6362 6.60058 18.3879 6.45097C18.1295 6.31355 17.8394 6.29602 17.4409 6.29602H15.624V9.57943H16.4148V8.3802H17.2558C17.5429 8.3802 17.7182 8.40832 17.8332 8.52595C17.9649 8.66338 17.9626 8.9141 17.9608 9.10687C17.9606 9.12825 17.9604 9.14891 17.9604 9.16863V9.57943H18.7505V8.92853C18.7474 8.63912 18.7313 8.48951 18.6201 8.32921ZM17.7593 7.64497C17.6541 7.70725 17.5239 7.71259 17.3707 7.71259H16.4147V6.97516H17.3837C17.5239 6.97516 17.6641 6.97813 17.7593 7.03447C17.8613 7.08763 17.9223 7.18932 17.9223 7.32982C17.9223 7.47031 17.8613 7.58348 17.7593 7.64497Z" fill="white"/>
<path d="M24.8608 7.84772C25.014 8.00584 25.0961 8.20545 25.0961 8.54338C25.0961 9.24972 24.6535 9.57943 23.8598 9.57943H22.327V8.87536H23.8537C24.0029 8.87536 24.1088 8.85566 24.1751 8.79407C24.2293 8.74328 24.2681 8.66952 24.2681 8.57991C24.2681 8.48427 24.2261 8.40832 24.1721 8.36278C24.1119 8.31268 24.0289 8.28991 23.8918 8.28991C23.8436 8.28827 23.7946 8.28694 23.7451 8.2856C23.0391 8.26646 22.2341 8.24464 22.2341 7.27366C22.2341 6.79741 22.5342 6.29612 23.3593 6.29612H24.937V6.99494H23.4934C23.3503 6.99494 23.2572 7.00029 23.1781 7.05425C23.0919 7.10742 23.0599 7.18633 23.0599 7.29049C23.0599 7.41435 23.1331 7.49861 23.2321 7.53505C23.3151 7.56386 23.4043 7.57227 23.5384 7.57227L23.962 7.58366C24.3892 7.59406 24.6825 7.66772 24.8608 7.84772Z" fill="white"/>
<path d="M28.0001 6.99473H26.5657C26.4225 6.99473 26.3274 7.00008 26.2472 7.05404C26.1642 7.10721 26.1322 7.18612 26.1322 7.29028C26.1322 7.41415 26.2023 7.4984 26.3043 7.53484C26.3874 7.56365 26.4765 7.57207 26.6076 7.57207L27.0342 7.58345C27.4646 7.59405 27.7519 7.66781 27.9271 7.84772C27.954 7.86886 27.9718 7.89219 27.9899 7.91586L27.9948 7.92226L27.998 7.92632L28.0001 7.929V9.15943C27.8089 9.43815 27.4364 9.57944 26.9321 9.57944H25.4122V8.87537H26.9259C27.0761 8.87537 27.1811 8.85566 27.2444 8.79408C27.2992 8.74329 27.3375 8.66952 27.3375 8.57992C27.3375 8.48427 27.2992 8.40833 27.2413 8.36279C27.1842 8.31269 27.1011 8.28991 26.9641 8.28991C26.9157 8.28828 26.8666 8.28695 26.817 8.28561C26.1084 8.26647 25.3032 8.24472 25.3032 7.27366C25.3032 6.79742 25.6065 6.29613 26.4323 6.29613H28L28.0001 6.99473Z" fill="white"/>
<path d="M19.2288 6.29602H21.8555V6.97504H20.0126V7.57198H21.8105V8.24189H20.0126V8.89516L21.8555 8.89813V9.57943H19.2288V6.29602Z" fill="white"/>
<path fill-rule="evenodd" clip-rule="evenodd" d="M2.52376 2.51215L1.9851 1.20352L1.44953 2.51215H2.52376ZM14.3903 1.99109C14.2821 2.05653 14.1542 2.05871 14.001 2.05871H13.0449V1.32959H14.014C14.1512 1.32959 14.2943 1.33573 14.3872 1.3888C14.4893 1.43663 14.5525 1.53841 14.5525 1.67901C14.5525 1.82247 14.4924 1.93792 14.3903 1.99109ZM21.2107 2.51215L20.6661 1.20352L20.1244 2.51215H21.2107ZM8.49704 3.92861H7.69025L7.68727 1.35769L6.5461 3.92861H5.8551L4.71096 1.35541V3.92861H3.11028L2.80788 3.19642H1.16927L0.863793 3.92861H0.0090332L1.41834 0.645996H2.58761L3.92611 3.75396V0.645996H5.21058L6.24053 2.87286L7.18665 0.645996H8.49694V3.92861H8.49704ZM11.7126 3.92861H9.08358V0.645996H11.7126V1.32957H9.87061V1.92126H11.6684V2.59414H9.87061V3.24969H11.7126V3.92861ZM15.4194 1.53007C15.4194 2.05344 15.0691 2.32384 14.8649 2.40503C15.0371 2.47038 15.1842 2.58582 15.2542 2.68147C15.3653 2.84474 15.3845 2.99058 15.3845 3.28375V3.92861H14.5907L14.5877 3.51465C14.5877 3.31712 14.6067 3.03306 14.4635 2.87513C14.3485 2.75969 14.1732 2.73464 13.8899 2.73464H13.045V3.92861H12.2581V0.645996H14.0682C14.4704 0.645996 14.7668 0.65659 15.0212 0.803226C15.2702 0.949861 15.4194 1.16392 15.4194 1.53007ZM16.6789 3.92861H15.8759V0.645996H16.6789V3.92861ZM25.9949 3.92861H24.8797L23.388 1.46482V3.92861H21.7852L21.4789 3.19642H19.8441L19.547 3.92861H18.6261C18.2435 3.92861 17.7592 3.84425 17.4849 3.56554C17.2083 3.28682 17.0644 2.90929 17.0644 2.31235C17.0644 1.82552 17.1504 1.38046 17.4887 1.02877C17.7431 0.76679 18.1415 0.645996 18.6839 0.645996H19.4458V1.34937H18.6998C18.4126 1.34937 18.2505 1.39195 18.0942 1.54383C17.9601 1.68205 17.868 1.94334 17.868 2.2874C17.868 2.63909 17.9381 2.89266 18.0844 3.0583C18.2056 3.18821 18.4257 3.22761 18.6329 3.22761H18.9863L20.0955 0.646095H21.2747L22.6072 3.75099V0.646095H23.8055L25.1888 2.93226V0.646095H25.9949V3.92861Z" fill="white"/>
</svg>
