<?xml version="1.0" encoding="UTF-8"?>
<svg width="336px" height="54px" viewBox="0 0 336 54" version="1.1"
    xmlns="http://www.w3.org/2000/svg">
    <title>ru-bank</title>
    <g id="Page-1" stroke="none" stroke-width="1" fill="none" fill-rule="evenodd">
        <g id="ru-bank" fill="#FFFFFF" fill-rule="nonzero">
            <g id="Group" transform="translate(15.882000, 9.530000)">
                <path
                    d="M202.682647,14.1259235 L194.562,14.1259235 L194.562,7.19724706 L212.070706,7.19724706 L212.070706,2.01612176 L187.845353,2.01612176 L187.845353,33.0373588 L201.821824,33.0373588 C209.662941,33.0373588 214.157647,29.4859059 214.157647,23.2919471 C214.157647,17.3900647 210.106059,14.1259235 202.682647,14.1259235 L202.682647,14.1259235 Z M201.520059,27.8938588 L194.562,27.8938588 L194.562,19.2930882 L201.543882,19.2930882 C205.782882,19.2930882 207.769765,20.7061412 207.769765,23.5933941 C207.769765,26.4808059 205.651059,27.8938588 201.520059,27.8938588 L201.520059,27.8938588 Z"
                    id="Shape"></path>
                <polygon id="Path"
                    points="296.241 32.998 289.453 32.998 289.453 1.972 296.241 1.972 296.241 14.981 299.938 14.981 309.909 1.953 317.606 1.953 305.769 16.729 319.508 32.998 310.503 32.998 300.404 20.794 296.241 20.794"></polygon>
                <path
                    d="M240.303176,26.9309118 L226.055118,26.9309118 L223.634647,32.9128412 L216.465353,32.9128412 L229.838294,2.12721882 L237.006,2.12721882 L250.143882,32.9128412 L242.725235,32.9128412 L240.303176,26.9309118 Z M238.062176,21.3447706 L233.224412,9.38091176 L228.339,21.3447706 L238.062176,21.3447706 Z"
                    id="Shape"></path>
                <polygon id="Path"
                    points="261.754 2.127 261.754 14.981 275.695 14.981 275.695 2.127 282.644 2.127 282.644 32.913 275.695 32.913 275.695 20.775 261.754 20.775 261.754 32.913 254.807 32.913 254.807 2.127"></polygon>
                <polygon id="Path"
                    points="136.136 7.129 143.16 1.955 119.648 1.955 119.648 33.043 143.16 33.043 143.16 27.87 126.36 27.87 126.36 19.906 140.686 19.906 140.686 14.733 126.36 14.733 126.36 7.129"></polygon>
                <path
                    d="M101.902288,14.0722412 L93.7409824,14.0722412 L93.7409824,7.12879412 L106.773724,7.12879412 L113.797535,1.93644 L87.0333882,1.93644 L87.0333882,33.0241765 L101.038447,33.0241765 C108.897829,33.0241765 113.400953,29.4651 113.400953,23.2579588 C113.400953,17.3433706 109.317918,14.0722412 101.902288,14.0722412 L101.902288,14.0722412 Z M100.736365,27.8697176 L93.7409824,27.8697176 L93.7409824,19.2503647 L100.736365,19.2503647 C104.984735,19.2503647 106.9767,20.6664353 106.9767,23.5600412 C106.9767,26.4536471 104.8761,27.8697176 100.736365,27.8697176 Z M162.200118,1.95524471 L149.402118,1.95524471 L149.402118,33.0430765 L156.133059,33.0430765 L156.133059,24.2396471 L162.222353,24.2396471 C170.393824,24.2396471 175.468235,19.9442647 175.468235,13.0808647 C175.468235,6.21765529 170.37,1.95524471 162.200118,1.95524471 L162.200118,1.95524471 Z M162.057176,19.0615235 L156.133059,19.0615235 L156.133059,7.12863529 L162.081,7.12863529 C166.381941,7.12863529 168.746824,9.24813529 168.746824,13.0951588 C168.746824,16.9421824 166.358118,19.0615235 162.057176,19.0615235 Z M75.5151882,26.3118176 C73.7377941,27.2763529 71.7455118,27.7763294 69.7233706,27.7655294 C63.6766412,27.7655294 59.2867588,23.4464824 59.2867588,17.4990176 C59.2867588,11.5513941 63.6766412,7.23234706 69.7233706,7.23234706 C71.9071941,7.19327647 74.0462294,7.85509412 75.8266412,9.12044118 L80.6366118,5.57083059 L80.3203941,5.29233353 C77.5117588,2.82362824 73.7544706,1.51611353 69.4636941,1.51611353 C64.8095294,1.51611353 60.5848235,3.08797412 57.5686059,5.93901529 C54.4847294,8.90571176 52.7745176,13.0221 52.8483706,17.3008059 C52.7835706,21.6195353 54.4752,25.7796 57.5355706,28.8275824 C60.5706882,31.7920235 64.7858647,33.4252059 69.4069941,33.4252059 C74.2453941,33.4252059 78.4653353,31.7400882 81.3305118,28.6719353 L76.9878,25.4714824 L75.5151882,26.3118176 Z M32.4859235,0.964344706 C33.7617529,2.61175765 34.8517588,4.41105353 35.7219529,6.33184941 L11.1187588,24.4623176 L0.840652941,18.0191647 L0.840652941,10.2681 L11.1187588,16.7112529 L32.4859235,0.964344706 Z"
                    id="Shape"></path>
            </g>
            <path
                d="M6.23615824,27.0001588 C6.23615824,26.6518588 6.24508412,26.3068941 6.26295176,25.9620882 L0.0339507529,25.6512706 C0.0125084647,26.0978824 0,26.5481471 0,27.0001588 C0,34.4564471 3.02158588,41.2069235 7.90864941,46.0920176 L12.32577,41.6751353 C8.56443176,37.9156235 6.23615824,32.7251118 6.23615824,27.0001588 L6.23615824,27.0001588 Z"
                id="Path"></path>
            <path
                d="M26.9996824,6.23766706 C27.3481412,6.23766706 27.6929471,6.25018235 28.0379118,6.26625529 L28.3487294,0.0339493235 C27.9019588,0.0125079247 27.4516941,0 26.9996824,0 C19.5430765,0 12.79233,3.02144294 7.90706118,7.9083 L12.3241818,12.3252459 C16.0837412,8.56584529 21.2763176,6.23766706 26.9996824,6.23766706 Z"
                id="Path"></path>
            <path
                d="M26.9996824,47.7641118 C26.6512235,47.7641118 26.3064176,47.7550588 25.9616118,47.7372706 L25.6506353,53.9660118 C26.0974059,53.9874529 26.5476706,54 26.9996824,54 C34.4562882,54 41.2070824,50.9785412 46.0923353,46.0917 L41.6751353,41.6746588 C37.9156235,45.4340118 32.7247941,47.7641118 26.9996824,47.7641118 Z"
                id="Path"></path>
            <path
                d="M38.7057706,9.86127353 L43.9572706,5.99109353 C39.3221647,2.24598706 33.4237765,-8.8817842e-16 27,-8.8817842e-16 L27,6.23766706 C31.3403294,6.23766706 35.3714294,7.57596176 38.7057706,9.86127353 Z"
                id="Path"></path>
            <path
                d="M53.9998412,27.0001588 C53.9998412,25.3491882 53.8516588,23.7322059 53.5675235,22.1633471 L47.7549,26.4463412 C47.7601412,26.6302588 47.7620471,26.8143353 47.7620471,27.0001588 C47.7620471,33.0967588 45.1209706,38.5874471 40.9218353,42.3898412 L45.1120765,47.0211353 C50.571,42.0825176 53.9998412,34.9424471 53.9998412,27.0001588 L53.9998412,27.0001588 Z"
                id="Path"></path>
            <path
                d="M27.0012706,47.7639529 C20.9045118,47.7639529 15.4135376,45.1231941 11.6110959,40.9242176 L6.97954765,45.1141412 C11.92023,50.571 19.0605706,53.9998412 27.0012706,53.9998412 L27.0012706,47.7639529 Z"
                id="Path"></path>
            <path
                d="M13.0762747,11.6105082 L8.88608118,6.97916647 C3.429,11.9196265 -1.77635684e-15,19.0596176 -1.77635684e-15,27.0001588 L6.23793706,27.0001588 C6.23615824,20.9035588 8.87713941,15.4127912 13.0762747,11.6105082 Z"
                id="Path"></path>
        </g>
    </g>
</svg>