<svg xmlns="http://www.w3.org/2000/svg" width="306" height="50" viewBox="0 0 306 50">
    <path fill="#FFF"
        d="M305.041506 10.1441171L300.012592 24.0924754 305.827274 39.669123 298.067816 39.669123 294.19791 27.8591206 292.744239 27.8591206 292.744239 39.669123 286.124145 39.669123 286.124145 10.1441171 292.744239 10.1441171 292.744239 20.7966607 294.19791 20.7966607 297.910663 10.1441171 305.041506 10.1441171zM281.763133 10.1441171L281.763133 39.669123 275.123394 39.669123 275.123394 27.8591206 270.448075 27.8591206 270.448075 39.669123 263.808337 39.669123 263.808337 10.1441171 270.448075 10.1441171 270.448075 20.7966607 275.123394 20.7966607 275.123394 10.1441171 281.763133 10.1441171zM240.863915 39.669123L246.383934 10.1441171 254.948804 10.1441171 260.763486 39.669123 253.966594 39.669123 253.161182 34.5880754 248.466219 34.5880754 247.660807 39.669123 240.863915 39.669123zM250.902099 19.1683714L249.625226 28.1926257 252.198616 28.1926257 250.902099 19.1683714zM222.437658 39.669123L222.437658 10.1441171 237.956573 10.1441171 237.956573 17.186959 229.077396 17.186959 229.077396 21.1105478 230.21676 21.1105478C233.929513 21.1105478 239.587042 22.444568 239.587042 29.9778586 239.587042 39.0217308 232.318689 39.669123 230.531067 39.669123L222.437658 39.669123zM229.057752 33.7445038L230.020318 33.7445038C230.82573 33.7445038 232.927659 33.2540552 232.927659 30.1348021 232.927659 27.015549 230.82573 27.015549 230.020318 27.015549L229.057752 27.015549 229.057752 33.7445038zM217.899848 39.669123L211.1226 39.669123 211.1226 21.6206144 207.075896 26.8782234 203.029191 21.6206144 203.029191 39.669123 196.409097 39.669123 196.409097 10.1441171 202.066625 10.1441171 207.075896 17.206577 212.242319 10.1441171 217.899848 10.1441171 217.899848 39.669123zM182.501005 39.9830101C174.42724 39.9830101 171.834206 32.4497195 171.834206 24.8968111 171.834206 17.3439026 174.584394 9.81061205 182.501005 9.81061205 190.417617 9.81061205 193.167804 17.3635205 193.167804 24.8968111 193.167804 32.4497195 190.417617 39.9830101 182.501005 39.9830101zM182.501005 32.9401681C184.760088 32.9401681 186.056605 30.174038 186.056605 24.916429 186.056605 19.6980559 184.917241 16.8926899 182.501005 16.8926899 180.241922 16.8926899 178.945405 19.65882 178.945405 24.916429 178.945405 30.1348021 180.084769 32.9401681 182.501005 32.9401681zM152.28823 39.669123L152.28823 10.1244992 161.344205 10.1244992C167.649992 10.1244992 170.066228 16.2060618 170.066228 19.9727071 170.066228 23.9159139 167.964299 29.9778586 161.344205 29.9778586L159.085122 29.9778586 159.085122 39.669123 152.28823 39.669123zM158.908324 16.6965104L158.908324 23.5627909 160.519149 23.5627909C161.324561 23.5627909 162.935385 23.2489038 162.935385 20.1296506 162.935385 17.6774076 161.972819 16.6965104 160.519149 16.6965104L158.908324 16.6965104zM136.769314 17.206577L136.769314 39.669123 129.972422 39.669123 129.972422 10.1441171 148.398679 10.1441171 148.398679 39.669123 141.601787 39.669123 141.601787 17.206577 136.769314 17.206577zM116.241128 21.6206144C117.380492 21.6206144 119.305623 20.9732222 119.305623 18.6583048 119.305623 16.0295003 117.046541 15.8529388 116.398282 15.8529388 115.59287 15.8529388 114.139199 16.0098824 112.685529 16.6768925L112.685529 10.2814427C114.944611 9.63405056 116.57508 9.45748906 118.500211 9.45748906 123.980942 9.45748906 126.416823 13.4006958 126.416823 17.1673411 126.416823 20.9339864 124.314893 23.2292858 122.212964 24.0532395L122.212964 24.3867445C124.15774 25.0341367 126.907927 27.015549 126.907927 31.4295864 126.907927 37.0010826 123.018376 40.1203357 118.185904 40.1203357 115.59287 40.1203357 113.824892 39.7868306 111.880117 38.6489899L112.03727 32.5870451C113.982046 33.4109988 115.278563 33.4109988 116.555436 33.4109988 118.657365 33.4109988 119.61993 31.7630915 119.61993 30.6056328 119.61993 28.9577255 118.657365 27.8002668 116.221484 27.8002668L113.471297 27.8002668 113.471297 21.5617606 116.221484 21.5617606 116.241128 21.5617606 116.241128 21.6206144zM89.7214624 39.669123L95.2218376 10.1441171 103.806352 10.1441171 109.621034 39.669123 102.824142 39.669123 102.01873 34.5880754 97.3237667 34.5880754 96.5183546 39.669123 89.7214624 39.669123zM99.7596471 18.9918099L98.4631301 28.0160642 101.056164 28.0160642 99.7596471 18.9918099zM76.618783 39.669123L76.618783 10.1441171 90.5465187 10.1441171 90.5465187 17.5204641 83.5728287 17.5204641 83.5728287 39.669123 76.618783 39.669123zM1.96748562 15.7188339C10.3652901 10.143754 19.7548353 6.85301917 35.7506534 9.64854633 36.5664401 9.15333866 37.0463147 8.65813099 37.3662311 7.52394569 33.3352849 6.03832268 29.1283847 5.55908946 23.4658651 5.71883387 18.4591741 5.87857827 9.40554104 7.6836901 4.71876634 10.6389617L6.17438578 8.67410543C9.56549922 6.7092492 18.2992159 4.08944089 24.9214846 3.91372204 29.6082593 3.75397764 32.0396236 4.07346645 37.5261892 5.55908946 37.0463147 4.56867412 35.9106116 4.07346645 34.295034 3.43448882 28.6325144.97442492 18.7790904.814680511 10.5252483 4.42490415 11.5009932 3.76995208 12.6207005 3.115 13.9163617 2.46004792 16.6676424 1.13416933 21.0345008-.0000159744404 26.5210664.159728435 30.8879247.159728435 36.054574 1.80509585 39.2857292 5.07985623 39.7656038 5.73480831 40.1015159 6.40573482 40.2614741 6.88496805 42.8527967 8.21084665 44.2924203 9.34503195 45.108207 10.8146805 45.4441192 11.4696326 45.5880815 12.3003035 45.4441192 13.2747444 46.5798223 13.9296965 47.0596968 14.4249042 47.5395714 15.0798562 47.8754835 15.7348083 48.1794041 16.3897604 48.1794041 16.8849681 48.3393623 17.715639 48.3393623 18.5303355 47.5395714 19.6804952 48.3553581 20.1757029 49.155149 21.3258626 49.155149 21.8050958 49.4910612 23.7699521 48.3393623 25.5750639 46.7397804 27.0606869 44.8042865 28.7060543 40.7573445 30.6709105 37.3662311 31.485607 30.7439624 33.1309744 24.9214846 33.9456709 20.2347099 34.7763419 22.330162 35.2715495 25.2414009 35.9265016 29.7682175 35.9265016 39.6376372 35.9265016 48.5153163 31.1661182 48.5153163 31.1661182 48.5153163 31.1661182 48.3553581 31.8210703 48.1794041 32.316278 41.8770518 36.2459904 31.8476738 37.8913578 27.6407737 37.571869 23.2739153 37.4121246 19.7228437 36.7411981 15.9958181 35.6070128 14.860115 35.942476 13.9003659 36.2619649 12.7646628 36.7571725 18.2512284 39.2172364 22.2981704 39.8721885 26.9849451 40.1916773 31.6717198 40.5271406 39.5896498 39.3610064 46.2279143 36.9009425 45.8920021 37.2364058 45.7480397 37.7316134 45.4121275 38.0511022 42.0210141 39.8562141 34.9028751 41.6613259 31.1918453 41.8210703 27.6407737 41.9808147 23.2739153 41.8210703 19.3869315 41.1661182 16.1557763 40.5111661 13.4044956 39.5207508 10.6532148 38.2108466 10.1733403 38.5463099 9.83742812 39.0415176 9.83742812 39.6964696 20.842551 45.4472684 31.0158913 45.6070128 42.644851 41.9967891L41.6691061 43.1469489C28.9044433 48.4025399 18.8750653 46.4376837 11.1170936 42.6517412 10.7811814 42.4919968 10.637219 42.4919968 10.3013068 42.316278 10.9411396 43.6261821 16.9235755 47.8913578 23.56184 48.5622843 28.0886566 48.8977476 33.7511762 48.0670767 36.9823314 46.7571725L35.0468374 47.7475879C33.4312598 48.5782588 29.2243596 50.3673962 23.2419237 49.8721885 15.3239937 49.3769808 10.9571354 45.7667572 8.8456874 43.9616454 7.8699425 43.1309744 7.55002614 42.1565335 7.23010978 40.8466294 5.45457397 39.8562141 4.31887088 38.8817732 3.34312598 37.4121246 2.86325144 36.5814537 3.0072138 35.6070128 3.1831678 34.7923163 3.1831678 34.456853 3.34312598 34.2971086 3.34312598 34.1373642 2.52733926 33.4824121 1.56759017 32.8274601 1.24767381 32.172508.431887088 30.686885.911761631 29.5526997 1.40763199 28.5622843.927757449 28.0670767.431887088 27.4121246.271928907 26.9169169.111970727 26.2619649-.0639832723 25.6070128.111970727 24.9520607.271928907 23.801901.927757449 22.6517412 1.72754835 21.6613259 3.50308416 19.6964696 6.09440669 18.0511022 10.7811814 16.5814537 15.3079979 15.0958307 17.0835337 14.7763419 20.6506012 13.9616454 24.6815473 12.97123 29.3843178 12.6357668 33.415264 11.3418371 22.2661788 9.21723642 10.7811814 11.0063738 1.24767381 17.5878435L1.88750653 15.7827316 1.96748562 15.7188339zM39.9255619 8.72202875C39.7656038 9.21723642 39.1097752 9.8721885 38.7898589 10.3673962 40.0855201 10.7028594 41.2052274 11.1980671 42.3409305 11.6932748 42.3409305 10.5271406 41.0452692 9.53672524 39.9255619 8.72202875zM5.50256142 31.3418371C4.8627287 31.0063738 4.36685834 30.686885 3.72702561 30.1916773 3.39111343 30.8466294 4.06293779 31.6773003 4.70277052 32.1565335 5.00669106 31.8370447 5.32660742 31.6773003 5.50256142 31.3418371zM43.3166754 16.5814537C44.1324621 16.9169169 44.7722948 17.2364058 45.5880815 17.7316134 46.0679561 16.7411981 45.7480397 16.086246 44.7722948 15.2715495 44.2924203 15.7667572 43.8125457 16.2619649 43.3166754 16.5814537zM40.9013068 18.0670767C39.2857292 18.8977476 36.8703607 19.7124441 33.6232096 20.5271406 30.8719289 21.1820927 24.2496602 22.172508 16.971563 23.8178754 14.7001568 24.3130831 8.57375849 25.7827316 5.50256142 28.4025399 6.31834814 29.057492 6.79822269 29.2332109 7.77396759 29.7124441 9.06962886 28.8817732 10.6852065 28.0670767 13.2605332 27.4121246 17.6273915 26.2619649 21.018505 25.7667572 24.9054888 25.1118051 28.7924726 24.456853 36.2145321 22.9872045 40.4214323 21.3418371 41.7170936 20.8466294 43.0127548 20.1916773 43.9725039 19.5367252 43.6365917 19.201262 40.9013068 17.8913578 40.9013068 18.0670767zM9.70946158 35.6070128C10.3492943 35.2715495 11.0051228 34.9520607 11.8049137 34.456853 10.6692107 33.9616454 9.53350758 33.4664377 8.25384213 32.8114856 7.77396759 33.1469489 7.27809723 33.4664377 6.79822269 33.9616454 7.93392577 34.4728275 8.89367486 34.9520607 9.70946158 35.6070128zM5.98243596 35.942476C5.98243596 36.773147 6.46231051 37.428099 7.43805541 38.2427955 7.59801359 37.9073323 7.77396759 37.5878435 8.07788813 37.0926358 7.26210141 36.773147 6.62226869 36.2779393 5.98243596 35.942476zM11.4690016 21.9967891C19.5468897 19.5367252 28.1206482 18.8817732 36.6944067 16.5814537 33.3032933 15.5910383 31.5277574 15.2555751 27.96069 15.7507827 22.7940408 16.4057348 17.1315212 17.5558946 12.2847883 19.0415176 10.3492943 19.6964696.319916362 22.4760224 3.23115525 26.5814537 3.23115525 26.4376837 5.02268688 23.9776198 11.4690016 21.9967891zM41.8610559 13.6261821C40.5653947 12.97123 38.949817 12.4760224 37.1742812 11.9808147 36.3584945 12.6357668 35.5587036 13.1309744 34.1030842 13.6261821 36.3744903 13.9616454 37.990068 14.6165974 39.7656038 15.1118051 40.0855201 15.4472684 41.7010978 13.9616454 41.8610559 13.6261821zM45.8920021 21.5175559C45.5560899 21.6773003 45.4121275 22.0127636 45.0762154 22.172508 43.3006796 23.658131 40.3894407 24.7923163 36.3424987 25.7827316 27.9446942 28.0830511 21.9462624 28.4025399 15.1640355 30.0638818 13.8683743 30.399345 12.4127548 30.8945527 11.1330894 31.3897604 12.4287507 32.0447125 13.8843701 32.6996645 15.1640355 33.1948722 17.9153163 32.3642013 19.3709357 32.0447125 23.4018819 31.3897604 25.0174595 31.0542971 29.7042342 30.2396006 33.0953476 29.5846486 39.2697334 28.2268211 48.3073706 25.4472684 45.8920021 21.5175559L45.9079979 21.5175559 45.8920021 21.5175559z" />
</svg>
