<?xml version="1.0" encoding="UTF-8"?>
<svg width="133px" height="65px" viewBox="0 0 133 65" version="1.1"
    xmlns="http://www.w3.org/2000/svg">
    <!-- Generator: Sketch 55.2 (78181) - https://sketchapp.com -->
    <title>ru-qiwi</title>
    <desc>Created with Sketch.</desc>
    <g id="Page-1" stroke="none" stroke-width="1" fill="none" fill-rule="evenodd">
        <g id="ru-qiwi" fill-rule="nonzero">
            <g id="Group" fill="#F49600">
                <path
                    d="M49.6,45.09375 C49.5194805,44.60625 49.1168831,43.63125 48.5532468,43.3875 C47.9090909,43.14375 47.9090909,43.875 48.0701299,44.3625 C48.3922078,45.5 48.8753247,46.3125 49.1974026,46.475 C49.438961,46.6375 49.8415584,46.23125 49.6,45.09375 Z"
                    id="Path"></path>
                <path
                    d="M44.7688312,46.23125 C44.5272727,45.825 44.1246753,45.58125 43.7220779,45.41875 C43.7220779,45.41875 43.7220779,45.41875 43.7220779,45.41875 C43.7220779,45.41875 43.7220779,45.41875 43.6415584,45.41875 C43.6415584,45.41875 43.6415584,45.41875 43.561039,45.41875 C43.561039,45.41875 43.561039,45.41875 43.561039,45.41875 C43.561039,45.41875 43.4805195,45.41875 43.4805195,45.41875 L43.4805195,45.41875 C43.0779221,45.3375 42.7558442,45.41875 42.4337662,45.58125 C41.7090909,46.06875 41.6285714,47.20625 42.1922078,48.1 C42.4337662,48.50625 42.8363636,48.75 43.238961,48.9125 C43.238961,48.9125 43.238961,48.9125 43.238961,48.9125 C43.238961,48.9125 43.238961,48.9125 43.3194805,48.9125 C43.3194805,48.9125 43.3194805,48.9125 43.4,48.9125 C43.4,48.9125 43.4,48.9125 43.4,48.9125 C43.4,48.9125 43.4805195,48.9125 43.4805195,48.9125 L43.4805195,48.9125 C43.8831169,48.99375 44.2051948,48.9125 44.5272727,48.75 C45.2519481,48.2625 45.3324675,47.125 44.7688312,46.23125 Z"
                    id="Path"></path>
                <g id="Path">
                    <path
                        d="M48.8753247,53.05625 C50.0025974,53.4625 51.2909091,53.95 52.4987013,54.6 C55.8805195,56.63125 58.9402597,59.23125 60.7116883,62.80625 C61.5168831,64.43125 61.2753247,64.675 61.1948052,64.675 C60.8727273,64.8375 60.7922078,64.5125 60.7922078,64.5125 C60.3896104,63.5375 59.6649351,62.725 59.6649351,62.725 C51.4519481,52.89375 39.6155844,53.95 36.1532468,55.0875 C27.0545455,58.0125 11.1116883,54.7625 4.26753247,44.2 C-4.02597403,31.3625 0.161038961,13.73125 13.6883117,4.95625 C27.1350649,-3.81875 44.7688312,-0.56875 53.0623377,12.26875 C59.5844156,22.34375 58.3766234,35.34375 50.9688312,44.76875 C50.7272727,43.30625 50.0831169,41.7625 49.1168831,40.4625 C49.0363636,40.3 48.9558442,40.21875 48.8753247,40.1375 C48.4727273,39.65 48.0701299,39.24375 47.6675325,38.8375 C47.8285714,38.35 47.9896104,37.94375 48.1506494,37.45625 C50.0025974,31.28125 48.8753247,23.64375 44.5272727,17.14375 C37.6025974,6.74375 24.638961,2.68125 16.1844156,8.45 C7.64935065,14.21875 5.39480519,27.21875 11.7558442,38.025 C15.2181818,43.875 22.787013,48.66875 31.4025974,49.075 C30.4363636,46.39375 30.9194805,44.44375 30.9194805,44.44375 C30.838961,44.76875 31.5636364,45.58125 31.6441558,45.74375 C32.3688312,46.8 33.2545455,47.85625 34.3012987,48.5875 C36.3142857,49.96875 38.2467532,51.025 40.6623377,51.43125 C43.7220779,52 46.2181818,52.1625 48.8753247,53.05625 Z"></path>
                    <path
                        d="M47.6675325,38.8375 C47.6675325,38.8375 44.7688312,35.83125 41.0649351,36.2375 C41.0649351,36.2375 44.4467532,34.85625 48.1506494,37.61875"></path>
                </g>
            </g>
            <g id="Group" transform="translate(71.000000, 14.000000)" fill="#004B93">
                <path
                    d="M17.5532468,25.1181818 C18.1974026,25.2818182 18.6805195,25.3636364 18.6805195,26.0181818 C18.6805195,26.3454545 18.5194805,26.8363636 17.7142857,26.8363636 C17.1506494,26.8363636 9.98441558,26.0181818 7.81038961,20.6181818 C2.41558442,19.7181818 0.322077922,15.1363636 0.322077922,10.6363636 C0.322077922,3.76363636 4.26753247,0.245454545 9.01818182,0.245454545 C14.1714286,0.245454545 17.6337662,4.41818182 17.6337662,10.3909091 C17.6337662,13.6636364 16.425974,18.4909091 11.5948052,20.3727273 C12.4805195,23.4818182 15.8623377,24.7090909 17.5532468,25.1181818 Z M12.4805195,4.66363636 C11.2727273,2.7 9.58181818,2.53636364 8.93766234,2.53636364 C7.64935065,2.53636364 6.2,3.27272727 5.31428571,4.74545455 C4.34805195,6.3 4.10649351,8.50909091 4.10649351,10.3909091 C4.10649351,12.1090909 4.34805195,14.4 5.31428571,16.1181818 C6.68311688,18.4090909 8.61558442,18.4090909 8.93766234,18.4090909 C10.3064935,18.4090909 11.7558442,17.6727273 12.7220779,15.9545455 C13.6883117,14.2363636 13.8493506,11.9454545 13.7688312,10.3090909 C13.8493506,9 13.6883117,6.46363636 12.4805195,4.66363636 Z"
                    id="Shape"></path>
                <path
                    d="M26.4103896,19.6363636 C26.4103896,20.2090909 26.1688312,20.2090909 25.8467532,20.2090909 L23.2701299,20.2090909 C22.8675325,20.2090909 22.7064935,20.1272727 22.7064935,19.6363636 L22.7064935,1.30909091 C22.7064935,0.9 22.787013,0.736363636 23.2701299,0.736363636 L25.8467532,0.736363636 C26.2493506,0.736363636 26.4103896,0.818181818 26.4103896,1.30909091 L26.4103896,19.6363636 Z"
                    id="Path"></path>
                <path
                    d="M42.2727273,7.93636364 L38.6493506,19.7181818 C38.4883117,20.1272727 38.4883117,20.2090909 38.1662338,20.2090909 C38.0857143,20.2090909 37.361039,20.2090909 36.9584416,20.2090909 C36.4753247,20.2090909 36.3142857,20.1272727 36.1532468,19.7181818 L31.0805195,1.55454545 C31,1.22727273 31,1.22727273 31,1.14545455 C31,0.818181818 31.2415584,0.736363636 31.5636364,0.736363636 L34.1402597,0.736363636 C34.6233766,0.736363636 34.7038961,0.736363636 34.8649351,1.30909091 L38.0051948,13.9909091 L41.7896104,1.30909091 C41.9506494,0.9 41.9506494,0.736363636 42.2727273,0.736363636 L43.3194805,0.736363636 C43.4805195,0.818181818 43.561039,0.818181818 43.7220779,1.39090909 L47.5064935,13.9090909 L50.6467532,1.22727273 C50.7272727,0.818181818 50.8883117,0.654545455 51.2909091,0.654545455 L53.1428571,0.654545455 C53.4649351,0.654545455 53.7064935,0.654545455 53.7064935,0.981818182 C53.7064935,1.06363636 53.7064935,1.22727273 53.625974,1.47272727 L48.6337662,19.6363636 C48.4727273,20.0454545 48.3922078,20.2090909 48.0701299,20.2090909 L46.7012987,20.2090909 C46.4597403,20.2090909 46.3792208,20.1272727 46.2181818,19.7181818 L42.2727273,7.93636364 Z"
                    id="Path"></path>
                <path
                    d="M62,19.6363636 C62,20.2090909 61.7584416,20.2090909 61.4363636,20.2090909 L58.8597403,20.2090909 C58.4571429,20.2090909 58.2961039,20.1272727 58.2961039,19.6363636 L58.2961039,1.30909091 C58.2961039,0.9 58.3766234,0.736363636 58.8597403,0.736363636 L61.4363636,0.736363636 C61.838961,0.736363636 62,0.818181818 62,1.30909091 L62,19.6363636 Z"
                    id="Path"></path>
            </g>
            <g id="Group" transform="translate(93.000000, 38.000000)" fill="#004B93">
                <g transform="translate(19.500000, 0.000000)">
                    <path
                        d="M4.875,0.96 C4.95625,0.8 4.95625,0.8 5.11875,0.8 L5.6875,0.8 C5.85,0.8 5.85,0.8 5.85,0.96 L5.85,7.04 C5.85,7.2 5.85,7.2 5.6875,7.2 C5.525,7.2 5.2,7.2 5.2,7.2 C5.11875,7.2 5.11875,7.12 5.11875,7.04 L5.11875,2 L1.4625,7.04 C1.38125,7.12 1.38125,7.2 1.21875,7.2 L0.89375,7.2 C0.8125,7.2 0.73125,7.2 0.73125,7.04 L0.73125,0.96 C0.73125,0.8 0.73125,0.8 0.89375,0.8 L1.38125,0.8 C1.4625,0.8 1.4625,0.88 1.4625,0.96 L1.4625,5.68 L4.875,0.96 Z"
                        id="Path"></path>
                    <path
                        d="M5.11875,0.72 C4.95625,0.72 4.95625,0.72 4.875,0.88 L4.875,0.88 C4.875,0.88 1.625,5.28 1.4625,5.52 C1.4625,5.28 1.4625,0.96 1.4625,0.96 C1.4625,0.8 1.4625,0.8 1.3,0.72 L0.8125,0.72 C0.65,0.72 0.65,0.8 0.65,0.96 L0.65,7.04 C0.65,7.2 0.73125,7.28 0.8125,7.28 L1.1375,7.28 C1.21875,7.28 1.3,7.2 1.38125,7.12 C1.38125,7.12 4.46875,2.88 5.0375,2.16 C5.0375,2.4 5.0375,7.04 5.0375,7.04 C5.0375,7.12 5.0375,7.2 5.11875,7.28 C5.11875,7.28 5.11875,7.28 5.60625,7.28 C5.76875,7.28 5.76875,7.2 5.76875,7.04 L5.76875,0.96 C5.76875,0.8 5.6875,0.72 5.525,0.72 L5.11875,0.72 L5.11875,0.72 Z M4.95625,0.96 C5.0375,0.88 5.0375,0.88 5.11875,0.88 L5.6875,0.88 C5.76875,0.88 5.85,0.88 5.85,1.04 L5.85,7.12 C5.85,7.2 5.85,7.28 5.76875,7.28 L5.28125,7.28 C5.28125,7.28 5.2,7.28 5.2,7.2 L5.2,2.08 L1.4625,7.2 C1.38125,7.28 1.38125,7.28 1.3,7.28 L0.975,7.28 C0.89375,7.28 0.89375,7.28 0.89375,7.12 L0.89375,1.04 C0.89375,0.96 0.89375,0.96 0.975,0.96 L1.4625,0.96 C1.4625,0.96 1.54375,0.96 1.54375,1.12 L1.54375,6 L4.95625,0.96 Z"
                        id="Shape"></path>
                </g>
                <g transform="translate(5.687500, 0.000000)">
                    <path
                        d="M1.4625,7.12 C1.38125,7.28 1.38125,7.28 1.21875,7.28 L0.65,7.28 C0.4875,7.28 0.4875,7.28 0.4875,7.12 L0.4875,1.04 C0.4875,0.88 0.4875,0.88 0.65,0.88 C0.8125,0.88 1.1375,0.88 1.1375,0.88 C1.21875,0.88 1.21875,0.96 1.21875,1.04 L1.21875,6.08 L4.875,1.04 C4.95625,0.96 4.95625,0.96 5.0375,0.88 L5.3625,0.88 C5.525,0.88 5.525,0.88 5.525,1.04 L5.525,7.12 C5.525,7.28 5.525,7.28 5.3625,7.28 L4.875,7.28 C4.79375,7.28 4.79375,7.2 4.79375,7.12 L4.79375,2.4 L1.4625,7.12 Z"
                        id="Path"></path>
                    <path
                        d="M5.11875,0.72 C5.0375,0.72 4.95625,0.8 4.875,0.88 C4.875,0.88 1.7875,5.12 1.21875,5.84 C1.21875,5.6 1.21875,0.96 1.21875,0.96 C1.21875,0.88 1.21875,0.8 1.1375,0.72 C1.1375,0.72 1.1375,0.72 0.65,0.72 C0.4875,0.72 0.4875,0.8 0.4875,0.96 L0.4875,7.04 C0.4875,7.2 0.56875,7.28 0.73125,7.28 L1.3,7.28 C1.4625,7.28 1.4625,7.28 1.54375,7.12 L1.54375,7.12 C1.54375,7.12 4.79375,2.72 4.95625,2.48 C4.95625,2.72 4.95625,7.04 4.95625,7.04 C4.95625,7.12 4.95625,7.2 5.11875,7.28 L5.60625,7.28 C5.76875,7.28 5.76875,7.2 5.76875,7.04 L5.76875,0.96 C5.76875,0.8 5.6875,0.72 5.525,0.72 L5.11875,0.72 L5.11875,0.72 Z M4.95625,0.96 C5.0375,0.88 5.0375,0.88 5.11875,0.88 L5.44375,0.88 C5.525,0.88 5.525,0.88 5.525,0.96 L5.525,7.04 C5.525,7.12 5.525,7.2 5.44375,7.2 L4.95625,7.2 C4.95625,7.2 4.875,7.2 4.875,7.04 L4.875,2.16 L1.3,7.04 C1.21875,7.2 1.21875,7.2 1.1375,7.2 L0.56875,7.2 C0.40625,7.2 0.40625,7.2 0.40625,7.04 L0.40625,0.96 C0.40625,0.88 0.40625,0.8 0.4875,0.8 L0.975,0.8 C1.05625,0.8 1.05625,0.8 1.05625,0.96 L1.05625,6.08 L4.95625,0.96 Z"
                        id="Shape"></path>
                </g>
                <g transform="translate(13.000000, 0.000000)" id="Shape">
                    <path
                        d="M0.8125,1.12 C0.8125,0.96 0.8125,0.88 0.975,0.88 C1.21875,0.8 1.95,0.8 2.35625,0.8 C2.925,0.8 3.575,0.88 4.0625,1.12 C4.55,1.44 4.7125,1.84 4.7125,2.32 C4.7125,3.04 4.14375,3.52 3.7375,3.76 C3.65625,3.76 3.575,3.84 3.49375,3.84 C3.575,3.84 3.65625,3.84 3.7375,3.92 C4.7125,4.16 5.2,4.8 5.2,5.6 C5.2,7.36 3.00625,7.36 2.35625,7.36 C1.70625,7.36 1.1375,7.28 0.975,7.2 C0.8125,7.2 0.8125,7.12 0.8125,6.88 L0.8125,1.12 L0.8125,1.12 Z M1.70625,3.6 C1.95,3.6 2.19375,3.6 2.4375,3.6 C3.65625,3.52 3.81875,2.72 3.81875,2.4 C3.81875,1.2 2.68125,1.2 2.35625,1.2 C2.1125,1.2 1.86875,1.2 1.70625,1.2 L1.70625,3.6 L1.70625,3.6 Z M1.70625,6.72 C1.86875,6.72 2.1125,6.8 2.4375,6.8 C3.4125,6.8 4.225,6.48 4.225,5.52 C4.225,5.04 4.0625,4.72 3.9,4.64 C3.49375,4.16 2.84375,4.16 2.35625,4.16 C2.1125,4.16 1.95,4.16 1.7875,4.16 L1.7875,6.72 L1.70625,6.72 Z"></path>
                    <path
                        d="M0.89375,0.8 C0.73125,0.88 0.73125,0.96 0.73125,1.12 L0.73125,6.88 C0.73125,7.12 0.73125,7.2 0.89375,7.2 C1.05625,7.28 1.625,7.36 2.275,7.36 C3.00625,7.36 5.2,7.36 5.2,5.52 C5.2,4.64 4.63125,4 3.7375,3.76 C3.7375,3.76 3.65625,3.76 3.65625,3.76 C3.7375,3.76 3.7375,3.76 3.7375,3.76 C4.0625,3.6 4.79375,3.2 4.79375,2.32 C4.79375,1.84 4.55,1.36 4.0625,1.12 C3.65625,0.88 3.0875,0.72 2.275,0.72 C1.86875,0.72 1.1375,0.72 0.89375,0.8 Z M0.975,7.12 C0.89375,7.12 0.8125,7.04 0.8125,6.88 L0.8125,1.12 C0.8125,0.96 0.8125,0.96 0.975,0.88 C1.1375,0.8 1.95,0.8 2.35625,0.8 C3.0875,0.8 3.65625,0.88 4.0625,1.12 C4.46875,1.36 4.7125,1.76 4.7125,2.24 C4.7125,3.04 3.98125,3.44 3.7375,3.6 C3.7375,3.6 3.4125,3.76 3.4125,3.76 L3.575,3.76 L3.81875,3.84 C4.7125,4.08 5.2,4.64 5.2,5.52 C5.2,7.2 3.0875,7.2 2.35625,7.2 C1.70625,7.2 1.1375,7.2 0.975,7.12 Z"></path>
                    <path
                        d="M1.625,1.28 L1.625,1.28 L1.625,3.68 L2.4375,3.68 C3.7375,3.6 3.81875,2.72 3.81875,2.48 C3.81875,1.92 3.575,1.28 2.275,1.28 L1.625,1.28 Z M2.35625,1.28 C3.33125,1.28 3.7375,1.68 3.7375,2.4 C3.7375,2.64 3.65625,3.44 2.4375,3.52 C2.4375,3.52 1.7875,3.52 1.70625,3.52 C1.70625,3.44 1.70625,1.36 1.70625,1.28 C1.7875,1.36 2.35625,1.28 2.35625,1.28 Z"></path>
                    <path
                        d="M1.7875,4.08 L1.625,4.08 L1.625,6.72 L2.4375,6.8 C3.575,6.8 4.225,6.32 4.225,5.52 C4.225,5.04 3.98125,4.72 3.9,4.56 C3.49375,4.08 2.84375,4.08 2.275,4.08 L1.7875,4.08 Z M1.7875,4.16 L2.275,4.16 C2.84375,4.16 3.4125,4.16 3.81875,4.64 C3.9,4.8 4.14375,5.04 4.14375,5.52 C4.14375,6.56 3.0875,6.72 2.4375,6.72 C2.4375,6.72 1.7875,6.72 1.70625,6.72 C1.70625,6.64 1.70625,4.24 1.70625,4.24 C1.7875,4.16 1.7875,4.16 1.7875,4.16 Z"></path>
                </g>
                <g>
                    <path
                        d="M1.95,3.6 L4.46875,6.96 C4.46875,6.96 4.55,7.04 4.55,7.12 C4.55,7.2 4.46875,7.2 4.46875,7.2 L3.7375,7.2 C3.575,7.2 3.575,7.2 3.4125,7.04 L1.05625,3.76 L1.05625,7.04 C1.05625,7.2 0.975,7.2 0.89375,7.2 L0.40625,7.2 C0.24375,7.2 0.24375,7.2 0.24375,7.04 L0.24375,0.96 C0.24375,0.8 0.24375,0.8 0.40625,0.8 L0.975,0.8 C1.1375,0.8 1.1375,0.8 1.1375,0.96 L1.1375,3.68 L3.33125,0.96 C3.4125,0.8 3.49375,0.8 3.575,0.8 L4.0625,0.8 C4.14375,0.8 4.225,0.8 4.225,0.88 C4.225,0.96 4.225,0.96 4.14375,1.04 L1.95,3.6 Z"
                        id="Path"></path>
                    <path
                        d="M3.49375,0.72 C3.4125,0.72 3.33125,0.8 3.25,0.96 C3.25,0.96 1.54375,3.12 1.1375,3.6 C1.1375,3.36 1.1375,1.04 1.1375,1.04 L1.05625,0.88 L0.89375,0.88 L0.325,0.88 C0.1625,0.88 0.08125,0.96 0.08125,1.12 L0.08125,7.2 C0.08125,7.36 0.1625,7.44 0.325,7.44 L0.8125,7.44 C0.89375,7.44 1.05625,7.44 1.05625,7.28 C1.05625,7.28 1.05625,4.4 1.05625,4.16 C1.21875,4.4 3.33125,7.28 3.33125,7.28 C3.4125,7.44 3.49375,7.44 3.65625,7.44 L4.3875,7.44 C4.55,7.44 4.55,7.36 4.55,7.28 L4.46875,7.12 C4.46875,7.12 2.19375,4.08 1.95,3.76 C1.95,3.68 3.98125,1.2 3.98125,1.2 L3.98125,1.2 L4.0625,1.04 C4.0625,0.96 3.98125,0.88 3.9,0.88 L3.49375,0.88 L3.49375,0.72 Z M0.1625,7.04 L0.1625,0.96 C0.1625,0.8 0.1625,0.8 0.325,0.8 L0.89375,0.8 L0.975,0.8 L0.975,0.96 L0.975,7.12 C0.975,7.2 0.975,7.2 0.8125,7.2 L0.325,7.2 C0.24375,7.2 0.1625,7.2 0.1625,7.04 Z M3.25,1.04 C3.33125,0.88 3.4125,0.88 3.49375,0.88 L3.98125,0.88 C4.0625,0.88 4.0625,0.88 4.0625,0.96 L3.98125,1.04 L3.98125,1.04 L1.86875,3.6 L4.3875,6.96 L4.46875,7.04 C4.46875,7.04 4.46875,7.12 4.3875,7.12 L3.65625,7.12 C3.49375,7.12 3.49375,7.12 3.4125,7.04 C3.4125,7.04 1.05625,3.76 0.975,3.76 C1.05625,3.76 3.25,1.04 3.25,1.04 Z"
                        id="Shape"></path>
                </g>
            </g>
        </g>
    </g>
</svg>