<svg width="225" height="51" viewBox="0 0 225 51" xmlns="http://www.w3.org/2000/svg">
    <g stroke="none" stroke-width="1" fill="none" fill-rule="evenodd">
        <g id="ru-tinkoff" fill-rule="nonzero">
            <path
                d="M56.26065,23.85465 L57,21.48285 L54.5526,21.5604 C54.3462,21.5604 52.84335,21.51675 51.3849,20.4582 C51.49425,20.46735 51.6021,20.48355 51.71415,20.48355 C53.21475,20.48355 54.66825,19.5783 55.2498,18.2826 L56.3022,15.9432 C54.9813,15.96075 53.77455,15.7935 53.77455,15.7935 C53.76465,15.79275 52.81305,15.66915 51.7134,14.542875 C50.9247,13.736475 49.94835,13.30926 48.89115,13.30926 C48.42795,13.30926 48.01425,13.39329 47.65755,13.50627 C47.71395,13.316325 47.7654,13.12425 47.79705,12.92583 C48.1326,10.7361 46.7271,9.066795 46.72635,9.068205 L44.88525,6.78456 L43.74405,9.467175 C43.7406,9.47565 43.45155,10.10481 42.9369,10.411275 C42.78195,9.622515 42.39915,8.736315 41.58285,7.88895 C40.0428,6.29238 38.1684,6.052995 37.188,6.052995 C36.73335,6.052995 36.40845,6.10314 36.33015,6.115845 L34.10835,6.55365 C34.2366,6.056535 34.5102,5.1894 35.00925,4.410525 L36.23505,2.497605 L33.15045,2.84856 L32.1672,0.758391 L30.2646,1.741335 L28.50465,0 L26.7501,1.741335 L24.8427,0.758391 L23.8623,2.84856 L20.77845,2.496195 L22.00635,4.41123 C22.506,5.1894 22.7781,6.05442 22.905,6.550125 L20.78475,6.131385 L20.71215,6.12009 C20.60565,6.10314 20.2836,6.052995 19.82685,6.052995 C18.8463,6.052995 16.9728,6.29238 15.4362,7.888245 C14.618475,8.734905 14.235015,9.622515 14.078535,10.411275 C13.566795,10.107645 13.28061,9.488355 13.28061,9.488355 L12.13731,6.790215 L10.267965,9.087975 C10.038885,9.38385 8.91249,10.953585 9.2184,12.92865 C9.250125,13.12566 9.301575,13.316325 9.356565,13.50627 C9.00201,13.392585 8.588235,13.30926 8.125845,13.30926 C7.06782,13.30926 6.09156,13.736475 5.30139,14.542875 C4.204605,15.6642 3.259365,15.7914 3.267105,15.7914 C3.267105,15.7914 2.266185,15.97215 0.718272,15.9432 L1.76502,18.2826 C2.34795,19.5783 3.80211,20.48355 5.29998,20.48355 C5.412765,20.48355 5.520615,20.46735 5.63127,20.4582 C4.176405,21.51675 2.6736,21.5604 2.49174,21.56115 L0,21.48285 L0.7549245,23.85405 C1.13556,25.07625 2.404335,27.1008 4.834755,27.31905 C4.57044,28.42905 3.984675,29.6739 2.69757,30.20925 L0.8402145,30.97545 L1.85313,32.74215 C2.424075,33.69465 3.76617,34.809 5.675685,34.809 C6.08874,34.80765 6.487695,34.76595 6.872565,34.68405 C6.970545,35.11905 7.0932,35.5554 7.2384,35.9883 C7.806525,37.68435 7.31664,38.8665 7.311705,38.87985 L6.394665,40.80345 L8.44092,41.3436 C8.4663,41.3514 9.08448,41.52225 9.858435,41.52225 C10.20876,41.52225 10.54569,41.4855 10.859355,41.4099 C11.09691,41.35425 11.32599,41.28075 11.545905,41.19105 C11.81094,41.667 12.132375,42.10125 12.50736,42.49035 C13.818435,43.8384 15.67725,44.5212 18.03015,44.5212 L18.0378,44.5212 L19.71825,44.4993 L16.2468,45.94545 L18.8823,47.2215 C19.8402,47.6889 20.9751,48.2418 22.13175,48.6648 L21.80265,49.5666 L22.71045,49.9818 C22.7916,50.0184 24.53895,50.8008 27.44235,50.96745 C27.44235,50.96745 28.143,51 28.52925,51 C28.91475,51 29.60775,50.96535 29.60775,50.96535 C32.4921,50.7945 34.22535,50.0184 34.3065,49.9818 L35.21715,49.56585 L34.8852,48.6627 C36.0735,48.22695 37.25145,47.65215 38.16915,47.20305 L40.75605,45.9441 L37.29585,44.4993 L38.98335,44.5212 C41.3397,44.5212 43.1985,43.83765 44.5074,42.48825 C44.88105,42.10275 45.20175,41.6691 45.46815,41.19105 C45.6888,41.28075 45.91935,41.35425 46.15755,41.4114 C46.4706,41.4855 46.80675,41.52225 47.15715,41.52225 C47.91765,41.52225 48.54285,41.3535 48.55905,41.3478 L50.6145,40.80345 L49.7193,38.91525 C49.69815,38.8665 49.20825,37.68435 49.77645,35.9868 C49.9209,35.5539 50.04285,35.1183 50.1423,34.68405 C50.5278,34.76595 50.93025,34.80765 51.34695,34.809 C53.7801,34.809 54.94665,33.0945 55.17225,32.72235 L56.17455,30.97395 L54.3186,30.2106 C53.028,29.6739 52.443,28.4298 52.1814,27.3204 C54.5802,27.11145 55.8666,25.0848 56.26065,23.85465 Z"
                id="Path" fill="#FFFFFE"></path>
            <path
                d="M28.5051,7.264155 C26.5392,7.266285 25.06455,7.910985 24.74445,8.67078 L28.5051,10.15791 L32.26695,8.67078 C31.94835,7.910985 30.4737,7.266285 28.5051,7.264155 Z"
                id="Path" fill="#FFFFFE"></path>
            <path
                d="M28.545,46.6224 L28.46955,46.6224 C27.2784,46.6302 25.63665,46.38585 24.84795,46.15425 L23.89635,48.7317 C24.52305,48.9555 26.6475,49.3842 28.50915,49.3842 C30.3672,49.3842 32.4924,48.9555 33.11835,48.7317 L32.16885,46.15425 C31.3758,46.38585 29.7363,46.6302 28.545,46.6224 Z"
                id="Path" fill="#FFFFFE"></path>
            <path
                d="M35.74065,44.05815 C35.03295,44.45925 33.4527,45.06225 32.53425,45.34185 L33.30525,47.4708 C34.7271,47.08185 35.90145,46.6278 36.86985,46.14045 L35.26845,45.60735 L35.74065,44.05815 Z"
                id="Path" fill="#FFFFFE"></path>
            <path
                d="M21.273,44.05815 L21.7467,45.60735 L20.1438,46.14045 C21.11085,46.6278 22.29015,47.08185 23.7069,47.4708 L24.47955,45.34185 C23.56245,45.06225 21.97995,44.45925 21.273,44.05815 Z"
                id="Path" fill="#FFFFFE"></path>
            <path
                d="M28.5051,4.79976 C29.98755,4.79976 31.4403,5.154945 32.55825,5.778465 C32.6604,5.435985 32.8035,5.01936 32.9973,4.58226 L32.5737,4.63311 L32.13105,4.679715 L31.94355,4.27509 L31.3776,3.0789 L30.3477,3.61698 L29.946,3.821055 L29.62515,3.504705 L28.5051,2.39466 L27.3873,3.504705 L27.06795,3.821055 L26.66685,3.61698 L25.63065,3.0789 L25.0731,4.27509 L24.8814,4.679715 L24.43875,4.63311 L24.01725,4.58226 C24.21105,5.01936 24.3528,5.435985 24.4563,5.778465 C25.57845,5.154945 27.02985,4.79976 28.5051,4.79976 Z"
                id="Path" fill="#FFFFFE"></path>
            <path
                d="M51.1326,18.6252 C51.32505,18.6915 51.52035,18.7212 51.71415,18.7212 C52.55295,18.7212 53.3628,18.17745 53.64135,17.55675 C53.64135,17.55675 52.1046,17.4636 50.45175,15.78225 C49.9251,15.2379 49.3683,15.0747 48.8904,15.0747 C48.1482,15.0747 47.59125,15.46665 47.59125,15.46665 C49.5882,16.5321 49.9956,18.2403 51.1326,18.6252 Z"
                id="Path" fill="#FFFFFE"></path>
            <path
                d="M5.29926,18.7212 C5.493105,18.7212 5.689065,18.6915 5.87727,18.62445 C7.017045,18.2403 7.428,16.5321 9.4221,15.46725 C9.4221,15.46725 8.86383,15.0747 8.12583,15.0747 C7.645095,15.0747 7.088955,15.23775 6.560295,15.783 C4.90947,17.4636 3.37353,17.5575 3.37353,17.5575 C3.64914,18.17745 4.461165,18.7212 5.29926,18.7212 Z"
                id="Path" fill="#FFFFFE"></path>
            <path
                d="M50.52975,30.8919 C48.98535,30.12855 48.00915,28.1034 47.77365,27.37395 C47.51715,31.3905 45.5604,34.1769 43.27305,36.8601 C42.08595,38.2512 41.6715,39.60345 41.6715,39.60345 C41.6715,39.60345 41.90055,38.0712 42.92685,36.8241 C45.06135,34.25595 47.08995,31.0572 47.2407,27.35985 C47.34435,24.7782 46.68255,22.68585 45.64845,20.96085 C46.22715,22.75725 46.14465,24.95685 44.1816,27.0102 C44.1816,27.0102 48.0909,22.31805 42.6252,17.5071 C40.43865,15.67605 38.0442,14.545545 36.81285,13.744785 C41.2641,15.1995 43.4379,13.597905 43.4379,13.597905 C42.01695,14.83224 40.17645,14.81106 39.03465,14.6331 C39.3447,14.784225 39.6669,14.9424 40.01295,15.12885 C43.7664,17.17095 47.1393,20.5314 47.7144,25.18485 L47.7144,25.1496 C48.5871,29.71905 50.52975,30.8919 50.52975,30.8919 Z M51.67305,25.56765 C51.70755,25.56975 51.73725,25.56975 51.7725,25.56975 C53.86455,25.56975 54.5736,23.325 54.5736,23.325 L54.5328,23.325 C54.14865,23.325 51.03795,23.23455 48.8388,20.43465 C47.39235,18.59385 46.20525,16.97535 43.863,16.33845 L43.63245,16.2975 L43.5825,16.0623 C43.51755,15.70425 43.76355,15.3675 44.31975,15.00525 C47.553,12.884715 45.3567,10.17951 45.3567,10.17951 C45.3567,10.17951 44.4339,12.342405 42.3687,12.342405 C42.3186,12.342405 42.2664,12.33957 42.21495,12.33957 C41.98095,12.32757 41.754,12.319095 41.5263,12.270375 L41.14575,12.19623 C41.14575,12.19623 41.73495,10.591185 40.31325,9.118185 C39.24255,8.00601 37.93995,7.81677 37.18785,7.81677 C36.8085,7.81677 36.5682,7.86549 36.5682,7.86549 C37.2822,8.800425 37.7982,10.352505 36.97425,11.31003 C36.2616,12.132675 34.5213,12.172215 34.5213,13.39878 C34.5213,13.9185 35.0055,14.524365 35.87535,15.06885 C38.49105,16.719 41.08785,18.90945 42.16845,21.8442 C43.51755,25.50405 41.99715,27.93465 39.82755,29.32785 C39.82755,29.32785 40.50855,29.9556 41.49465,30.036 C41.69625,30.0552 41.89215,30.06435 42.0747,30.06435 C44.15835,30.06435 45.2361,29.0856 45.2361,29.0856 C45.2361,29.0856 45.05775,30.43785 43.9743,31.69335 C42.9735,32.8521 41.6616,33.53565 39.65775,33.56385 C39.65775,33.56385 39.5949,34.4946 40.4817,35.301 C41.0499,35.8095 42.35955,35.97465 42.35955,35.97465 C42.35955,35.97465 39.90585,36.47325 39.6351,40.10415 C39.4878,42.0714 38.9859,42.75495 38.9859,42.75495 L39.0297,42.75495 C44.7243,42.75495 44.5785,37.8621 44.5785,37.8621 C44.5785,37.8621 44.97465,39.3111 46.56345,39.68895 C46.75515,39.73905 46.9602,39.75885 47.1555,39.75885 C47.66655,39.75885 48.1113,39.6381 48.1113,39.6381 C48.1113,39.6381 47.2788,37.88055 48.10425,35.42175 C48.7887,33.381 48.67875,31.86915 48.67875,31.86915 C48.67875,31.86915 49.44495,33.0315 51.34815,33.04215 L51.3672,33.04215 C52.95105,33.04215 53.64105,31.8396 53.64105,31.8396 C49.84455,30.25995 50.21955,25.16445 50.21955,25.16445 C50.21955,25.16445 50.7123,25.533 51.67305,25.56765 Z"
                id="Shape" fill="#FFFFFE"></path>
            <path
                d="M13.73919,36.8601 C11.451855,34.1769 9.49581,31.3905 9.23712,27.37395 C9.00099,28.1034 8.028255,30.12855 6.484575,30.8919 C6.484575,30.8919 8.42511,29.71905 9.297045,25.1496 L9.297045,25.18485 C9.874335,20.53215 13.24647,17.17095 17.0007,15.12945 C17.34465,14.941695 17.66955,14.784225 17.97765,14.63382 C16.83645,14.81106 14.99598,14.83224 13.575645,13.597905 C13.575645,13.597905 15.74955,15.1995 20.19945,13.744785 C18.96795,14.54625 16.5756,15.67605 14.38908,17.5071 C8.922045,22.31805 12.832005,27.01095 12.832005,27.01095 C10.866105,24.95685 10.787145,22.75785 11.365155,20.96085 C10.32969,22.68585 9.6678,24.7782 9.77424,27.35985 C9.92367,31.0572 11.95161,34.2552 14.08176,36.82485 C15.11295,38.0712 15.34485,39.60285 15.34485,39.60285 C15.34485,39.60285 14.925495,38.2512 13.73919,36.8601 Z M14.654115,35.97465 C14.654115,35.97465 15.9645,35.8101 16.5333,35.30025 C17.41935,34.4946 17.3559,33.56385 17.3559,33.56385 C15.3519,33.53565 14.04087,32.8521 13.03431,31.6941 C11.95725,30.43785 11.77821,29.0856 11.77821,29.0856 C11.77821,29.0856 12.85527,30.06435 14.93607,30.06435 C15.12285,30.06435 15.3174,30.0552 15.51825,30.036 C16.50585,29.9556 17.1888,29.32845 17.1888,29.32845 C15.0171,27.93465 13.495995,25.5048 14.84373,21.8442 C15.9243,18.9102 18.52035,16.719 21.13755,15.0681 C22.00605,14.524365 22.49025,13.9185 22.49025,13.39878 C22.49025,12.172215 20.75205,12.132675 20.04015,11.31003 C19.21605,10.352505 19.73205,8.800425 20.4447,7.86549 C20.4447,7.86549 20.2071,7.81677 19.8258,7.81677 C19.07445,7.81677 17.77245,8.00601 16.70175,9.118185 C15.2772,10.591185 15.8679,12.19623 15.8679,12.19623 L15.48735,12.270375 C15.26025,12.31839 15.0312,12.32757 14.797905,12.34029 C14.74434,12.34029 14.69712,12.342405 14.647065,12.342405 C12.576135,12.342405 11.658375,10.180215 11.658375,10.180215 C11.658375,10.180215 9.463395,12.884715 12.695265,15.00525 C13.251405,15.3675 13.495995,15.70425 13.43115,16.0623 L13.38111,16.29675 L13.146375,16.33845 C10.80759,16.97535 9.619875,18.59385 8.171355,20.43465 C5.97354,23.2338 2.86713,23.325 2.48016,23.325 L2.43786,23.325 C2.43786,23.325 3.14697,25.56975 5.24046,25.56975 C5.273595,25.56975 5.3046,25.56975 5.33985,25.56765 C6.30201,25.533 6.79542,25.16445 6.79542,25.16445 C6.79542,25.16445 7.1676,30.25995 3.37254,31.83885 C3.37254,31.83885 4.064025,33.04275 5.647185,33.04275 L5.666205,33.04275 C7.57008,33.0315 8.33559,31.86915 8.33559,31.86915 C8.33559,31.86915 8.22492,33.38175 8.90724,35.42175 C9.73266,37.8813 8.90442,39.63885 8.90442,39.63885 C8.90442,39.63885 9.347085,39.75885 9.85812,39.75885 C10.056195,39.75885 10.259205,39.73905 10.44951,39.68895 C12.036195,39.3111 12.433755,37.8621 12.433755,37.8621 C12.433755,37.8621 12.28854,42.75495 17.98395,42.75495 L18.0249,42.75495 C18.0249,42.75495 17.52645,42.0714 17.3799,40.1034 C17.1099,36.47325 14.654115,35.97465 14.654115,35.97465 Z"
                id="Shape" fill="#FFFFFE"></path>
            <path
                d="M27.22005,17.94465 L29.9049,17.94465 L29.9049,18.8676 C29.58915,18.48 28.97445,18.55905 28.97445,18.55905 L28.97445,19.8894 C28.97445,19.8894 28.9971,20.544 29.2269,20.8272 L27.8982,20.8272 C28.1307,20.544 28.15125,19.8894 28.15125,19.8894 L28.15125,18.55905 C28.15125,18.55905 27.53865,18.48 27.22005,18.8676 L27.22005,17.94465 Z M24.29475,18.0831 C24.3885,18.1833 24.48015,18.29205 24.56895,18.4023 C24.5901,18.42765 24.60915,18.4503 24.6303,18.48 C24.71205,18.58875 24.79455,18.70455 24.8742,18.82245 C24.8919,18.8457 24.9087,18.8739 24.92775,18.90075 C25.023,19.0455 25.11315,19.1946 25.2027,19.3485 C26.02455,20.7693 27.3384,21.618 28.5051,21.6201 C29.673,21.618 30.9855,20.7693 31.80945,19.3485 C31.9005,19.19025 31.99275,19.03785 32.088,18.89445 C32.1021,18.8739 32.11755,18.85275 32.1303,18.8316 C32.21205,18.7095 32.29665,18.59085 32.38545,18.47565 C32.4045,18.4503 32.42205,18.42765 32.439,18.4065 C32.53065,18.29205 32.625,18.18195 32.7216,18.0795 C32.7378,18.0633 32.7519,18.04785 32.7675,18.03435 C33.18615,17.60505 33.68445,17.27805 34.33785,17.0973 L34.04685,16.9272 L34.03065,16.9272 L32.8746,16.2549 L31.6869,15.57345 L28.5135,17.3043 L28.5051,17.2971 L28.4994,17.3043 L25.3254,15.57345 L24.1383,16.2549 L22.98015,16.9272 L22.9668,16.9272 L22.67355,17.0973 C23.32695,17.27805 23.8239,17.60145 24.24405,18.0315 C24.26235,18.04785 24.2751,18.0669 24.29475,18.0831 Z"
                id="Shape" fill="#FFFFFE"></path>
            <path
                d="M27.49455,12.07965 L27.49455,12.948195 L27.3282,12.871935 C27.3204,12.865575 27.07575,12.810495 26.65005,12.47226 C25.9473,11.92641 25.9332,11.42223 25.9332,11.42223 L27.49455,12.07965 Z M28.23105,16.1547 L28.23105,10.752105 L24.7983,9.58557 L25.7034,14.82087 L28.23105,16.1547 Z"
                id="Shape" fill="#FFFFFE"></path>
            <path
                d="M29.51955,12.07965 L31.0809,11.42223 C31.0809,11.42223 31.06755,11.92641 30.36195,12.47226 C29.9376,12.810495 29.69295,12.865575 29.68455,12.871935 L29.51955,12.948195 L29.51955,12.07965 Z M31.30935,14.82087 L32.2116,9.58557 L28.78095,10.752105 L28.78095,16.1547 L31.30935,14.82087 Z"
                id="Shape" fill="#FFFFFE"></path>
            <path
                d="M23.3766,28.67925 C23.71005,28.8006 24.1161,28.8261 24.324,28.8261 C24.3318,28.8006 24.34305,28.7688 24.35295,28.7301 C24.37125,28.6686 24.3888,28.6071 24.40155,28.54005 C24.46005,28.24065 24.48045,27.9024 24.4854,27.68355 C24.34515,27.5952 24.14565,27.43995 24.03435,27.20685 C23.90745,26.9385 23.7249,26.8128 23.45985,26.8128 C23.1144,26.8128 22.74435,27.02115 22.5843,27.11865 C22.45815,27.86565 23.00805,28.5429 23.3766,28.67925 Z"
                id="Path" fill="#FFFFFE"></path>
            <path
                d="M30.9696,25.8135 C30.3324,26.5083 29.08335,27.71715 29.02335,27.7773 L28.9479,27.8535 L25.00485,27.7914 C25.002,28.1826 24.93855,28.51515 24.87735,28.7595 C24.86745,28.7997 24.8562,28.84215 24.84555,28.88445 L29.5359,29.7297 C30.02355,29.388 31.36635,28.40505 31.8888,28.02015 C31.50945,27.46515 31.4736,26.80695 31.5588,26.34375 C31.30935,26.1849 31.12035,26.00415 30.9696,25.8135 Z"
                id="Path" fill="#FFFFFE"></path>
            <path
                d="M31.50375,21.06195 C30.59505,21.96435 29.72385,22.29975 28.94565,22.3767 C28.8033,22.39155 28.66095,22.4007 28.51635,22.4007 L28.4967,22.4007 C28.3515,22.4007 28.20765,22.39155 28.0674,22.3767 C27.9306,22.3647 27.78825,22.3428 27.64515,22.3104 C27.59445,22.51365 27.52965,22.9374 27.7143,23.3406 C27.87915,23.70495 28.21395,23.97615 28.7025,24.15765 L28.86675,24.22185 L28.8696,24.39915 C28.8696,24.45135 28.9083,25.60095 30.1581,25.92015 C30.36255,25.7097 30.5478,25.51905 30.68535,25.35945 C30.4302,24.75705 30.56415,24.14205 30.9348,23.8413 C30.9186,23.90475 30.75585,25.41315 31.9626,25.97385 L32.16135,26.06835 L32.1021,26.2803 C32.08245,26.34375 31.67985,27.80415 33.1419,28.34715 L33.4005,28.44525 L33.2856,28.69665 C33.26025,28.75245 32.68725,30.0765 34.03695,30.8292 L36.96375,30.8292 L36.96375,28.50105 C35.9226,28.374 35.4828,27.5358 35.3685,26.94255 C34.8843,26.8593 34.51065,26.6502 34.2534,26.30925 C33.63945,25.49925 34.16745,24.75705 34.1745,24.71685 C34.173,24.72315 34.1745,25.5126 34.6608,26.00055 C34.9026,26.235 35.18745,26.418 35.61945,26.45895 L35.8323,26.478 L35.8506,26.6961 C35.8542,26.742 35.9712,27.8118 36.96375,27.9792 L36.9615,23.2233 C36.9615,22.4868 37.17585,21.7461 37.43385,21.06195 L31.50375,21.06195 Z"
                id="Path" fill="#FFFFFE"></path>
            <polygon id="Path" fill="#FFFFFE"
                points="23.62635 23.24085 23.5467 26.26875 23.89065 26.3217 24.7308 23.4159 24.30435 22.5219"></polygon>
            <path
                d="M25.44615,34.45155 C25.3482,34.4487 25.2762,34.3653 25.28265,34.2672 C25.2903,34.1733 25.36995,34.09905 25.46655,34.1076 C25.56525,34.11105 25.6344,34.1979 25.63155,34.29045 C25.6224,34.38645 25.5399,34.45995 25.44615,34.45155 Z M32.889,37.1319 C32.91495,37.1319 32.9439,37.1355 32.9721,37.14255 C33.49515,37.29225 33.627,39.1797 34.54395,39.34785 C34.63425,39.3669 34.71675,39.3726 34.78935,39.3726 C35.055,39.3726 35.21295,39.2595 35.3835,39.0576 C35.3835,39.0576 34.9218,38.33175 34.5771,37.84095 C34.11825,37.1997 33.76305,36.4251 32.9094,36.4251 C32.889,36.4251 32.86425,36.4251 32.8431,36.42795 C32.5626,36.44205 32.3892,36.57975 32.3892,36.57975 C32.04315,36.36165 31.72095,36.28815 31.43055,36.28815 C30.89625,36.28815 30.4803,36.53385 30.27165,36.53385 L30.264,36.53385 L28.35795,36.3453 C28.0605,36.31635 27.8244,36.0156 27.7398,35.8983 C27.71865,35.8659 27.70665,35.84745 27.70665,35.84745 C27.70665,35.79525 27.70665,35.7423 27.7038,35.69505 C27.63975,34.1337 26.433,33.46575 26.00295,33.4551 C26.00295,33.4551 26.0538,33.1578 25.93815,33.04485 L25.51665,33.55605 L24.1386,32.8626 L25.1226,34.01445 L24.28935,34.95135 C24.18435,35.058 24.19785,35.20215 24.2415,35.2635 L24.60105,35.58195 L25.0578,35.30445 C25.0803,35.2875 25.1226,35.28195 25.1727,35.28195 C25.29885,35.28195 25.48845,35.3151 25.65825,35.3151 C25.84515,35.3151 26.00505,35.2755 26.02485,35.10045 C25.9677,35.67945 25.4313,36.68505 25.78305,37.47585 L26.0445,38.07255 L24.35925,37.8297 L23.5704,39.1635 C23.32725,39.60765 23.28915,40.0878 23.52315,40.34985 L23.8179,40.71915 C23.8179,40.71915 24.23235,40.27995 24.3246,39.99045 L24.1908,39.84285 C24.078,39.7185 24.08355,39.60765 24.1527,39.4743 L24.64755,38.6523 L26.63595,39.1218 L26.74095,38.94255 C26.87625,38.71725 27.0708,38.6508 27.2838,38.6508 C27.37185,38.6508 27.4614,38.66145 27.55515,38.6763 C27.92445,38.74905 28.5321,38.84715 29.13975,38.84715 C29.80575,38.84715 30.4677,38.7279 30.8208,38.33175 C31.54125,39.40155 33.00105,39.57165 32.88615,40.1154 L32.50125,41.94855 C32.75565,41.9373 33.00105,41.92095 33.23355,41.88855 L33.5994,39.9819 C33.6396,39.7737 33.6777,39.4947 33.6777,39.4947 C33.53745,39.3513 33.1962,39.0492 33.0039,38.68125 C32.7465,38.1855 32.88615,37.92645 32.64645,37.2816 C32.64645,37.2816 32.7204,37.1319 32.889,37.1319 Z"
                id="Shape" fill="#FFFFFE"></path>
            <path
                d="M22.7301,38.86635 C22.7301,38.86635 23.3898,38.5944 23.4483,38.4009 L23.36025,38.1807 C23.2974,38.03655 23.30595,37.8813 23.42715,37.79715 L24.13845,37.30365 L25.32675,37.53315 C25.32675,37.53315 25.1118,37.2627 25.13295,36.90255 L23.99805,36.6618 L22.9281,37.3149 C22.46925,37.6581 22.4361,38.22015 22.5876,38.55345 L22.7301,38.86635 Z"
                id="Path" fill="#FFFFFE"></path>
            <path
                d="M31.14,41.973 C31.35225,41.9646 31.58835,41.961 31.8456,41.961 C31.8456,41.961 32.45745,40.1682 32.49195,40.11165 C32.14935,39.95985 31.4367,39.5814 31.1619,39.4083 C31.34445,39.68085 31.785,39.9909 31.69755,40.2309 L31.14,41.973 Z"
                id="Path" fill="#FFFFFE"></path>
            <path
                d="M36.9636,31.3425 L20.0508,31.3425 L20.0508,37.7154 C20.0508,40.3224 21.93345,41.95365 24.7122,41.95365 C27.03255,41.95365 27.64515,42.0447 28.50855,42.9027 C29.1036,42.3081 29.5956,42.0864 30.6063,42.00375 L30.6303,41.9049 L31.16325,40.254 C31.13355,40.2165 30.2616,39.22515 30.2616,39.22515 C29.9163,39.3402 29.6259,39.35925 29.13885,39.35925 C28.63755,39.35925 28.0737,39.30075 27.45975,39.18555 C27.3984,39.17145 27.34065,39.16515 27.2835,39.16515 C27.20805,39.16515 27.20325,39.17145 27.18345,39.2082 L27.0777,39.38325 L26.8839,39.70455 L26.5188,39.6198 L24.89535,39.23715 L24.6726,39.6051 L24.70575,39.64455 L24.90315,39.8628 L24.8157,40.1466 C24.696,40.518 24.309,40.95165 24.1905,41.07165 L23.7852,41.5074 L23.41515,41.03925 L23.1375,40.69035 C22.8456,40.36275 22.77795,39.8628 22.9422,39.33735 C22.9386,39.3402 22.93305,39.34305 22.926,39.3438 L22.4685,39.5337 L22.2627,39.08535 L22.11825,38.7675 C21.8694,38.2083 21.96105,37.39125 22.632,36.897 L23.9382,36.15765 L25.18155,36.40275 C25.21125,36.28335 25.25565,35.8554 25.2915,35.74665 C25.2669,35.74395 25.245,35.73825 25.2204,35.73825 L24.50415,36.0066 L23.81265,35.52855 C23.81265,35.52855 23.5428,35.268 23.78805,35.00745 L24.4563,33.99195 L22.761,31.86015 L25.3662,32.93205 L25.54035,32.7174 L25.89135,32.29515 L26.2911,32.6757 C26.4039,32.78445 26.4687,32.91855 26.50035,33.0528 C27.21795,33.33315 28.5051,34.15935 28.61865,35.50305 L28.21605,35.66415 L28.21605,35.6739 C28.30845,35.7834 28.3845,35.82855 28.4085,35.8329 L30.26805,36.01575 C30.3159,36.00795 30.3738,35.9868 30.43995,35.96775 C30.67185,35.8887 31.01805,35.77425 31.42965,35.77425 C31.7652,35.77425 32.08875,35.8512 32.4003,35.99745 C32.5152,35.95365 32.6562,35.92185 32.8197,35.9112 L32.90925,35.9091 C33.9045,35.9091 34.39995,36.65415 34.79685,37.24935 C34.86315,37.3524 34.9293,37.44915 34.99845,37.5453 C35.34525,38.0367 35.7999,38.7555 35.8182,38.78655 L36.0234,39.10725 L35.77245,39.4002 C35.57925,39.62415 35.2881,39.88755 34.7898,39.88755 C34.6869,39.88755 34.5741,39.87615 34.4529,39.8529 C34.34715,39.8331 34.2498,39.8013 34.1568,39.76185 C34.14345,39.8607 34.1223,39.97785 34.104,40.0788 L33.77835,41.7834 C35.72865,41.30325 36.9672,39.82815 36.9672,37.7154 L36.9636,31.3425 Z"
                id="Path" fill="#FFE52B"></path>
            <path
                d="M20.0511,30.8292 L33.2055,30.8292 C32.54865,30.1491 32.5584,29.2884 32.7255,28.72905 C32.5338,28.63725 32.37585,28.52715 32.2356,28.40565 C31.7211,28.7856 30.15195,29.93025 29.7417,30.2169 L29.65365,30.2763 L24.4911,29.34135 L24.38685,29.34135 C24.2628,29.34135 24.0816,29.3364 23.88285,29.3124 C23.82705,29.54685 23.6262,29.7057 23.3964,29.7057 C23.3697,29.7057 23.34075,29.7036 23.3139,29.6979 C23.17935,29.67465 23.0616,29.6061 22.98345,29.49315 C22.90305,29.38155 22.87125,29.24955 22.89315,29.1132 L22.9122,29.00175 C22.38075,28.626 21.88875,27.78645 22.10655,26.9016 L22.1277,26.80845 L22.20315,26.754 C22.21365,26.74635 22.30245,26.68485 22.4364,26.60925 L22.0614,26.55135 C21.92115,26.52675 21.82665,26.39535 21.84855,26.2569 C21.87255,26.11635 22.00425,26.01615 22.1424,26.043 L23.03625,26.18415 L23.118,23.03205 L24.44745,21.6225 L25.2777,23.373 L24.40155,26.406 L25.19175,26.5302 C25.33065,26.5521 25.42575,26.68275 25.4046,26.82615 C25.3842,26.9532 25.2756,27.0387 25.15155,27.0387 C25.1382,27.0387 25.1241,27.0387 25.11075,27.0372 L24.4686,26.9334 C24.477,26.9532 24.48975,26.96445 24.4974,26.98425 C24.5658,27.12615 24.71745,27.2265 24.80625,27.2709 L28.7415,27.33375 C28.9086,27.17145 29.32095,26.766 29.74665,26.33745 C28.7775,25.9689 28.42575,25.1334 28.36725,24.5778 C27.8259,24.3468 27.45225,24.0009 27.2451,23.55105 C26.9928,22.99395 27.0822,22.43535 27.14985,22.16415 C26.62485,21.97275 26.0736,21.6225 25.5096,21.06195 L19.581,21.06195 C19.8354,21.7461 20.0511,22.4868 20.0511,23.2233 L20.0511,30.8292 Z"
                id="Path" fill="#FFE52B"></path>
            <path
                d="M25.4664,34.10775 C25.36995,34.0986 25.2903,34.17375 25.2825,34.26855 C25.2762,34.3671 25.34805,34.45065 25.446,34.45275 C25.53975,34.46055 25.62225,34.38825 25.6314,34.29135 C25.63425,34.1985 25.5651,34.11135 25.4664,34.10775 Z"
                id="Path" fill="#1A1919"></path>
            <path
                d="M33.3063,47.47125 L32.53365,45.3423 C33.45285,45.06195 35.03325,44.45895 35.74155,44.05785 L35.26935,45.60705 L36.8694,46.1403 C35.9016,46.62675 34.728,47.0808 33.3063,47.47125 Z M28.5096,49.38495 C26.64735,49.38495 24.52275,48.95565 23.8962,48.73245 L24.84765,46.1544 C25.6365,46.38525 27.2781,46.63035 28.4694,46.62255 L28.54485,46.62255 C29.736,46.63035 31.37565,46.38525 32.16855,46.1544 L33.11805,48.73245 C32.4921,48.95565 30.3669,49.38495 28.5096,49.38495 Z M20.1447,46.1403 L21.7476,45.60705 L21.2733,44.05785 C21.98025,44.45895 23.5635,45.06195 24.48045,45.3423 L23.7072,47.47125 C22.29045,47.0808 21.1119,46.62675 20.1447,46.1403 Z M36.94125,45.6672 L35.96715,45.2928 L36.2364,44.28375 L36.5325,43.185 C36.5325,43.185 34.8063,44.12355 32.373,44.8275 C31.683,45.0252 31.16055,45.1164 31.16055,45.1164 L31.16055,45.8649 C31.16055,45.8649 29.85945,46.0908 28.54485,46.0908 L28.4694,46.0908 C27.15345,46.0908 25.8543,45.8649 25.8543,45.8649 L25.8543,45.1164 C25.8543,45.1164 25.3305,45.0252 24.64125,44.8275 C22.2087,44.12355 20.48385,43.185 20.48385,43.185 L20.7756,44.28375 L21.05055,45.2928 L20.07285,45.6672 L18.9888,46.0725 C20.2308,46.67415 21.9528,47.5482 23.52825,47.9805 L23.1567,48.99795 C23.1567,48.99795 25.155,49.90965 28.48425,49.91805 L28.48425,49.92015 L28.52925,49.92015 L28.52925,49.91805 C31.86195,49.90965 33.8589,48.99795 33.8589,48.99795 L33.48525,47.9805 C35.06145,47.5482 36.7863,46.67415 38.0226,46.0725 L36.94125,45.6672 Z"
                id="Shape" fill="#1A1919"></path>
            <path
                d="M24.43875,4.632705 L24.8814,4.67931 L25.0731,4.2747 L25.63065,3.079215 L26.66685,3.61587 L27.06795,3.821355 L28.50525,2.39355 L29.6253,3.5043 L29.946,3.821355 L30.3477,3.61587 L31.3776,3.079215 L31.94355,4.2747 L32.13105,4.67931 L32.5737,4.632705 L32.99745,4.58187 C32.8035,5.01897 32.6604,5.43489 32.55825,5.778765 C31.4403,5.15454 29.98755,4.799355 28.50525,4.799355 C27.02985,4.799355 25.5786,5.15454 24.4563,5.778765 C24.3528,5.43489 24.21105,5.01897 24.01725,4.58187 L24.43875,4.632705 Z M28.50525,5.422875 C30.4887,5.422875 32.0754,6.081705 32.9523,6.782895 C32.9523,6.782895 33.2124,5.212455 34.1013,3.82701 L32.50395,4.0092 L31.668,2.23044 L30.063,3.059445 L28.50525,1.51794 L26.9523,3.059445 L25.34385,2.23044 L24.50925,4.0092 L22.91205,3.82701 C23.80155,5.212455 24.0609,6.782895 24.0609,6.782895 C24.9435,6.081705 26.52525,5.422875 28.50525,5.422875 Z"
                id="Shape" fill="#1A1919"></path>
            <path
                d="M53.6421,31.839 C53.6421,31.839 52.9521,33.04305 51.3675,33.04305 L51.3477,33.04305 C49.446,33.03165 48.67905,31.86945 48.67905,31.86945 C48.67905,31.86945 48.789,33.3813 48.10455,35.42205 C47.27925,37.88145 48.1116,39.63825 48.1116,39.63825 C48.1116,39.63825 47.66685,39.759 47.1558,39.759 C46.96065,39.759 46.7562,39.73935 46.56375,39.6891 C44.97495,39.3114 44.5788,37.8624 44.5788,37.8624 C44.5788,37.8624 44.72475,42.75525 39.03,42.75525 L38.9856,42.75525 C38.9856,42.75525 39.4875,42.0717 39.63555,40.1043 C39.90615,36.4734 42.35985,35.97495 42.35985,35.97495 C42.35985,35.97495 41.0502,35.8104 40.48275,35.3013 C39.59535,34.4949 39.65805,33.56415 39.65805,33.56415 C41.6613,33.53595 42.97455,32.8524 43.97475,31.69365 C45.05805,30.438 45.2364,29.08575 45.2364,29.08575 C45.2364,29.08575 44.15865,30.0645 42.07575,30.0645 C41.89245,30.0645 41.69655,30.05535 41.4957,30.0363 C40.5096,29.95575 39.8286,29.32875 39.8286,29.32875 C41.9976,27.9348 43.5186,25.50435 42.1695,21.84435 C41.0883,18.91035 38.4915,16.7193 35.8764,15.06825 C35.00655,14.524575 34.5216,13.91871 34.5216,13.3983 C34.5216,12.17244 36.2619,12.1329 36.97455,11.31024 C37.79865,10.35273 37.2819,8.800635 36.5685,7.865715 C36.5685,7.865715 36.80895,7.816995 37.18815,7.816995 C37.94025,7.816995 39.24285,8.006235 40.31355,9.118395 C41.73465,10.591395 41.1453,12.19644 41.1453,12.19644 L41.526,12.2706 C41.7537,12.318615 41.98065,12.327795 42.216,12.339795 C42.26685,12.339795 42.3189,12.342615 42.369,12.342615 C44.43435,12.342615 45.35775,10.17972 45.35775,10.17972 C45.35775,10.17972 47.5527,12.884925 44.32005,15.0054 C43.764,15.36765 43.5186,15.70455 43.5828,16.0626 L43.6335,16.29765 L43.8633,16.3386 C46.2063,16.9749 47.3919,18.59475 48.83985,20.43495 C51.039,23.2347 54.14895,23.32515 54.53235,23.32515 L54.57405,23.32515 C54.57405,23.32515 53.86485,25.5699 51.7728,25.5699 C51.73755,25.5699 51.708,25.5699 51.67335,25.5678 C50.7126,25.5333 50.21925,25.1646 50.21925,25.1646 C50.21925,25.1646 49.845,30.2601 53.6421,31.839 Z M51.7728,26.25705 C54.3372,26.25705 55.19565,23.6436 55.2309,23.5314 L55.51785,22.6098 L54.55635,22.64025 L54.5529,22.64025 C54.21375,22.64025 51.3837,22.56465 49.3776,20.0106 L49.188,19.7733 C47.877,18.10395 46.63425,16.51515 44.4111,15.79065 C44.47515,15.732 44.56755,15.6615 44.6937,15.57885 C45.8736,14.80209 46.55955,13.85799 46.73145,12.76206 C46.9839,11.113935 45.9336,9.79911 45.8877,9.745455 L45.1737,8.860665 L44.7276,9.909975 C44.69715,9.975645 43.9479,11.655555 42.369,11.655555 L42.25125,11.655555 C42.1434,11.6499 42.0399,11.645655 41.9391,11.637195 C41.994,10.887975 41.85795,9.728505 40.80765,8.63964 C39.54525,7.330455 37.9974,7.13415 37.18815,7.13415 C36.7554,7.13415 36.4677,7.18782 36.43605,7.19064 L35.3583,7.405305 L36.02295,8.28375 C36.54525,8.960925 37.0182,10.210785 36.4572,10.863255 C36.2775,11.071575 35.9088,11.239635 35.5557,11.409105 C34.8297,11.74311 33.83715,12.211275 33.83715,13.3983 C33.83715,14.16657 34.4328,14.970855 35.5119,15.65445 C38.7051,17.66625 40.6752,19.7655 41.526,22.083 C42.8427,25.6476 41.1249,27.68055 39.4572,28.75245 L38.70855,29.2341 L39.36405,29.8371 C39.45225,29.9148 40.2522,30.6216 41.43645,30.7233 C41.66055,30.73815 41.8749,30.75015 42.07575,30.75015 C42.83355,30.75015 43.4799,30.6309 44.00505,30.47055 C43.8612,30.7233 43.68225,30.9825 43.4595,31.2423 C42.5064,32.34885 41.33355,32.8524 39.6468,32.87985 L39.0201,32.88975 L38.97225,33.5196 C38.9658,33.6468 38.9193,34.8147 40.0218,35.80755 C40.191,35.96145 40.3947,36.0879 40.6089,36.19095 C39.8604,36.8661 39.1005,38.0418 38.9532,40.05495 C38.8284,41.73555 38.4288,42.3576 38.42385,42.36405 L37.7316,43.4232 L38.9835,43.44015 C41.05155,43.44015 42.6354,42.86895 43.73295,41.73555 C44.3814,41.0655 44.75295,40.30845 44.97135,39.63825 C45.33165,39.94545 45.7962,40.2153 46.40235,40.35855 C46.63215,40.41225 46.8831,40.44195 47.1558,40.44195 C47.7402,40.44195 48.22935,40.3176 48.28365,40.30425 L49.083,40.0917 L48.7299,39.34455 C48.7038,39.28455 48.0369,37.78395 48.7545,35.6451 C49.0632,34.71945 49.22115,33.89115 49.29795,33.2457 C49.8012,33.50835 50.47575,33.7251 51.3471,33.72795 C53.3256,33.72795 54.1983,32.24715 54.237,32.18505 L54.62685,31.5051 L53.9043,31.20705 C51.5466,30.2262 51.02415,27.59235 50.9199,26.1666 C51.13275,26.2083 51.37665,26.2458 51.6516,26.25345 L51.7728,26.25705 Z"
                id="Shape" fill="#1A1919"></path>
            <path
                d="M48.89055,15.07485 C49.36845,15.07485 49.9254,15.2379 50.4519,15.783 C52.10475,17.46375 53.6421,17.55765 53.6421,17.55765 C53.3631,18.1776 52.5531,18.72135 51.7143,18.72135 C51.5205,18.72135 51.3252,18.69165 51.13275,18.6246 C49.99515,18.24045 49.58835,16.53225 47.59155,15.4674 C47.59155,15.4674 48.14835,15.07485 48.89055,15.07485 Z M47.2659,16.07475 C48.2223,16.5852 48.77985,17.2695 49.2684,17.8761 C49.74915,18.46845 50.2038,19.0377 50.9178,19.27485 C51.17085,19.3617 51.4401,19.4034 51.7143,19.4034 C52.78365,19.4034 53.8593,18.74745 54.2667,17.8386 L54.67695,16.9284 L53.6844,16.86915 C53.6379,16.8684 52.3614,16.75125 50.94255,15.29865 C50.35815,14.70198 49.6512,14.389155 48.89055,14.389155 C47.96085,14.389155 47.27145,14.8545 47.1954,14.902515 L46.284,15.54585 L47.2659,16.07475 Z"
                id="Shape" fill="#1A1919"></path>
            <path
                d="M47.7147,25.1499 L47.7147,25.18515 C47.13945,20.5317 43.76655,17.17125 40.0131,15.129 C39.6663,14.942625 39.34485,14.78445 39.0348,14.63334 C40.1766,14.811285 42.0171,14.832465 43.4382,13.598145 C43.4382,13.598145 41.26425,15.19965 36.813,13.745025 C38.04435,14.545785 40.43895,15.67635 42.6261,17.50725 C48.0903,22.3182 44.18115,27.0105 44.18115,27.0105 C46.1448,24.957 46.2267,22.7574 45.6486,20.961 C46.6827,22.68615 47.3439,24.77835 47.241,27.36 C47.09085,31.05735 45.0615,34.2555 42.92715,36.8244 C41.90145,38.07135 41.6724,39.60375 41.6724,39.60375 C41.6724,39.60375 42.08625,38.2515 43.2732,36.8604 C45.5613,34.17705 47.5173,31.39065 47.7738,27.3741 C48.01005,28.10355 48.9849,30.12885 50.53065,30.8922 C50.53065,30.8922 48.588,29.7192 47.7147,25.1499 Z"
                id="Path" fill="#1A1919"></path>
            <path
                d="M17.98425,42.75525 C12.288885,42.75525 12.434085,37.8624 12.434085,37.8624 C12.434085,37.8624 12.036525,39.3114 10.449855,39.6891 C10.259535,39.73935 10.056525,39.759 9.858465,39.759 C9.347415,39.759 8.90475,39.63825 8.90475,39.63825 C8.90475,39.63825 9.73299,37.88145 8.90757,35.42205 C8.22525,33.3819 8.33592,31.86945 8.33592,31.86945 C8.33592,31.86945 7.570425,33.03165 5.66655,33.04305 L5.647515,33.04305 C4.064355,33.04305 3.37287,31.839 3.37287,31.839 C7.167225,30.2601 6.795765,25.1646 6.795765,25.1646 C6.795765,25.1646 6.30234,25.5333 5.34018,25.5678 C5.304945,25.5699 5.273925,25.5699 5.240805,25.5699 C3.147315,25.5699 2.438205,23.32515 2.438205,23.32515 L2.48049,23.32515 C2.867475,23.32515 5.97387,23.2341 8.171685,20.43495 C9.620205,18.594 10.80723,16.97565 13.14672,16.3386 L13.38144,16.29705 L13.43148,16.0626 C13.49634,15.70455 13.25175,15.36765 12.695595,15.0054 C9.463725,12.884925 11.65872,10.180425 11.65872,10.180425 C11.65872,10.180425 12.576465,12.342615 14.647395,12.342615 C14.69745,12.342615 14.74467,12.3405 14.79825,12.3405 C15.0309,12.327795 15.2607,12.318615 15.48765,12.2706 L15.8682,12.19644 C15.8682,12.19644 15.2769,10.591395 16.70205,9.118395 C17.7729,8.006235 19.074,7.816995 19.8261,7.816995 C20.20755,7.816995 20.44425,7.865715 20.44425,7.865715 C19.73235,8.800635 19.21635,10.35273 20.0397,11.31024 C20.75235,12.1329 22.49055,12.17244 22.49055,13.3983 C22.49055,13.91871 22.00635,14.524575 21.13785,15.06825 C18.52065,16.7193 15.9246,18.91035 14.84406,21.84435 C13.49634,25.50495 15.0174,27.9348 17.18925,29.32875 C17.18925,29.32875 16.50615,29.95575 15.5187,30.0363 C15.3177,30.05535 15.12315,30.0645 14.9364,30.0645 C12.8556,30.0645 11.77854,29.08575 11.77854,29.08575 C11.77854,29.08575 11.95758,30.438 13.03464,31.69425 C14.0412,32.8524 15.35235,33.53595 17.3562,33.56415 C17.3562,33.56415 17.41965,34.4949 16.5336,35.30055 C15.9648,35.8104 14.654445,35.97495 14.654445,35.97495 C14.654445,35.97495 17.1102,36.4734 17.3802,40.1037 C17.5269,42.0717 18.0252,42.75525 18.0252,42.75525 L17.98425,42.75525 Z M18.5898,42.36405 C18.5877,42.3576 18.19005,41.73555 18.06255,40.05495 C17.91375,38.04105 17.154,36.8661 16.40325,36.19095 C16.6203,36.0879 16.8213,35.96145 16.99035,35.80755 C18.09285,34.8147 18.04635,33.6468 18.03855,33.5196 L17.99625,32.88975 L17.36475,32.87985 C15.6828,32.8524 14.507835,32.34885 13.55484,31.2423 C13.333515,30.9825 13.154475,30.7233 13.00926,30.47055 C13.53369,30.6309 14.17584,30.75015 14.9364,30.75015 C15.1401,30.75015 15.35235,30.73815 15.57645,30.7233 C16.7607,30.6216 17.562,29.91555 17.65095,29.8371 L18.30645,29.2341 L17.55855,28.75245 C15.8844,27.68055 14.173725,25.6476 15.48765,22.083 C16.33905,19.7655 18.30645,17.66625 21.50445,15.65445 C22.5837,14.970855 23.17425,14.16657 23.17425,13.3983 C23.17425,12.211275 22.1847,11.74311 21.4587,11.409105 C21.10485,11.239635 20.73615,11.071575 20.55705,10.863255 C19.99455,10.210785 20.46825,8.960925 20.99055,8.28375 L21.6603,7.405305 L20.5761,7.19064 C20.54445,7.187115 20.26035,7.13415 19.8261,7.13415 C19.017,7.13415 17.47185,7.330455 16.21005,8.63964 C15.1584,9.72921 15.02025,10.887975 15.07455,11.637195 C14.97306,11.645655 14.87085,11.6499 14.763,11.655555 L14.647395,11.655555 C13.06425,11.655555 12.316365,9.975645 12.287475,9.909975 L11.842695,8.860665 L11.1216,9.745455 C11.081415,9.79911 10.02834,11.113935 10.284915,12.76206 C10.45479,13.85799 11.142045,14.80209 12.3213,15.57885 C12.449595,15.6615 12.539115,15.732 12.603255,15.79065 C10.377255,16.51515 9.13596,18.10395 7.824885,19.7733 L7.635975,20.0106 C5.63271,22.56465 2.796285,22.64025 2.45724,22.64025 L1.490844,22.6098 L1.784775,23.5314 C1.81932,23.6436 2.674335,26.25705 5.240805,26.25705 L5.36415,26.25345 C5.636235,26.2458 5.879415,26.2083 6.09582,26.1666 C5.990085,27.5916 5.46636,30.2262 3.107835,31.20705 L2.387445,31.5051 L2.77725,32.18505 C2.8146,32.24715 3.69006,33.72795 5.67219,33.72795 C6.538485,33.7251 7.212345,33.50835 7.71633,33.24645 C7.792455,33.89115 7.95105,34.71945 8.2605,35.6451 C8.97807,37.78395 8.309835,39.28455 8.28447,39.34455 L7.929915,40.0917 L8.730645,40.30425 C8.78352,40.3176 9.276225,40.44195 9.858465,40.44195 C10.130535,40.44195 10.382175,40.41225 10.60986,40.35855 C11.21676,40.2153 11.6862,39.94545 12.04287,39.63825 C12.25998,40.30845 12.632865,41.0655 13.279935,41.73555 C14.38026,42.86895 15.9627,43.44015 18.03015,43.44015 L19.28265,43.4232 L18.5898,42.36405 Z"
                id="Shape" fill="#1A1919"></path>
            <path
                d="M6.560595,15.7824 C7.089255,15.2379 7.645395,15.0741 8.12613,15.0741 C8.86413,15.0741 9.423105,15.4674 9.423105,15.4674 C7.4283,16.53225 7.01664,18.24045 5.877555,18.62535 C5.689365,18.6924 5.49411,18.7206 5.29956,18.7206 C4.461465,18.7206 3.650145,18.1776 3.373125,17.55765 C3.373125,17.55765 4.90977,17.46375 6.560595,15.7824 Z M5.29956,19.4034 C5.574465,19.4034 5.843025,19.36245 6.09678,19.2756 C6.812235,19.0377 7.26687,18.4692 7.7469,17.8761 C8.238195,17.27025 8.789415,16.5852 9.74664,16.07475 L10.73136,15.54585 L9.817125,14.90184 C9.741,14.853825 9.055155,14.38989 8.12613,14.38989 C7.36344,14.38989 6.655755,14.70201 6.072105,15.29865 C4.65108,16.75185 3.37806,16.8684 3.33225,16.8699 L2.341185,16.9284 L2.747895,17.83935 C3.15744,18.74745 4.23096,19.4034 5.29956,19.4034 Z"
                id="Shape" fill="#1A1919"></path>
            <path
                d="M9.77451,27.36 C9.66807,24.77835 10.329945,22.68615 11.36541,20.961 C10.78812,22.7574 10.86636,24.957 12.832965,27.01125 C12.832965,27.01125 8.9223,22.3182 14.390055,17.50725 C16.5759,15.67635 18.96825,14.545785 20.1996,13.745025 C15.7497,15.19965 13.57662,13.598145 13.57662,13.598145 C14.99625,14.832465 16.83735,14.811285 17.97855,14.63334 C17.66985,14.78445 17.34555,14.94192 17.00085,15.129 C13.246035,17.17125 9.875295,20.5317 9.2973,25.18515 L9.2973,25.1499 C8.425365,29.7192 6.484125,30.8922 6.484125,30.8922 C8.028525,30.12885 9.001245,28.10355 9.238095,27.3741 C9.49608,31.39065 11.45211,34.17705 13.739445,36.8604 C14.926455,38.2515 15.3444,39.60375 15.3444,39.60375 C15.3444,39.60375 15.1125,38.07135 14.082015,36.8244 C11.951175,34.2561 9.92394,31.05735 9.77451,27.36 Z"
                id="Path" fill="#1A1919"></path>
            <path
                d="M27.22005,17.9451 L27.22005,18.86805 C27.53865,18.4803 28.15125,18.55935 28.15125,18.55935 L28.15125,19.8897 C28.15125,19.8897 28.13085,20.5443 27.8982,20.8275 L29.2269,20.8275 C28.9971,20.5443 28.9746,19.8897 28.9746,19.8897 L28.9746,18.55935 C28.9746,18.55935 29.58915,18.4803 29.9049,18.86805 L29.9049,17.9451 L27.22005,17.9451 Z"
                id="Path" fill="#1A1919"></path>
            <path
                d="M26.65005,12.472515 C27.07515,12.810045 27.3204,12.866535 27.3282,12.87147 L27.49455,12.94845 L27.49455,12.079905 L25.9332,11.422485 C25.9332,11.422485 25.94655,11.92596 26.65005,12.472515 Z"
                id="Path" fill="#1A1919"></path>
            <path
                d="M30.3618,12.472515 C31.0674,11.92596 31.0809,11.422485 31.0809,11.422485 L29.51955,12.079905 L29.51955,12.94845 L29.6844,12.87147 C29.69295,12.866535 29.93745,12.810045 30.3618,12.472515 Z"
                id="Path" fill="#1A1919"></path>
            <path
                d="M28.50555,10.1583 L24.74505,8.669775 C25.065,7.911375 26.53965,7.26597 28.50555,7.263855 C30.4743,7.26597 31.94895,7.911375 32.26755,8.669775 L28.50555,10.1583 Z M31.3095,14.82093 L28.78185,16.15545 L28.78185,10.752165 L32.21175,9.58563 L31.3095,14.82093 Z M32.87505,16.25505 L34.0311,16.92735 L34.0473,16.92735 L34.3377,17.09745 C33.68505,17.27835 33.1866,17.6052 32.76795,18.0345 C32.7525,18.048 32.739,18.06345 32.7222,18.0798 C32.6262,18.1821 32.5311,18.29235 32.43945,18.40665 C32.42325,18.4278 32.40495,18.45045 32.3859,18.47595 C32.2971,18.591 32.21175,18.70965 32.1315,18.83175 C32.118,18.8529 32.10255,18.8742 32.08845,18.8946 C31.99335,19.038 31.90095,19.19055 31.81005,19.34865 C30.9867,20.76945 29.6736,21.61815 28.50555,21.62025 C27.339,21.61815 26.02515,20.76945 25.20315,19.34865 C25.11375,19.19475 25.02345,19.0458 24.92835,18.90105 C24.9093,18.8742 24.89235,18.84585 24.8748,18.8226 C24.7944,18.7047 24.71265,18.5889 24.6309,18.48015 C24.60975,18.45045 24.5907,18.4278 24.56955,18.40245 C24.48,18.29235 24.38835,18.1836 24.29535,18.08325 C24.27555,18.06705 24.2622,18.048 24.24525,18.0318 C23.8245,17.60175 23.32755,17.27835 22.67415,17.09745 L22.96725,16.92735 L22.98075,16.92735 L24.1389,16.25505 L25.3266,15.5736 L28.49985,17.30445 L28.50555,17.2974 L28.5147,17.30445 L31.68735,15.5736 L32.87505,16.25505 Z M37.4349,21.0618 C37.1763,21.74595 36.96195,22.4868 36.96195,23.2233 L36.96405,27.9783 C35.9724,27.81165 35.85525,26.74185 35.85105,26.69535 L35.83275,26.47785 L35.61915,26.4588 C35.1885,26.4171 34.9023,26.23485 34.66125,26.00055 C34.17495,25.5132 34.1742,24.72375 34.17495,24.7167 C34.1679,24.7569 33.6399,25.49835 34.2531,26.30835 C34.5111,26.64945 34.88535,26.8599 35.36895,26.9424 C35.4825,27.53565 35.92365,28.37385 36.96405,28.50165 L36.96405,30.82905 L34.0374,30.82905 C32.6883,30.07635 33.25995,28.75305 33.28605,28.69575 L33.4002,28.4451 L33.1422,28.347 C31.6803,27.804 32.0835,26.3436 32.10255,26.28075 L32.1618,26.0676 L31.9623,25.9737 C30.7563,25.413 30.91905,23.904 30.93525,23.8404 C30.56385,24.14265 30.43065,24.7569 30.6858,25.36005 C30.54765,25.5189 30.36225,25.70955 30.15855,25.92075 C28.90875,25.60155 28.87005,24.4512 28.87005,24.39825 L28.8672,24.22095 L28.70295,24.1575 C28.21515,23.97675 27.88035,23.7048 27.71475,23.34045 C27.52995,22.9365 27.5949,22.51365 27.6456,22.3095 C27.7887,22.34265 27.93105,22.36455 28.0671,22.37655 C28.2081,22.39065 28.35195,22.39995 28.49715,22.39995 L28.5168,22.39995 C28.6614,22.39995 28.80435,22.39065 28.94535,22.37655 C29.7243,22.29885 30.5955,21.9642 31.50405,21.0618 L37.4349,21.0618 Z M33.77805,41.784 L34.10505,40.07805 C34.122,39.9777 34.14315,39.86055 34.15725,39.7623 C34.25025,39.80115 34.34685,39.83235 34.4526,39.852 C34.5753,39.8754 34.68735,39.8874 34.7895,39.8874 C35.28855,39.8874 35.5797,39.62475 35.7729,39.40005 L36.0231,39.10785 L35.81865,38.78655 C35.80035,38.75475 35.34645,38.03655 34.99815,37.54515 C34.92915,37.4484 34.8642,37.3524 34.79805,37.24845 C34.40115,36.654 33.90495,35.90895 32.90895,35.90895 L32.82015,35.91105 C32.65665,35.9217 32.51565,35.95425 32.40135,35.9973 C32.08845,35.85105 31.76565,35.77485 31.4301,35.77485 C31.01775,35.77485 30.6723,35.88855 30.44115,35.96685 C30.37485,35.9859 30.31575,36.0072 30.2691,36.01635 L28.40835,35.83275 C28.38495,35.8278 28.30965,35.78325 28.2165,35.6739 L28.2165,35.6646 L28.6191,35.5029 C28.50555,34.1592 27.2178,33.333 26.5002,33.05265 C26.46915,32.91855 26.40435,32.7843 26.29155,32.67495 L25.8918,32.295 L25.5402,32.71725 L25.3674,32.9319 L22.76145,31.86 L24.45675,33.9918 L23.78775,35.0073 C23.54325,35.2671 23.81325,35.52915 23.81325,35.52915 L24.5046,36.0057 L25.22085,35.7381 C25.24545,35.7381 25.26735,35.7438 25.29195,35.7465 C25.2567,35.85525 25.2117,36.2832 25.182,36.4026 L23.93865,36.15825 L22.63245,36.89685 C21.96075,37.3911 21.8691,38.20815 22.1187,38.7681 L22.26315,39.0852 L22.46895,39.53355 L22.92645,39.3444 C22.93275,39.34215 22.9392,39.34005 22.9434,39.3366 C22.77915,39.86265 22.84605,40.3626 23.13855,40.6902 L23.41635,41.0397 L23.78565,41.50725 L24.19095,41.0709 C24.30945,40.95225 24.69705,40.518 24.81555,40.14645 L24.9036,39.86265 L24.7062,39.6444 L24.6732,39.60495 L24.8958,39.237 L26.5185,39.6204 L26.88435,39.7044 L27.07815,39.3831 L27.1839,39.2088 C27.2043,39.1713 27.20865,39.16575 27.28395,39.16575 C27.34185,39.16575 27.39885,39.1713 27.46095,39.1854 C28.0734,39.3012 28.638,39.3585 29.1393,39.3585 C29.6256,39.3585 29.91675,39.34005 30.2628,39.225 C30.2628,39.225 31.134,40.21635 31.1643,40.2546 L30.63,41.90415 L30.60675,42.0036 C29.59605,42.0855 29.10405,42.30795 28.50915,42.90255 C27.6456,42.04455 27.03375,41.95425 24.71265,41.95425 C21.9339,41.95425 20.0505,40.3224 20.0505,37.71525 L20.0505,31.34235 L36.96405,31.34235 L36.96765,37.71525 C36.96765,39.828 35.7291,41.3031 33.77805,41.784 Z M23.3607,38.1807 L23.44875,38.4009 C23.39025,38.59365 22.73055,38.86635 22.73055,38.86635 L22.58805,38.55345 C22.43655,38.22015 22.46895,37.6581 22.92855,37.31415 L23.9985,36.6618 L25.1334,36.90255 C25.11225,37.2633 25.3272,37.53315 25.3272,37.53315 L24.1389,37.30425 L23.4276,37.79655 C23.3064,37.88115 23.29785,38.03655 23.3607,38.1807 Z M33.59895,39.98205 L33.2346,41.8878 C33.0006,41.9211 32.7552,41.93805 32.50155,41.9478 L32.8863,40.11615 C33.0006,39.57165 31.5414,39.4023 30.82035,38.33175 C30.4686,38.7279 29.80605,38.84655 29.1393,38.84655 C28.53165,38.84655 27.92475,38.7498 27.55545,38.6763 C27.4617,38.66145 27.37215,38.65095 27.28395,38.65095 C27.0711,38.65095 26.87655,38.71725 26.742,38.94255 L26.63625,39.12195 L24.6477,38.65305 L24.153,39.47355 C24.08385,39.60705 24.07815,39.71865 24.19095,39.84285 L24.3249,39.9897 C24.23265,40.27995 23.8188,40.71915 23.8188,40.71915 L23.52345,40.3491 C23.28945,40.0872 23.32755,39.60705 23.57145,39.1629 L24.36015,37.82895 L26.0448,38.07255 L25.78335,37.47525 C25.4316,36.6843 25.968,35.67945 26.02515,35.10045 C26.00535,35.27565 25.8447,35.3151 25.65855,35.3151 C25.48875,35.3151 25.299,35.2827 25.17285,35.2827 C25.1229,35.2827 25.0806,35.28765 25.05795,35.3046 L24.6012,35.5821 L24.2418,35.2629 C24.198,35.20215 24.18465,35.05815 24.28965,34.95075 L25.1229,34.01445 L24.1389,32.862 L25.5168,33.5562 L25.93845,33.04485 C26.05395,33.15855 26.00325,33.4551 26.00325,33.4551 C26.43315,33.46575 27.6399,34.1337 27.7041,35.6943 C27.7077,35.7423 27.7077,35.79525 27.7077,35.84685 C27.7077,35.84685 27.71895,35.86665 27.7401,35.89845 C27.8247,36.01635 28.0608,36.3171 28.359,36.3447 L30.2643,36.53385 L30.27195,36.53385 C30.4806,36.53385 30.89655,36.28815 31.4301,36.28815 C31.72125,36.28815 32.04405,36.3624 32.38875,36.57975 C32.38875,36.57975 32.5629,36.44205 32.8434,36.42795 C32.86455,36.4251 32.88915,36.4251 32.90895,36.4251 C33.7632,36.4251 34.11855,37.1991 34.5774,37.8417 C34.9221,38.33175 35.38305,39.0576 35.38305,39.0576 C35.21325,39.25965 35.0553,39.3726 34.7895,39.3726 C34.7169,39.3726 34.6344,39.3669 34.54425,39.3486 C33.62715,39.1791 33.49545,37.29165 32.9724,37.14255 C32.9442,37.1349 32.916,37.13205 32.88915,37.13205 C32.7207,37.13205 32.64735,37.28175 32.64735,37.28175 C32.88645,37.9257 32.74605,38.1855 33.00405,38.68125 C33.19575,39.0492 33.53775,39.35145 33.678,39.4947 C33.678,39.4947 33.6399,39.7737 33.59895,39.98205 Z M31.8453,41.96055 C31.58865,41.96055 31.35255,41.96415 31.14045,41.97255 L31.6986,40.2312 C31.7853,39.9897 31.34475,39.6798 31.1622,39.40785 C31.43715,39.58095 32.1498,39.96015 32.4924,40.1112 C32.45775,40.16775 31.8453,41.96055 31.8453,41.96055 Z M23.5467,26.26875 L23.62635,23.2416 L24.3045,22.5228 L24.7302,23.41605 L23.89065,26.3217 L23.5467,26.26875 Z M24.0345,27.20655 C24.1452,27.43965 24.3447,27.5949 24.48495,27.68325 C24.48,27.9021 24.4596,28.24035 24.40245,28.53975 C24.38835,28.6068 24.3714,28.6683 24.3531,28.72965 C24.3432,28.7685 24.33195,28.8003 24.32415,28.8258 C24.11625,28.8258 23.7102,28.8003 23.3769,28.6788 C23.0082,28.5426 22.45845,27.86535 22.58535,27.11835 C22.74465,27.02085 23.11395,26.8125 23.46,26.8125 C23.7258,26.8125 23.9076,26.9382 24.0345,27.20655 Z M31.88895,28.02 C31.3674,28.4049 30.02385,29.38785 29.53605,29.72895 L24.8451,28.8843 C24.85635,28.84275 24.86775,28.8003 24.8775,28.75935 C24.93885,28.515 25.0023,28.18245 25.00515,27.7905 L28.9482,27.8541 L29.02365,27.77715 C29.0835,27.71715 30.33255,26.50815 30.96915,25.8126 C31.12065,26.00325 31.3095,26.18475 31.55835,26.3436 C31.47375,26.80695 31.50975,27.465 31.88895,28.02 Z M25.50975,21.0618 C26.07375,21.6231 26.6256,21.972 27.15,22.164 C27.08235,22.4352 26.99295,22.9944 27.24525,23.55165 C27.4518,24.00075 27.82605,24.34665 28.3674,24.57765 C28.42665,25.1334 28.77765,25.96875 29.7468,26.33655 C29.32185,26.766 28.90875,27.17055 28.74165,27.3336 L24.807,27.2715 C24.7182,27.2271 24.56535,27.126 24.49755,26.9841 C24.4899,26.9637 24.47715,26.95305 24.46875,26.93325 L25.1109,27.03705 C25.12425,27.03915 25.13835,27.03915 25.1517,27.03915 C25.27575,27.03915 25.3836,26.95305 25.40415,26.82525 C25.4253,26.68335 25.3308,26.55195 25.1919,26.53005 L24.40245,26.4051 L25.27785,23.373 L24.4482,21.6231 L23.11815,23.0319 L23.0364,26.18475 L22.14255,26.0421 C22.0044,26.01525 21.8727,26.11635 21.84795,26.25675 C21.8268,26.3952 21.9213,26.5272 22.06155,26.55195 L22.43655,26.6091 C22.3026,26.68545 22.2138,26.7462 22.2033,26.7546 L22.12785,26.80755 L22.1067,26.90145 C21.8895,27.7863 22.3809,28.62585 22.91235,29.0016 L22.8933,29.1132 C22.8714,29.2494 22.90245,29.38215 22.9842,29.493 C23.06175,29.6067 23.1795,29.6745 23.31345,29.6985 C23.3409,29.70345 23.37045,29.70555 23.39595,29.70555 C23.62635,29.70555 23.82735,29.54595 23.8836,29.313 C24.081,29.33625 24.2622,29.3412 24.38625,29.3412 L24.492,29.3412 L29.6538,30.27615 L29.74185,30.2175 C30.15285,29.92935 31.72125,28.7847 32.235,28.40565 C32.37675,28.52775 32.5347,28.63785 32.72565,28.72965 C32.55855,29.28825 32.5488,30.1491 33.2064,30.82905 L20.0505,30.82905 L20.0505,23.2233 C20.0505,22.4868 19.83555,21.74595 19.58115,21.0618 L25.50975,21.0618 Z M24.7986,9.58563 L28.23135,10.752165 L28.23135,16.15545 L25.7037,14.82093 L24.7986,9.58563 Z M33.174,8.933865 C33.174,7.615515 30.9585,6.429195 28.51335,6.429195 L28.49985,6.429195 C26.0547,6.429195 23.8392,7.615515 23.8392,8.933865 L23.88795,9.257985 L24.86415,14.87247 L23.8836,15.4431 L21.34605,16.92735 L21.3552,16.92735 C21.3552,16.92735 20.7843,17.22105 20.52,17.4018 C19.55355,18.0741 19.3485,19.05495 19.9095,19.46025 C20.04765,18.66015 20.67855,17.8248 21.8607,17.8248 C22.7115,17.8248 23.3607,18.26475 23.8836,18.9243 C24.01905,19.09095 24.14655,19.26885 24.26565,19.46025 C24.41235,19.70175 24.5604,19.91355 24.7062,20.1177 L18.16995,20.1177 C18.6507,21.08505 19.10745,22.1097 19.10745,23.2233 L19.10745,37.71525 C19.10745,41.2233 21.8001,42.8976 24.71265,42.8976 C26.964,42.8976 27.26715,42.79455 28.50915,44.03445 C29.74545,42.79455 30.0492,42.8976 32.30205,42.8976 C35.2167,42.8976 37.90575,41.2233 37.90575,37.71525 L37.90575,23.2233 C37.90575,22.1097 38.3619,21.08505 38.84475,20.1177 L32.30625,20.1177 C32.4522,19.91355 32.5995,19.70175 32.74605,19.46025 C32.8674,19.26885 32.99415,19.09095 33.12675,18.9243 C33.65475,18.2619 34.3017,17.8248 35.15325,17.8248 C36.3339,17.8248 36.96405,18.66015 37.1043,19.46025 C37.66545,19.05495 37.4625,18.0741 36.49035,17.4018 C36.23025,17.22105 35.6586,16.92735 35.6586,16.92735 L35.6679,16.92735 L33.12675,15.4431 L32.1498,14.87247 L33.12675,9.257985 L33.174,8.933865 Z"
                id="Shape" fill="#1A1919"></path>
            <polygon id="Path" fill="#FFFFFF"
                points="75.18 33.09 79.68 33.09 79.68 22.62 85.86 22.62 85.86 18.81 69 18.81 69 22.62 75.18 22.62"></polygon>
            <polygon id="Path" fill="#FFFFFF"
                points="99.5109 18.81 92.0109 27.12 92.0109 18.81 87.6609 18.81 87.6609 33.09 91.5009 33.09 99.0009 24.78 99.0009 33.09 103.3509 33.09 103.3509 18.81"></polygon>
            <polygon id="Path" fill="#FFFFFF"
                points="110.99535 27.78 117.98535 27.78 117.98535 33.09 122.33535 33.09 122.33535 18.81 117.98535 18.81 117.98535 24.03 110.99535 24.03 110.99535 18.81 106.64535 18.81 106.64535 33.09 110.99535 33.09"></polygon>
            <path
                d="M134.44965,33.09 C135.43965,33.09 136.33965,33 137.17965,32.76 C139.42965,32.13 140.89965,30.3 140.89965,27.81 C140.89965,25.44 139.63965,23.79 137.62965,23.04 C136.66965,22.68 135.52965,22.65 134.44965,22.65 L129.97965,22.65 L129.97965,18.81 L125.62965,18.81 L125.62965,33.09 L134.44965,33.09 Z M129.97965,26.01 L133.69965,26.01 C134.29965,26.01 134.86965,26.01 135.37965,26.19 C136.09965,26.43 136.51965,27.03 136.51965,27.75 C136.51965,28.5 136.09965,29.13 135.40965,29.43 C134.92965,29.64 134.44965,29.64 133.69965,29.64 L129.97965,29.64 L129.97965,26.01 Z"
                id="Shape" fill="#FFFFFF"></path>
            <polygon id="Path" fill="#FFFFFF"
                points="147.4992 27.69 148.6992 27.69 153.8895 33.09 159.6795 33.09 152.4495 25.65 159.4095 18.81 153.9495 18.81 148.6992 24.18 147.4992 24.18 147.4992 18.81 143.1492 18.81 143.1492 33.09 147.4992 33.09"></polygon>
            <path
                d="M168.63,18.42 C162.78,18.42 159.27,21.72 159.27,25.98 C159.27,30.24 162.78,33.54 168.63,33.54 C174.45,33.54 177.96,30.24 177.96,25.98 C177.96,21.72 174.45,18.42 168.63,18.42 Z M168.63,30.06 C165.72,30.06 163.86,28.32 163.86,25.98 C163.86,23.64 165.72,21.93 168.63,21.93 C171.51,21.93 173.4,23.64 173.4,25.98 C173.4,28.32 171.51,30.06 168.63,30.06 Z"
                id="Shape" fill="#FFFFFF"></path>
            <path
                d="M192.447,19.44 L192.447,18 L188.097,18 L188.097,19.44 C182.637,19.56 179.367,21.87 179.367,25.95 C179.367,30.03 182.637,32.16 188.097,32.28 L188.097,33.72 L192.447,33.72 L192.447,32.28 C197.937,32.16 201.207,30.03 201.207,25.95 C201.207,21.87 197.937,19.56 192.447,19.44 Z M188.097,29.22 C185.097,29.1 183.777,27.87 183.777,25.95 C183.777,24.03 185.097,22.65 188.097,22.53 L188.097,29.22 Z M192.447,29.22 L192.447,22.53 C195.477,22.65 196.767,24.03 196.767,25.95 C196.767,27.87 195.477,29.1 192.447,29.22 Z"
                id="Shape" fill="#FFFFFF"></path>
            <path
                d="M215.679,19.44 L215.679,18 L211.329,18 L211.329,19.44 C205.869,19.56 202.599,21.87 202.599,25.95 C202.599,30.03 205.869,32.16 211.329,32.28 L211.329,33.72 L215.679,33.72 L215.679,32.28 C221.169,32.16 224.439,30.03 224.439,25.95 C224.439,21.87 221.169,19.56 215.679,19.44 Z M211.329,29.22 C208.329,29.1 207.009,27.87 207.009,25.95 C207.009,24.03 208.329,22.65 211.329,22.53 L211.329,29.22 Z M215.679,29.22 L215.679,22.53 C218.709,22.65 219.999,24.03 219.999,25.95 C219.999,27.87 218.709,29.1 215.679,29.22 Z"
                id="Shape" fill="#FFFFFF"></path>
        </g>
    </g>
</svg>